<?xml version="1.0" standalone="no"?>
<!DOCTYPE svg PUBLIC "-//W3C//DTD SVG 20010904//EN"
 "http://www.w3.org/TR/2001/REC-SVG-20010904/DTD/svg10.dtd">
<svg version="1.0" xmlns="http://www.w3.org/2000/svg"
 width="840.000000pt" height="592.000000pt" viewBox="0 0 840.000000 592.000000"
 preserveAspectRatio="xMidYMid meet">

<g transform="translate(0.000000,592.000000) scale(0.100000,-0.100000)"
fill="#000000" stroke="none">
<path d="M4005 5513 c-629 -53 -1194 -318 -1631 -765 -207 -211 -340 -399
-470 -663 -127 -260 -203 -510 -246 -810 -17 -119 -17 -513 0 -630 86 -597
326 -1088 732 -1495 415 -417 950 -673 1545 -740 118 -13 420 -13 543 1 580
63 1114 320 1533 738 385 386 622 845 720 1396 30 169 37 517 15 709 -55 473
-251 942 -553 1316 -91 113 -266 288 -383 381 -402 322 -858 507 -1379 559
-95 9 -332 11 -426 3z m580 -222 c473 -81 887 -285 1234 -608 313 -290 564
-712 670 -1126 189 -736 25 -1497 -450 -2087 -99 -123 -293 -311 -413 -400
-539 -399 -1172 -551 -1836 -439 -549 92 -1068 398 -1426 839 -265 328 -429
700 -501 1135 -22 137 -25 542 -5 675 41 265 109 484 222 715 364 745 1070
1233 1905 1319 22 2 139 3 260 1 166 -2 249 -8 340 -24z"/>
<path d="M4100 4335 l0 -195 -529 0 -529 0 -5 -22 c-3 -13 -56 -257 -117 -543
-61 -286 -134 -629 -162 -762 l-52 -242 -41 -3 -40 -3 4 -95 c4 -117 28 -199
82 -278 146 -220 448 -284 670 -142 106 69 194 195 219 316 6 28 10 85 8 125
l-3 74 -30 3 -30 3 -37 157 c-21 86 -92 387 -158 667 -67 281 -123 518 -126
528 -5 16 20 17 435 17 l441 0 0 -1180 0 -1180 -195 0 -195 0 0 -100 0 -100
489 0 c544 0 501 -6 501 69 0 21 -3 59 -6 85 l-7 46 -193 0 -194 0 0 1180 0
1180 440 0 c345 0 440 -3 440 -12 0 -16 -258 -1339 -265 -1355 -3 -9 -26 -13
-65 -13 l-60 0 0 -62 c1 -270 175 -480 430 -519 136 -21 290 27 396 124 104
94 152 202 161 360 l6 97 -51 0 c-28 0 -54 5 -58 11 -3 6 -60 288 -125 628
-65 339 -133 689 -150 779 l-31 162 -534 0 -534 0 0 195 0 195 -100 0 -100 0
0 -195z m-841 -1412 c45 -189 81 -347 81 -352 0 -9 -416 -8 -426 1 -4 5 163
809 193 928 7 28 21 -22 152 -577z m2125 87 c46 -239 82 -437 79 -440 -7 -7
-330 -6 -337 1 -4 3 32 203 79 444 47 241 85 440 86 444 2 17 16 -50 93 -449z"/>
</g>
</svg>
