<?xml version="1.0" standalone="no"?>
<!DOCTYPE svg PUBLIC "-//W3C//DTD SVG 20010904//EN"
 "http://www.w3.org/TR/2001/REC-SVG-20010904/DTD/svg10.dtd">
<svg version="1.0" xmlns="http://www.w3.org/2000/svg"
 width="200.000000pt" height="200.000000pt" viewBox="0 0 200.000000 200.000000"
 preserveAspectRatio="xMidYMid meet">

<g transform="translate(0.000000,200.000000) scale(0.100000,-0.100000)"
fill="#000000" stroke="none">
<path d="M1450 1680 c-92 -11 -149 -28 -192 -56 -165 -107 242 -215 504 -134
189 58 123 162 -119 190 -96 11 -99 11 -193 0z"/>
<path d="M1220 1370 c0 -115 7 -126 96 -160 160 -59 434 -41 530 35 28 22 29
26 32 125 4 97 3 102 -15 95 -10 -5 -49 -19 -88 -33 -137 -48 -390 -39 -509
19 -22 10 -41 19 -43 19 -2 0 -3 -45 -3 -100z"/>
<path d="M1131 1178 c-45 -34 -51 -42 -37 -50 9 -5 16 -16 16 -23 0 -21 6 -19
58 21 l47 36 3 -90 c3 -105 13 -120 108 -154 73 -26 272 -37 367 -19 84 16
166 57 178 88 5 13 9 63 9 110 0 77 -2 85 -17 80 -10 -4 -51 -18 -91 -32 -169
-60 -471 -34 -541 46 -14 16 -30 29 -36 28 -5 0 -34 -18 -64 -41z"/>
<path d="M840 1064 c-41 -30 -76 -59 -78 -64 -2 -5 6 -22 18 -38 26 -35 23
-66 -6 -70 -16 -2 -28 7 -44 32 -12 20 -25 36 -28 36 -4 0 -20 -10 -36 -23
l-29 -23 28 -42 c23 -34 25 -45 15 -57 -19 -23 -32 -18 -66 22 l-31 37 -32
-23 -32 -23 24 -31 c13 -18 43 -58 66 -89 28 -38 48 -55 56 -50 7 4 96 68 198
142 l186 135 1 72 0 72 -55 15 c-30 9 -60 18 -67 21 -7 2 -47 -20 -88 -51z"/>
<path d="M361 891 c-15 -9 -12 -14 207 -309 69 -94 86 -111 98 -101 8 6 14 14
14 18 0 11 -284 394 -295 398 -6 1 -16 -1 -24 -6z"/>
<path d="M1222 794 l3 -108 34 -23 c65 -44 134 -58 286 -58 159 0 240 18 297
65 33 27 33 29 36 124 2 53 1 96 -3 96 -4 0 -39 -11 -76 -25 -100 -36 -228
-49 -340 -35 -90 11 -201 41 -227 62 -10 9 -12 -10 -10 -98z"/>
<path d="M156 695 c-17 -13 -11 -24 105 -182 151 -207 136 -190 155 -171 14
14 5 31 -111 189 -70 96 -128 175 -129 176 -1 1 -9 -5 -20 -12z"/>
<path d="M356 664 l-46 -35 30 -42 c65 -89 54 -84 100 -52 23 16 43 32 46 37
3 5 -14 35 -39 68 l-44 60 -47 -36z"/>
</g>
</svg>
