<svg version="1.1" id="Layer_1" xmlns="http://www.w3.org/2000/svg" xmlns:xlink="http://www.w3.org/1999/xlink" x="0px" y="0px"
	 width="100%" viewBox="0 0 212 112" enable-background="new 0 0 212 112" xml:space="preserve">
<path fill="none" opacity="1.000000" stroke="none" 
	d="
M165.000000,113.000000 
	C110.000008,113.000000 55.500011,113.000000 1.000015,113.000000 
	C1.000010,75.666679 1.000010,38.333355 1.000005,1.000025 
	C71.666649,1.000016 142.333298,1.000016 212.999954,1.000008 
	C212.999969,38.333309 212.999969,75.666618 212.999985,112.999969 
	C197.166672,113.000000 181.333328,113.000000 165.000000,113.000000 
M166.732147,59.745602 
	C168.747177,61.007458 170.762222,62.269314 173.261429,63.834370 
	C176.608383,54.182236 179.435135,46.030323 182.261887,37.878410 
	C182.584808,37.950809 182.907715,38.023205 183.230637,38.095600 
	C183.230637,52.674438 183.230637,67.253273 183.230637,81.745193 
	C185.713837,81.745193 187.808823,81.745193 190.026962,81.745193 
	C190.026962,63.438683 190.026962,45.390354 190.026962,27.372766 
	C180.073578,26.253145 180.089096,26.258446 177.003830,35.293739 
	C175.018829,41.106846 172.980011,46.901562 170.630890,53.667755 
	C167.332718,44.061016 164.435425,35.621933 161.525360,27.145670 
	C157.991959,27.145670 154.723831,27.145670 151.358032,27.145670 
	C151.358032,45.521271 151.358032,63.704002 151.358032,81.708771 
	C153.821762,81.708771 155.920776,81.708771 158.329178,81.708771 
	C158.329178,67.057114 158.329178,52.694481 158.329178,38.331844 
	C158.635941,38.259510 158.942703,38.187176 159.249451,38.114841 
	C161.632324,45.086166 164.015198,52.057487 166.732147,59.745602 
M64.786636,73.466118 
	C64.786636,76.232315 64.786636,78.998520 64.786636,81.619293 
	C67.803902,81.619293 70.179916,81.619293 73.041847,81.619293 
	C73.041847,73.847473 73.041847,66.457085 73.041847,59.392273 
	C81.574997,57.493439 87.146164,60.297626 90.117119,68.103500 
	C91.116920,70.730377 92.543625,73.193466 93.750511,75.743103 
	C97.036362,82.684669 97.031128,82.687149 105.591949,81.399559 
	C100.710663,72.565300 95.975815,63.996075 91.243904,55.432148 
	C97.435944,52.054924 99.917274,47.451248 98.958427,39.887974 
	C98.118607,33.263550 93.936417,28.323032 86.597305,27.495962 
	C79.463142,26.691992 72.167450,27.321409 64.786606,27.321409 
	C64.786606,42.540611 64.786606,57.506413 64.786636,73.466118 
M116.217949,79.373604 
	C127.185326,86.681610 139.573364,83.241768 143.464417,71.360672 
	C147.128738,60.171822 147.013092,48.689888 143.485138,37.456570 
	C140.936813,29.342484 135.358612,25.749849 126.893539,25.863077 
	C118.874840,25.970337 113.415688,29.845236 111.030174,37.779961 
	C107.894173,48.210987 107.875023,58.853767 110.620964,69.333839 
	C111.510056,72.727097 113.934868,75.717972 116.217949,79.373604 
M30.840694,41.516747 
	C30.840694,38.922409 30.840694,36.328072 30.840694,33.250954 
	C39.450916,33.250954 47.354263,33.250954 55.142254,33.250954 
	C55.142254,30.833681 55.142254,28.941156 55.142254,27.152504 
	C44.202038,27.152504 33.639896,27.152504 23.088064,27.152504 
	C23.088064,45.540657 23.088064,63.596176 23.088064,81.684723 
	C25.743204,81.684723 28.123348,81.684723 30.962383,81.684723 
	C30.962383,72.451668 30.962383,63.534523 30.962383,54.274063 
	C38.535290,54.274063 45.642254,54.274063 52.929680,54.274063 
	C52.929680,51.968395 52.929680,50.025051 52.929680,47.729507 
	C45.625668,47.729507 38.516747,47.729507 30.840706,47.729507 
	C30.840706,45.758308 30.840706,44.137085 30.840694,41.516747 
z"/>
<path fill="#040CC9" opacity="1.000000" stroke="none" 
	d="
M166.565094,59.387207 
	C164.015198,52.057487 161.632324,45.086166 159.249451,38.114841 
	C158.942703,38.187176 158.635941,38.259510 158.329178,38.331844 
	C158.329178,52.694481 158.329178,67.057114 158.329178,81.708771 
	C155.920776,81.708771 153.821762,81.708771 151.358032,81.708771 
	C151.358032,63.704002 151.358032,45.521271 151.358032,27.145670 
	C154.723831,27.145670 157.991959,27.145670 161.525360,27.145670 
	C164.435425,35.621933 167.332718,44.061016 170.630890,53.667755 
	C172.980011,46.901562 175.018829,41.106846 177.003830,35.293739 
	C180.089096,26.258446 180.073578,26.253145 190.026962,27.372766 
	C190.026962,45.390354 190.026962,63.438683 190.026962,81.745193 
	C187.808823,81.745193 185.713837,81.745193 183.230637,81.745193 
	C183.230637,67.253273 183.230637,52.674438 183.230637,38.095600 
	C182.907715,38.023205 182.584808,37.950809 182.261887,37.878410 
	C179.435135,46.030323 176.608383,54.182236 173.261429,63.834370 
	C170.762222,62.269314 168.747177,61.007458 166.565094,59.387207 
z"/>
<path fill="#0810CA" opacity="1.000000" stroke="none" 
	d="
M64.786621,72.969162 
	C64.786606,57.506413 64.786606,42.540611 64.786606,27.321409 
	C72.167450,27.321409 79.463142,26.691992 86.597305,27.495962 
	C93.936417,28.323032 98.118607,33.263550 98.958427,39.887974 
	C99.917274,47.451248 97.435944,52.054924 91.243904,55.432148 
	C95.975815,63.996075 100.710663,72.565300 105.591949,81.399559 
	C97.031128,82.687149 97.036362,82.684669 93.750511,75.743103 
	C92.543625,73.193466 91.116920,70.730377 90.117119,68.103500 
	C87.146164,60.297626 81.574997,57.493439 73.041847,59.392273 
	C73.041847,66.457085 73.041847,73.847473 73.041847,81.619293 
	C70.179916,81.619293 67.803902,81.619293 64.786636,81.619293 
	C64.786636,78.998520 64.786636,76.232315 64.786621,72.969162 
M73.089935,33.994129 
	C73.089935,39.898739 73.089935,45.803349 73.089935,51.985611 
	C76.198830,51.985611 79.152443,52.160324 82.077888,51.947662 
	C87.451180,51.557060 90.343826,48.577644 90.640900,43.470428 
	C90.938812,38.348766 88.047768,34.688507 82.685921,33.889576 
	C79.761856,33.453880 76.757866,33.554630 73.089935,33.994129 
z"/>
<path fill="#0910CA" opacity="1.000000" stroke="none" 
	d="
M115.937569,79.133255 
	C113.934868,75.717972 111.510056,72.727097 110.620964,69.333839 
	C107.875023,58.853767 107.894173,48.210987 111.030174,37.779961 
	C113.415688,29.845236 118.874840,25.970337 126.893539,25.863077 
	C135.358612,25.749849 140.936813,29.342484 143.485138,37.456570 
	C147.013092,48.689888 147.128738,60.171822 143.464417,71.360672 
	C139.573364,83.241768 127.185326,86.681610 115.937569,79.133255 
M123.523605,75.495811 
	C130.716187,77.232811 134.966232,75.385445 135.911957,68.212463 
	C137.027802,59.749130 136.636383,51.066616 136.562622,42.482010 
	C136.545258,40.461040 135.474319,38.275135 134.383255,36.470264 
	C131.215820,31.230562 124.193573,31.013063 120.556915,35.878773 
	C115.590881,42.523136 115.843971,66.848511 120.981293,73.437782 
	C121.480110,74.077583 122.214920,74.533386 123.523605,75.495811 
z"/>
<path fill="#0910CA" opacity="1.000000" stroke="none" 
	d="
M30.840700,42.016304 
	C30.840706,44.137085 30.840706,45.758308 30.840706,47.729507 
	C38.516747,47.729507 45.625668,47.729507 52.929680,47.729507 
	C52.929680,50.025051 52.929680,51.968395 52.929680,54.274063 
	C45.642254,54.274063 38.535290,54.274063 30.962383,54.274063 
	C30.962383,63.534523 30.962383,72.451668 30.962383,81.684723 
	C28.123348,81.684723 25.743204,81.684723 23.088064,81.684723 
	C23.088064,63.596176 23.088064,45.540657 23.088064,27.152504 
	C33.639896,27.152504 44.202038,27.152504 55.142254,27.152504 
	C55.142254,28.941156 55.142254,30.833681 55.142254,33.250954 
	C47.354263,33.250954 39.450916,33.250954 30.840694,33.250954 
	C30.840694,36.328072 30.840694,38.922409 30.840700,42.016304 
z"/>
<path fill="#FAFAFE" opacity="1.000000" stroke="none" 
	d="
M73.439926,33.703789 
	C76.757866,33.554630 79.761856,33.453880 82.685921,33.889576 
	C88.047768,34.688507 90.938812,38.348766 90.640900,43.470428 
	C90.343826,48.577644 87.451180,51.557060 82.077888,51.947662 
	C79.152443,52.160324 76.198830,51.985611 73.089935,51.985611 
	C73.089935,45.803349 73.089935,39.898739 73.439926,33.703789 
z"/>
<path fill="#F9FAFE" opacity="1.000000" stroke="none" 
	d="
M123.181900,75.285202 
	C122.214920,74.533386 121.480110,74.077583 120.981293,73.437782 
	C115.843971,66.848511 115.590881,42.523136 120.556915,35.878773 
	C124.193573,31.013063 131.215820,31.230562 134.383255,36.470264 
	C135.474319,38.275135 136.545258,40.461040 136.562622,42.482010 
	C136.636383,51.066616 137.027802,59.749130 135.911957,68.212463 
	C134.966232,75.385445 130.716187,77.232811 123.181900,75.285202 
z"/>
</svg>