<svg version="1.1" id="Layer_1" xmlns="http://www.w3.org/2000/svg" xmlns:xlink="http://www.w3.org/1999/xlink" x="0px" y="0px"
	 width="100%" viewBox="0 0 398 120" enable-background="new 0 0 398 120" xml:space="preserve">
<path fill="none" opacity="1.000000" stroke="none" 
	d="
M289.000000,121.000000 
	C192.666672,121.000000 96.833359,121.000000 1.000026,121.000000 
	C1.000017,81.000015 1.000017,41.000034 1.000009,1.000036 
	C133.666641,1.000024 266.333282,1.000024 398.999939,1.000012 
	C398.999939,40.999966 398.999939,80.999931 398.999969,120.999947 
	C362.500000,121.000000 326.000000,121.000000 289.000000,121.000000 
M295.791931,78.322678 
	C296.117157,83.875221 299.946350,79.772980 302.326782,81.227562 
	C302.326782,77.927399 302.293610,75.277290 302.333130,72.628273 
	C302.440002,65.468536 302.480865,58.305584 302.752411,51.151669 
	C302.857178,48.391514 302.855957,44.939743 306.904694,44.989849 
	C311.261658,45.043766 310.982544,48.673515 311.072266,51.606201 
	C311.255585,57.599804 311.256470,63.599323 311.303436,69.596634 
	C311.332703,73.338943 311.308899,77.081673 311.308899,80.734253 
	C313.996887,80.734253 315.909943,80.734253 318.072632,80.734253 
	C318.072632,78.149498 318.055786,75.837204 318.075714,73.525230 
	C318.140289,66.029152 318.062500,58.526707 318.373901,51.040627 
	C318.486267,48.339523 318.775879,44.912506 322.781677,44.967617 
	C326.838531,45.023434 326.732452,48.391365 326.896515,51.162392 
	C327.103088,54.651009 327.031647,58.157333 327.040802,61.656120 
	C327.057617,68.071800 327.045563,74.487556 327.045563,80.745567 
	C329.716217,80.745567 331.649658,80.745567 333.031860,80.745567 
	C333.031860,69.027344 333.443787,57.563202 332.871307,46.148430 
	C332.548340,39.708218 327.230713,36.830204 321.380951,39.011940 
	C319.592621,39.678917 318.105835,41.154427 317.421295,41.620060 
	C314.371338,40.398602 311.886261,38.601223 309.385223,38.578747 
	C304.991760,38.539257 300.588531,39.586128 295.791260,40.231575 
	C295.791260,52.411068 295.791260,64.884056 295.791931,78.322678 
M270.495270,81.374794 
	C272.954559,80.102341 275.413849,78.829887 278.037170,77.472557 
	C278.334656,78.459480 278.717865,79.730988 279.005127,80.684059 
	C281.517273,80.684059 283.591888,80.684059 285.399475,80.684059 
	C285.399475,70.407455 285.633606,60.457142 285.315002,50.524555 
	C285.111542,44.182796 280.788452,40.585461 275.041321,39.243740 
	C267.968353,37.592491 260.985901,38.494579 254.629120,41.429245 
	C254.629120,43.944107 254.629120,45.983643 254.629120,48.111031 
	C272.494781,42.683453 278.664307,44.373775 277.670776,53.928471 
	C271.722748,54.616592 265.684265,54.699154 259.987976,56.137146 
	C253.524612,57.768780 250.559219,63.623268 251.444351,70.598145 
	C252.288147,77.247437 256.537384,81.416565 263.258362,81.931404 
	C265.391785,82.094833 267.562866,81.766464 270.495270,81.374794 
M374.165436,72.556595 
	C370.685181,73.599998 367.268555,75.119484 363.712372,75.594528 
	C354.321777,76.848961 348.059845,69.800392 350.229370,60.211800 
	C359.496796,60.211800 368.886108,60.211800 378.222321,60.211800 
	C379.032104,48.665287 373.740997,40.353344 364.968231,38.843361 
	C353.946625,36.946308 344.763977,42.234852 342.566620,52.696854 
	C341.540192,57.583912 341.670074,63.009388 342.598816,67.941719 
	C343.966400,75.204582 348.891266,79.765167 356.292419,81.390312 
	C363.407257,82.952591 370.052490,81.388931 377.553864,78.334541 
	C376.594879,76.122604 375.735535,74.140495 374.165436,72.556595 
M140.932007,81.583763 
	C144.259583,80.734650 147.587158,79.885536 150.826401,79.058968 
	C150.826401,76.397240 150.826401,74.261948 150.826401,72.008224 
	C146.720474,73.232430 142.787079,75.329666 138.859756,75.318298 
	C134.865997,75.306747 130.303238,74.053276 127.043907,71.811119 
	C123.536484,69.398308 123.252266,64.782288 124.304977,60.093983 
	C133.848145,60.093983 143.251389,60.093983 152.612976,60.093983 
	C153.188324,49.577824 148.632935,41.494022 141.102768,39.205067 
	C132.693558,36.648907 123.282341,39.655190 119.190163,46.864178 
	C114.347534,55.395184 114.177742,64.507225 118.890976,73.049667 
	C123.421188,81.260414 131.392349,82.739670 140.932007,81.583763 
M215.989899,62.584854 
	C216.345215,58.802368 216.244064,54.903507 217.171265,51.266823 
	C218.333664,46.707684 221.724548,44.411839 226.593887,45.108826 
	C231.288376,45.780777 232.696106,49.211979 232.927246,53.341297 
	C233.103638,56.492825 233.073227,59.657413 233.084503,62.816372 
	C233.105728,68.760086 233.090637,74.703926 233.090637,80.706223 
	C235.793655,80.706223 238.005829,80.706223 240.215714,80.706223 
	C240.215714,70.607521 240.351334,60.815609 240.159851,51.030106 
	C240.060532,45.953941 238.284073,41.248325 233.135956,39.400230 
	C227.718842,37.455563 222.304657,38.021435 217.838303,42.237080 
	C217.393280,42.657139 217.389236,43.544418 217.180527,44.214848 
	C216.870056,43.908424 216.559570,43.601997 216.249084,43.295574 
	C216.036591,42.054604 215.824097,40.813629 215.618301,39.611862 
	C213.265335,39.611862 211.173508,39.611862 208.878403,39.611862 
	C208.878403,53.471577 208.878403,67.059227 208.878403,80.732269 
	C211.255310,80.732269 213.480499,80.732269 215.989899,80.732269 
	C215.989899,74.822990 215.989899,69.192589 215.989899,62.584854 
M27.893274,64.404884 
	C27.998014,66.562927 27.883286,68.758537 28.245113,70.872581 
	C29.898766,80.534317 38.616901,84.968475 47.261833,80.555069 
	C48.850147,79.744202 50.210491,78.486786 51.974384,77.221504 
	C52.253441,78.511635 52.505127,79.675240 52.756592,80.837807 
	C55.161003,80.837807 57.274193,80.837807 59.638943,80.837807 
	C59.725620,79.377243 59.867195,78.084473 59.868980,76.791504 
	C59.885899,64.527039 59.879063,52.262539 59.879063,39.784992 
	C57.191864,39.784992 54.976349,39.784992 52.360775,39.784992 
	C52.360775,46.904819 52.575562,53.702320 52.273212,60.476738 
	C52.114017,64.043571 51.464493,67.715302 50.283482,71.075012 
	C49.038696,74.616142 45.795334,75.673943 42.142612,75.350868 
	C38.454208,75.024612 36.390282,72.843437 35.811344,69.390594 
	C35.346867,66.620399 35.184566,63.776417 35.149353,60.961910 
	C35.060806,53.884457 35.120064,46.805157 35.120064,39.739174 
	C32.347633,39.739174 30.267363,39.739174 27.891518,39.739174 
	C27.891518,47.827168 27.891518,55.628624 27.893274,64.404884 
M76.758965,58.667450 
	C81.527863,60.434200 86.476555,61.843853 90.990685,64.116623 
	C93.287086,65.272827 94.801682,67.981857 96.669693,69.988930 
	C94.569321,71.825790 92.710213,74.164894 90.286705,75.329086 
	C88.571831,76.152855 86.020706,75.712173 83.971939,75.256157 
	C80.652351,74.517296 77.438675,73.302582 74.178391,72.288193 
	C74.178391,74.837685 74.178391,77.257950 74.178391,80.917534 
	C81.534996,80.917534 88.651657,81.633804 95.542412,80.693886 
	C101.189354,79.923637 104.212402,74.634460 104.151611,68.863754 
	C104.087639,62.790798 101.696602,59.669590 95.421356,57.818752 
	C92.405090,56.929123 89.059204,56.812679 86.322723,55.433270 
	C84.315750,54.421597 81.985542,52.070732 81.709923,50.055424 
	C81.263901,46.794140 84.210922,44.938148 87.276627,45.082092 
	C92.139702,45.310425 96.972404,46.185650 101.831558,46.788887 
	C102.641441,40.293423 102.242012,39.690636 94.993561,38.962635 
	C92.035706,38.665562 89.002007,38.435612 86.064217,38.749599 
	C75.186676,39.912167 70.855591,48.586136 76.758965,58.667450 
M179.483337,50.199688 
	C185.142426,43.123215 191.872086,44.892223 198.722778,48.106815 
	C199.543335,40.284481 198.706253,39.189636 191.291916,38.569660 
	C185.655655,38.098366 180.936188,39.974903 177.207565,45.165260 
	C176.985565,42.870747 176.834946,41.313984 176.676025,39.671501 
	C174.230804,39.671501 172.013870,39.671501 169.690369,39.671501 
	C169.690369,53.603859 169.690369,67.174904 169.690369,80.701630 
	C172.208664,80.701630 174.440277,80.701630 176.928894,80.701630 
	C176.928894,75.571823 176.650192,70.748817 177.005112,65.972900 
	C177.380981,60.914883 178.359390,55.901646 179.483337,50.199688 
z"/>
<path fill="#090909" opacity="1.000000" stroke="none" 
	d="
M295.791595,77.839859 
	C295.791260,64.884056 295.791260,52.411068 295.791260,40.231575 
	C300.588531,39.586128 304.991760,38.539257 309.385223,38.578747 
	C311.886261,38.601223 314.371338,40.398602 317.421295,41.620060 
	C318.105835,41.154427 319.592621,39.678917 321.380951,39.011940 
	C327.230713,36.830204 332.548340,39.708218 332.871307,46.148430 
	C333.443787,57.563202 333.031860,69.027344 333.031860,80.745567 
	C331.649658,80.745567 329.716217,80.745567 327.045563,80.745567 
	C327.045563,74.487556 327.057617,68.071800 327.040802,61.656120 
	C327.031647,58.157333 327.103088,54.651009 326.896515,51.162392 
	C326.732452,48.391365 326.838531,45.023434 322.781677,44.967617 
	C318.775879,44.912506 318.486267,48.339523 318.373901,51.040627 
	C318.062500,58.526707 318.140289,66.029152 318.075714,73.525230 
	C318.055786,75.837204 318.072632,78.149498 318.072632,80.734253 
	C315.909943,80.734253 313.996887,80.734253 311.308899,80.734253 
	C311.308899,77.081673 311.332703,73.338943 311.303436,69.596634 
	C311.256470,63.599323 311.255585,57.599804 311.072266,51.606201 
	C310.982544,48.673515 311.261658,45.043766 306.904694,44.989849 
	C302.855957,44.939743 302.857178,48.391514 302.752411,51.151669 
	C302.480865,58.305584 302.440002,65.468536 302.333130,72.628273 
	C302.293610,75.277290 302.326782,77.927399 302.326782,81.227562 
	C299.946350,79.772980 296.117157,83.875221 295.791595,77.839859 
z"/>
<path fill="#090909" opacity="1.000000" stroke="none" 
	d="
M270.106018,81.518967 
	C267.562866,81.766464 265.391785,82.094833 263.258362,81.931404 
	C256.537384,81.416565 252.288147,77.247437 251.444351,70.598145 
	C250.559219,63.623268 253.524612,57.768780 259.987976,56.137146 
	C265.684265,54.699154 271.722748,54.616592 277.670776,53.928471 
	C278.664307,44.373775 272.494781,42.683453 254.629120,48.111031 
	C254.629120,45.983643 254.629120,43.944107 254.629120,41.429245 
	C260.985901,38.494579 267.968353,37.592491 275.041321,39.243740 
	C280.788452,40.585461 285.111542,44.182796 285.315002,50.524555 
	C285.633606,60.457142 285.399475,70.407455 285.399475,80.684059 
	C283.591888,80.684059 281.517273,80.684059 279.005127,80.684059 
	C278.717865,79.730988 278.334656,78.459480 278.037170,77.472557 
	C275.413849,78.829887 272.954559,80.102341 270.106018,81.518967 
M274.861542,72.325073 
	C276.278748,68.625229 277.695923,64.925392 279.113129,61.225548 
	C278.691406,60.749294 278.269684,60.273041 277.847961,59.796787 
	C273.043610,60.439232 268.169495,60.770554 263.457886,61.826725 
	C259.956329,62.611645 258.064880,65.750496 259.112701,69.033623 
	C259.883972,71.450195 262.269257,74.759575 264.300598,75.041740 
	C267.484711,75.484032 270.977112,73.707253 274.861542,72.325073 
z"/>
<path fill="#070707" opacity="1.000000" stroke="none" 
	d="
M374.520813,72.357498 
	C375.735535,74.140495 376.594879,76.122604 377.553864,78.334541 
	C370.052490,81.388931 363.407257,82.952591 356.292419,81.390312 
	C348.891266,79.765167 343.966400,75.204582 342.598816,67.941719 
	C341.670074,63.009388 341.540192,57.583912 342.566620,52.696854 
	C344.763977,42.234852 353.946625,36.946308 364.968231,38.843361 
	C373.740997,40.353344 379.032104,48.665287 378.222321,60.211800 
	C368.886108,60.211800 359.496796,60.211800 350.229370,60.211800 
	C348.059845,69.800392 354.321777,76.848961 363.712372,75.594528 
	C367.268555,75.119484 370.685181,73.599998 374.520813,72.357498 
M362.160095,44.977150 
	C354.831207,44.869286 350.744263,48.205643 350.467926,54.427681 
	C357.206268,54.427681 363.945587,54.427681 371.136383,54.427681 
	C369.908722,49.586864 367.867279,46.115025 362.160095,44.977150 
z"/>
<path fill="#070707" opacity="1.000000" stroke="none" 
	d="
M140.494919,81.656677 
	C131.392349,82.739670 123.421188,81.260414 118.890976,73.049667 
	C114.177742,64.507225 114.347534,55.395184 119.190163,46.864178 
	C123.282341,39.655190 132.693558,36.648907 141.102768,39.205067 
	C148.632935,41.494022 153.188324,49.577824 152.612976,60.093983 
	C143.251389,60.093983 133.848145,60.093983 124.304977,60.093983 
	C123.252266,64.782288 123.536484,69.398308 127.043907,71.811119 
	C130.303238,74.053276 134.865997,75.306747 138.859756,75.318298 
	C142.787079,75.329666 146.720474,73.232430 150.826401,72.008224 
	C150.826401,74.261948 150.826401,76.397240 150.826401,79.058968 
	C147.587158,79.885536 144.259583,80.734650 140.494919,81.656677 
M125.191200,50.844326 
	C124.874146,52.037739 124.557091,53.231152 124.259460,54.351467 
	C131.412918,54.351467 138.129456,54.351467 145.073441,54.351467 
	C144.530441,49.546402 142.203720,46.403770 138.039291,45.263042 
	C132.872391,43.847713 128.512894,45.444832 125.191200,50.844326 
z"/>
<path fill="#090909" opacity="1.000000" stroke="none" 
	d="
M215.989899,63.073517 
	C215.989899,69.192589 215.989899,74.822990 215.989899,80.732269 
	C213.480499,80.732269 211.255310,80.732269 208.878403,80.732269 
	C208.878403,67.059227 208.878403,53.471577 208.878403,39.611862 
	C211.173508,39.611862 213.265335,39.611862 215.618301,39.611862 
	C215.824097,40.813629 216.036591,42.054604 216.249084,43.295574 
	C216.559570,43.601997 216.870056,43.908424 217.180527,44.214848 
	C217.389236,43.544418 217.393280,42.657139 217.838303,42.237080 
	C222.304657,38.021435 227.718842,37.455563 233.135956,39.400230 
	C238.284073,41.248325 240.060532,45.953941 240.159851,51.030106 
	C240.351334,60.815609 240.215714,70.607521 240.215714,80.706223 
	C238.005829,80.706223 235.793655,80.706223 233.090637,80.706223 
	C233.090637,74.703926 233.105728,68.760086 233.084503,62.816372 
	C233.073227,59.657413 233.103638,56.492825 232.927246,53.341297 
	C232.696106,49.211979 231.288376,45.780777 226.593887,45.108826 
	C221.724548,44.411839 218.333664,46.707684 217.171265,51.266823 
	C216.244064,54.903507 216.345215,58.802368 215.989899,63.073517 
z"/>
<path fill="#0D0D0D" opacity="1.000000" stroke="none" 
	d="
M27.892395,63.917480 
	C27.891518,55.628624 27.891518,47.827168 27.891518,39.739174 
	C30.267363,39.739174 32.347633,39.739174 35.120064,39.739174 
	C35.120064,46.805157 35.060806,53.884457 35.149353,60.961910 
	C35.184566,63.776417 35.346867,66.620399 35.811344,69.390594 
	C36.390282,72.843437 38.454208,75.024612 42.142612,75.350868 
	C45.795334,75.673943 49.038696,74.616142 50.283482,71.075012 
	C51.464493,67.715302 52.114017,64.043571 52.273212,60.476738 
	C52.575562,53.702320 52.360775,46.904819 52.360775,39.784992 
	C54.976349,39.784992 57.191864,39.784992 59.879063,39.784992 
	C59.879063,52.262539 59.885899,64.527039 59.868980,76.791504 
	C59.867195,78.084473 59.725620,79.377243 59.638943,80.837807 
	C57.274193,80.837807 55.161003,80.837807 52.756592,80.837807 
	C52.505127,79.675240 52.253441,78.511635 51.974384,77.221504 
	C50.210491,78.486786 48.850147,79.744202 47.261833,80.555069 
	C38.616901,84.968475 29.898766,80.534317 28.245113,70.872581 
	C27.883286,68.758537 27.998014,66.562927 27.892395,63.917480 
z"/>
<path fill="#090909" opacity="1.000000" stroke="none" 
	d="
M76.498741,58.387856 
	C70.855591,48.586136 75.186676,39.912167 86.064217,38.749599 
	C89.002007,38.435612 92.035706,38.665562 94.993561,38.962635 
	C102.242012,39.690636 102.641441,40.293423 101.831558,46.788887 
	C96.972404,46.185650 92.139702,45.310425 87.276627,45.082092 
	C84.210922,44.938148 81.263901,46.794140 81.709923,50.055424 
	C81.985542,52.070732 84.315750,54.421597 86.322723,55.433270 
	C89.059204,56.812679 92.405090,56.929123 95.421356,57.818752 
	C101.696602,59.669590 104.087639,62.790798 104.151611,68.863754 
	C104.212402,74.634460 101.189354,79.923637 95.542412,80.693886 
	C88.651657,81.633804 81.534996,80.917534 74.178391,80.917534 
	C74.178391,77.257950 74.178391,74.837685 74.178391,72.288193 
	C77.438675,73.302582 80.652351,74.517296 83.971939,75.256157 
	C86.020706,75.712173 88.571831,76.152855 90.286705,75.329086 
	C92.710213,74.164894 94.569321,71.825790 96.669693,69.988930 
	C94.801682,67.981857 93.287086,65.272827 90.990685,64.116623 
	C86.476555,61.843853 81.527863,60.434200 76.498741,58.387856 
z"/>
<path fill="#121212" opacity="1.000000" stroke="none" 
	d="
M179.278992,50.534267 
	C178.359390,55.901646 177.380981,60.914883 177.005112,65.972900 
	C176.650192,70.748817 176.928894,75.571823 176.928894,80.701630 
	C174.440277,80.701630 172.208664,80.701630 169.690369,80.701630 
	C169.690369,67.174904 169.690369,53.603859 169.690369,39.671501 
	C172.013870,39.671501 174.230804,39.671501 176.676025,39.671501 
	C176.834946,41.313984 176.985565,42.870747 177.207565,45.165260 
	C180.936188,39.974903 185.655655,38.098366 191.291916,38.569660 
	C198.706253,39.189636 199.543335,40.284481 198.722778,48.106815 
	C191.872086,44.892223 185.142426,43.123215 179.278992,50.534267 
z"/>
<path fill="#F6F6F6" opacity="1.000000" stroke="none" 
	d="
M274.600220,72.597702 
	C270.977112,73.707253 267.484711,75.484032 264.300598,75.041740 
	C262.269257,74.759575 259.883972,71.450195 259.112701,69.033623 
	C258.064880,65.750496 259.956329,62.611645 263.457886,61.826725 
	C268.169495,60.770554 273.043610,60.439232 277.847961,59.796787 
	C278.269684,60.273041 278.691406,60.749294 279.113129,61.225548 
	C277.695923,64.925392 276.278748,68.625229 274.600220,72.597702 
z"/>
<path fill="#EDEDED" opacity="1.000000" stroke="none" 
	d="
M362.570007,45.015640 
	C367.867279,46.115025 369.908722,49.586864 371.136383,54.427681 
	C363.945587,54.427681 357.206268,54.427681 350.467926,54.427681 
	C350.744263,48.205643 354.831207,44.869286 362.570007,45.015640 
z"/>
<path fill="#EDEDED" opacity="1.000000" stroke="none" 
	d="
M125.415657,50.543732 
	C128.512894,45.444832 132.872391,43.847713 138.039291,45.263042 
	C142.203720,46.403770 144.530441,49.546402 145.073441,54.351467 
	C138.129456,54.351467 131.412918,54.351467 124.259460,54.351467 
	C124.557091,53.231152 124.874146,52.037739 125.415657,50.543732 
z"/>
</svg>