<?xml version="1.0" standalone="no"?>
<!DOCTYPE svg PUBLIC "-//W3C//DTD SVG 20010904//EN"
 "http://www.w3.org/TR/2001/REC-SVG-20010904/DTD/svg10.dtd">
<svg version="1.0" xmlns="http://www.w3.org/2000/svg"
 width="128.000000pt" height="128.000000pt" viewBox="0 0 128.000000 128.000000"
 preserveAspectRatio="xMidYMid meet">

<g transform="translate(0.000000,128.000000) scale(0.100000,-0.100000)"
fill="#000000" stroke="none">
<path d="M193 1161 c-28 -13 -49 -33 -67 -63 l-26 -45 0 -406 c0 -227 4 -417
9 -430 5 -14 24 -41 41 -61 l32 -36 -30 0 c-17 0 -34 -4 -37 -10 -4 -7 174
-10 527 -10 348 0 528 4 518 10 -8 5 -26 10 -39 10 -23 0 -22 1 12 39 55 61
59 98 55 518 l-3 368 -25 45 c-18 32 -38 52 -70 68 -44 22 -49 22 -450 22
-375 0 -408 -2 -447 -19z m517 -66 c35 -18 81 -22 133 -11 l39 7 -35 -35 c-19
-19 -38 -47 -40 -63 -3 -15 -8 -45 -12 -66 -7 -43 -63 -112 -98 -121 -22 -5
-23 -8 -15 -84 16 -167 51 -288 100 -347 39 -47 48 -70 48 -124 l0 -51 -195 0
-195 0 0 51 c0 55 9 78 50 126 48 55 75 151 105 374 6 44 5 47 -25 59 -46 19
-90 75 -90 114 0 47 -26 104 -63 139 l-31 29 40 -8 c54 -12 97 -8 131 10 36
20 116 20 153 1z"/>
<path d="M543 885 c24 -22 57 -33 57 -21 0 5 -69 46 -78 46 -4 0 6 -12 21 -25z"/>
<path d="M712 890 c-43 -24 -49 -30 -29 -30 9 0 29 11 44 25 33 29 30 30 -15
5z"/>
</g>
</svg>
