<svg version="1.1" id="Layer_1" xmlns="http://www.w3.org/2000/svg" xmlns:xlink="http://www.w3.org/1999/xlink" x="0px" y="0px"
	 width="100%" viewBox="0 0 245 92" enable-background="new 0 0 245 92" xml:space="preserve">
<path fill="none" opacity="1.000000" stroke="none" 
	d="
M159.000000,93.000000 
	C106.000015,93.000000 53.500031,93.000000 1.000035,93.000000 
	C1.000023,62.333359 1.000023,31.666716 1.000012,1.000056 
	C82.666618,1.000037 164.333237,1.000037 245.999878,1.000019 
	C245.999924,31.666609 245.999924,62.333218 245.999969,92.999908 
	C217.166672,93.000000 188.333328,93.000000 159.000000,93.000000 
M128.493530,46.330051 
	C133.890274,46.330051 139.287018,46.330051 144.637054,46.330051 
	C145.089828,35.151657 140.310791,27.063120 132.544006,25.067190 
	C122.281227,22.429834 112.415138,27.412342 109.123100,36.895065 
	C104.940018,48.944408 109.304855,62.064739 118.901573,66.248444 
	C119.655243,66.577011 120.460709,67.030075 121.237968,67.022095 
	C126.648468,66.966530 132.074738,67.025391 137.462891,66.614235 
	C142.838470,66.204041 144.121140,62.890877 142.891556,59.157383 
	C136.537415,59.826759 130.328094,61.470943 124.355133,60.848171 
	C117.578209,60.141567 114.691429,53.661648 116.555405,46.330017 
	C120.181549,46.330017 123.839020,46.330017 128.493530,46.330051 
M44.767506,28.803850 
	C44.766872,34.803642 45.026581,40.819065 44.667728,46.797356 
	C44.453308,50.369419 43.718044,54.062031 42.398037,57.374096 
	C41.021690,60.827515 37.734982,61.787346 34.060818,61.319389 
	C30.336901,60.845093 28.478758,58.522263 27.985760,55.095474 
	C27.560661,52.140675 27.404345,49.129562 27.366184,46.140324 
	C27.279591,39.357121 27.338915,32.572056 27.338915,25.737322 
	C24.665613,25.737322 22.562963,25.737322 20.786104,25.737322 
	C20.786104,36.600540 20.012556,47.271389 21.015499,57.772572 
	C21.920015,67.243172 32.207447,71.144768 40.426456,66.051468 
	C41.672771,65.279121 42.767536,64.262230 44.220749,63.134731 
	C44.687828,69.198166 48.752777,66.475586 51.743950,67.028130 
	C51.743950,52.975025 51.743950,39.408684 51.743950,25.204838 
	C49.271011,26.657267 45.738205,23.048481 44.767506,28.803850 
M221.989624,43.317516 
	C219.387421,42.770191 216.749817,42.350559 214.192398,41.641663 
	C211.308029,40.842136 208.244965,39.192513 209.423309,35.906715 
	C210.169891,33.824913 213.200806,31.298580 215.293335,31.218382 
	C220.093048,31.034431 224.945480,32.226475 229.842209,32.868507 
	C229.842209,31.438547 229.842209,29.299328 229.842209,26.954767 
	C223.273865,24.352295 216.606705,23.528833 209.835953,25.500296 
	C204.407867,27.080809 201.779007,31.041975 201.781067,36.726059 
	C201.783157,42.493385 203.932739,45.571781 209.561981,47.417641 
	C212.713486,48.451035 216.225113,48.687294 219.087357,50.202759 
	C221.234406,51.339561 224.059509,54.050453 223.926270,55.865520 
	C223.782623,57.822128 220.822769,60.146130 218.571930,61.196827 
	C216.685165,62.077576 213.976837,61.715588 211.764557,61.260624 
	C208.434952,60.575882 205.220779,59.329922 201.902679,58.305607 
	C201.902679,60.831043 201.902679,63.221363 201.902679,66.981621 
	C208.954437,67.038475 215.745743,67.794823 222.329437,66.944191 
	C228.608795,66.132889 231.903198,61.274956 232.010712,55.406151 
	C232.123535,49.248432 229.357346,45.746796 221.989624,43.317516 
M80.391930,68.030174 
	C83.004822,67.615578 85.722733,67.524986 88.208809,66.719162 
	C93.433731,65.025581 96.528015,60.318810 96.432930,54.910160 
	C96.326096,48.833073 93.881676,45.636471 87.703506,43.826900 
	C84.686050,42.943100 81.345070,42.816174 78.608391,41.437675 
	C76.620438,40.436317 74.380486,38.112461 74.037621,36.077560 
	C73.464241,32.674603 76.516754,30.976547 79.509270,31.094337 
	C84.325401,31.283905 89.113777,32.178463 93.962204,32.781178 
	C94.960701,26.591759 94.604927,25.777500 88.148903,25.066790 
	C84.062691,24.616959 79.817627,24.544794 75.763046,25.129742 
	C70.082855,25.949207 66.362900,30.663055 66.119537,36.223534 
	C65.870537,41.912708 68.622856,45.780304 74.476585,47.666000 
	C77.154869,48.528774 79.948776,49.026627 82.649216,49.828213 
	C85.717010,50.738842 89.137115,51.755474 88.844299,55.783707 
	C88.529648,60.112267 84.981682,61.276478 81.344948,61.666039 
	C79.574280,61.855713 77.677391,61.644840 75.940735,61.206665 
	C72.672646,60.382088 69.479324,59.261223 66.208061,58.249043 
	C66.208061,60.796009 66.208061,63.082706 66.208061,65.895416 
	C70.718338,66.619713 75.102196,67.323715 80.391930,68.030174 
M171.185013,36.984062 
	C174.146835,35.087749 176.927612,32.128162 180.119781,31.584576 
	C183.530746,31.003729 187.329895,32.702477 190.941330,33.402615 
	C191.671051,26.117582 191.076065,25.367975 183.761536,24.635019 
	C177.920334,24.049702 173.143845,26.053593 169.248962,31.456659 
	C169.085968,28.965410 168.982681,27.386776 168.871780,25.691700 
	C166.497498,25.691700 164.281372,25.691700 162.070099,25.691700 
	C162.070099,39.581505 162.070099,53.134449 162.070099,66.656921 
	C164.541443,66.656921 166.737427,66.656921 169.042313,66.656921 
	C169.042313,63.492138 168.866760,60.662769 169.077301,57.862434 
	C169.582932,51.137516 170.269745,44.426224 171.185013,36.984062 
z"/>
<path fill="#070707" opacity="1.000000" stroke="none" 
	d="
M127.995010,46.330032 
	C123.839020,46.330017 120.181549,46.330017 116.555405,46.330017 
	C114.691429,53.661648 117.578209,60.141567 124.355133,60.848171 
	C130.328094,61.470943 136.537415,59.826759 142.891556,59.157383 
	C144.121140,62.890877 142.838470,66.204041 137.462891,66.614235 
	C132.074738,67.025391 126.648468,66.966530 121.237968,67.022095 
	C120.460709,67.030075 119.655243,66.577011 118.901573,66.248444 
	C109.304855,62.064739 104.940018,48.944408 109.123100,36.895065 
	C112.415138,27.412342 122.281227,22.429834 132.544006,25.067190 
	C140.310791,27.063120 145.089828,35.151657 144.637054,46.330051 
	C139.287018,46.330051 133.890274,46.330051 127.995010,46.330032 
M127.396370,30.874422 
	C120.572166,31.346937 117.245407,34.322411 116.620094,40.402809 
	C123.339180,40.402809 130.066025,40.402809 137.355804,40.402809 
	C135.997620,35.099792 133.717773,31.514795 127.396370,30.874422 
z"/>
<path fill="#060606" opacity="1.000000" stroke="none" 
	d="
M44.768517,28.341301 
	C45.738205,23.048481 49.271011,26.657267 51.743950,25.204838 
	C51.743950,39.408684 51.743950,52.975025 51.743950,67.028130 
	C48.752777,66.475586 44.687828,69.198166 44.220749,63.134731 
	C42.767536,64.262230 41.672771,65.279121 40.426456,66.051468 
	C32.207447,71.144768 21.920015,67.243172 21.015499,57.772572 
	C20.012556,47.271389 20.786104,36.600540 20.786104,25.737322 
	C22.562963,25.737322 24.665613,25.737322 27.338915,25.737322 
	C27.338915,32.572056 27.279591,39.357121 27.366184,46.140324 
	C27.404345,49.129562 27.560661,52.140675 27.985760,55.095474 
	C28.478758,58.522263 30.336901,60.845093 34.060818,61.319389 
	C37.734982,61.787346 41.021690,60.827515 42.398037,57.374096 
	C43.718044,54.062031 44.453308,50.369419 44.667728,46.797356 
	C45.026581,40.819065 44.766872,34.803642 44.768517,28.341301 
z"/>
<path fill="#090909" opacity="1.000000" stroke="none" 
	d="
M222.353104,43.479286 
	C229.357346,45.746796 232.123535,49.248432 232.010712,55.406151 
	C231.903198,61.274956 228.608795,66.132889 222.329437,66.944191 
	C215.745743,67.794823 208.954437,67.038475 201.902679,66.981621 
	C201.902679,63.221363 201.902679,60.831043 201.902679,58.305607 
	C205.220779,59.329922 208.434952,60.575882 211.764557,61.260624 
	C213.976837,61.715588 216.685165,62.077576 218.571930,61.196827 
	C220.822769,60.146130 223.782623,57.822128 223.926270,55.865520 
	C224.059509,54.050453 221.234406,51.339561 219.087357,50.202759 
	C216.225113,48.687294 212.713486,48.451035 209.561981,47.417641 
	C203.932739,45.571781 201.783157,42.493385 201.781067,36.726059 
	C201.779007,31.041975 204.407867,27.080809 209.835953,25.500296 
	C216.606705,23.528833 223.273865,24.352295 229.842209,26.954767 
	C229.842209,29.299328 229.842209,31.438547 229.842209,32.868507 
	C224.945480,32.226475 220.093048,31.034431 215.293335,31.218382 
	C213.200806,31.298580 210.169891,33.824913 209.423309,35.906715 
	C208.244965,39.192513 211.308029,40.842136 214.192398,41.641663 
	C216.749817,42.350559 219.387421,42.770191 222.353104,43.479286 
z"/>
<path fill="#080808" opacity="1.000000" stroke="none" 
	d="
M79.938995,68.028946 
	C75.102196,67.323715 70.718338,66.619713 66.208061,65.895416 
	C66.208061,63.082706 66.208061,60.796009 66.208061,58.249043 
	C69.479324,59.261223 72.672646,60.382088 75.940735,61.206665 
	C77.677391,61.644840 79.574280,61.855713 81.344948,61.666039 
	C84.981682,61.276478 88.529648,60.112267 88.844299,55.783707 
	C89.137115,51.755474 85.717010,50.738842 82.649216,49.828213 
	C79.948776,49.026627 77.154869,48.528774 74.476585,47.666000 
	C68.622856,45.780304 65.870537,41.912708 66.119537,36.223534 
	C66.362900,30.663055 70.082855,25.949207 75.763046,25.129742 
	C79.817627,24.544794 84.062691,24.616959 88.148903,25.066790 
	C94.604927,25.777500 94.960701,26.591759 93.962204,32.781178 
	C89.113777,32.178463 84.325401,31.283905 79.509270,31.094337 
	C76.516754,30.976547 73.464241,32.674603 74.037621,36.077560 
	C74.380486,38.112461 76.620438,40.436317 78.608391,41.437675 
	C81.345070,42.816174 84.686050,42.943100 87.703506,43.826900 
	C93.881676,45.636471 96.326096,48.833073 96.432930,54.910160 
	C96.528015,60.318810 93.433731,65.025581 88.208809,66.719162 
	C85.722733,67.524986 83.004822,67.615578 79.938995,68.028946 
z"/>
<path fill="#050505" opacity="1.000000" stroke="none" 
	d="
M171.034241,37.346748 
	C170.269745,44.426224 169.582932,51.137516 169.077301,57.862434 
	C168.866760,60.662769 169.042313,63.492138 169.042313,66.656921 
	C166.737427,66.656921 164.541443,66.656921 162.070099,66.656921 
	C162.070099,53.134449 162.070099,39.581505 162.070099,25.691700 
	C164.281372,25.691700 166.497498,25.691700 168.871780,25.691700 
	C168.982681,27.386776 169.085968,28.965410 169.248962,31.456659 
	C173.143845,26.053593 177.920334,24.049702 183.761536,24.635019 
	C191.076065,25.367975 191.671051,26.117582 190.941330,33.402615 
	C187.329895,32.702477 183.530746,31.003729 180.119781,31.584576 
	C176.927612,32.128162 174.146835,35.087749 171.034241,37.346748 
z"/>
<path fill="#EDEDED" opacity="1.000000" stroke="none" 
	d="
M127.804550,30.916544 
	C133.717773,31.514795 135.997620,35.099792 137.355804,40.402809 
	C130.066025,40.402809 123.339180,40.402809 116.620094,40.402809 
	C117.245407,34.322411 120.572166,31.346937 127.804550,30.916544 
z"/>
</svg>