<svg version="1.1" id="Layer_1" xmlns="http://www.w3.org/2000/svg" xmlns:xlink="http://www.w3.org/1999/xlink" x="0px" y="0px"
	 width="100%" viewBox="0 0 308 121" enable-background="new 0 0 308 121" xml:space="preserve">
<path fill="none" opacity="1.000000" stroke="none" 
	d="
M202.000000,122.000000 
	C134.666687,122.000000 67.833374,122.000000 1.000045,122.000000 
	C1.000030,81.666702 1.000030,41.333397 1.000015,1.000072 
	C103.666603,1.000048 206.333206,1.000048 308.999878,1.000024 
	C308.999908,41.333260 308.999908,81.666519 308.999939,121.999893 
	C273.500000,122.000000 238.000000,122.000000 202.000000,122.000000 
M166.607544,91.019806 
	C175.378128,91.019806 184.148727,91.019806 192.885406,91.019806 
	C192.885406,88.476875 192.885406,86.532845 192.885406,83.989326 
	C184.305664,83.989326 175.927170,83.989326 167.643219,83.989326 
	C167.643219,76.951286 167.643219,70.520363 167.643219,63.451843 
	C175.627899,63.451843 183.336761,63.451843 190.997589,63.451843 
	C190.997589,60.885044 190.997589,58.965149 190.997589,56.606499 
	C183.133453,56.606499 175.551407,56.606499 167.690384,56.606499 
	C167.690384,51.792686 167.690384,47.425282 167.690384,42.429947 
	C176.062027,42.429947 184.112732,42.429947 192.077698,42.429947 
	C192.077698,39.881100 192.077698,37.966206 192.077698,36.033157 
	C181.126801,36.033157 170.513168,36.033157 159.768661,36.033157 
	C159.768661,54.439949 159.768661,72.620811 159.768661,91.019806 
	C161.993958,91.019806 163.817535,91.019806 166.607544,91.019806 
M83.588074,84.106285 
	C81.502625,84.106285 79.417183,84.106285 77.330658,84.106285 
	C77.330658,76.931595 77.330658,70.490814 77.330658,63.490398 
	C85.287964,63.490398 93.032959,63.490398 100.814621,63.490398 
	C100.814621,60.993992 100.814621,59.071194 100.814621,56.599964 
	C92.839821,56.599964 85.102249,56.599964 77.469101,56.599964 
	C77.469101,51.641228 77.469101,47.243698 77.469101,42.467808 
	C85.792198,42.467808 93.748169,42.467808 101.910568,42.467808 
	C101.910568,40.150791 101.910568,38.228050 101.910568,36.081886 
	C91.014389,36.081886 80.282669,36.081886 69.341614,36.081886 
	C69.341614,54.412151 69.341614,72.479988 69.341614,90.689484 
	C80.645683,90.689484 91.700310,90.689484 102.703941,90.689484 
	C102.703941,88.432724 102.703941,86.501968 102.703941,84.106293 
	C96.491615,84.106293 90.531105,84.106293 83.588074,84.106285 
M27.214108,90.361755 
	C31.983177,90.889534 36.771938,91.988159 41.517162,91.824493 
	C50.965099,91.498665 56.403770,86.482002 57.233166,78.305473 
	C58.239136,68.388168 54.583900,62.867805 45.038307,60.002346 
	C41.541813,58.952751 37.722301,58.553822 34.591980,56.857925 
	C32.472164,55.709492 30.082781,52.850731 30.020845,50.693558 
	C29.949993,48.225681 31.716789,44.597000 33.783585,43.447224 
	C36.569302,41.897507 40.461201,41.620102 43.772598,41.929344 
	C47.202717,42.249668 50.506454,43.923363 53.919678,45.022560 
	C54.625046,37.398026 54.669857,37.164753 47.807941,35.846642 
	C43.933563,35.102409 39.834793,34.769230 35.921978,35.141945 
	C28.095137,35.887501 22.550018,41.749722 21.965528,49.081547 
	C21.280107,57.679409 24.439445,62.336334 32.968906,65.043320 
	C36.450687,66.148331 40.030087,66.942856 43.525845,68.007446 
	C47.697102,69.277756 49.993618,72.192810 49.693378,76.549553 
	C49.366951,81.286324 46.466751,84.743423 41.861759,84.767540 
	C36.869205,84.793694 31.854959,83.337685 26.880514,82.371788 
	C25.564035,82.116173 24.359217,81.285484 22.570017,80.478371 
	C22.966669,84.614807 20.356474,89.090561 27.214108,90.361755 
M233.081589,90.659904 
	C238.974670,89.312378 236.816559,85.005234 236.870377,81.131248 
	C234.412567,82.338524 232.422058,83.541939 230.278641,84.328667 
	C222.467194,87.195763 215.485352,84.372757 212.810852,76.762337 
	C209.691193,67.885162 209.692581,58.737595 212.891388,49.860317 
	C215.353180,43.028355 220.914917,40.219917 228.028458,41.941589 
	C231.017380,42.664989 233.815796,44.175571 236.695740,45.326271 
	C237.632080,37.152420 236.921249,36.214195 228.951935,35.131714 
	C215.665268,33.326973 206.450897,39.348118 203.663345,52.528347 
	C202.513763,57.963837 202.337280,63.795700 202.821930,69.350998 
	C204.357895,86.957245 214.870453,94.461929 233.081589,90.659904 
M281.286621,35.805206 
	C269.028381,35.805206 256.770111,35.805206 244.306396,35.805206 
	C244.306396,38.229164 244.306396,40.134048 244.306396,42.546562 
	C249.921188,42.546562 255.336868,42.546562 261.275116,42.546562 
	C261.275116,58.914066 261.275116,74.785378 261.275116,90.746361 
	C264.219604,90.746361 266.617676,90.746361 269.382507,90.746361 
	C269.382507,74.728516 269.382507,58.983631 269.382507,42.657921 
	C275.128021,42.657921 280.518951,42.657921 286.182251,42.657921 
	C286.182251,40.168224 286.182251,38.262207 286.182251,36.060291 
	C284.783051,35.970131 283.503387,35.887669 281.286621,35.805206 
M117.506310,35.829723 
	C116.639717,36.490646 115.279396,36.999783 115.018921,37.847046 
	C114.598068,39.215923 114.898361,40.807259 114.898300,42.304642 
	C114.897705,58.395592 114.897926,74.486542 114.897926,90.708282 
	C126.554016,90.708282 137.764053,90.708282 148.920517,90.708282 
	C148.920517,88.465355 148.920517,86.523582 148.920517,83.997833 
	C140.163040,83.997833 131.625320,83.997833 122.741714,83.997833 
	C122.741714,67.672241 122.741714,51.931694 122.741714,36.024075 
	C121.073563,35.947262 119.769852,35.887230 117.506310,35.829723 
z"/>
<path fill="#0C14CA" opacity="1.000000" stroke="none" 
	d="
M166.124329,91.019806 
	C163.817535,91.019806 161.993958,91.019806 159.768661,91.019806 
	C159.768661,72.620811 159.768661,54.439949 159.768661,36.033157 
	C170.513168,36.033157 181.126801,36.033157 192.077698,36.033157 
	C192.077698,37.966206 192.077698,39.881100 192.077698,42.429947 
	C184.112732,42.429947 176.062027,42.429947 167.690384,42.429947 
	C167.690384,47.425282 167.690384,51.792686 167.690384,56.606499 
	C175.551407,56.606499 183.133453,56.606499 190.997589,56.606499 
	C190.997589,58.965149 190.997589,60.885044 190.997589,63.451843 
	C183.336761,63.451843 175.627899,63.451843 167.643219,63.451843 
	C167.643219,70.520363 167.643219,76.951286 167.643219,83.989326 
	C175.927170,83.989326 184.305664,83.989326 192.885406,83.989326 
	C192.885406,86.532845 192.885406,88.476875 192.885406,91.019806 
	C184.148727,91.019806 175.378128,91.019806 166.124329,91.019806 
z"/>
<path fill="#0910CA" opacity="1.000000" stroke="none" 
	d="
M84.079338,84.106293 
	C90.531105,84.106293 96.491615,84.106293 102.703941,84.106293 
	C102.703941,86.501968 102.703941,88.432724 102.703941,90.689484 
	C91.700310,90.689484 80.645683,90.689484 69.341614,90.689484 
	C69.341614,72.479988 69.341614,54.412151 69.341614,36.081886 
	C80.282669,36.081886 91.014389,36.081886 101.910568,36.081886 
	C101.910568,38.228050 101.910568,40.150791 101.910568,42.467808 
	C93.748169,42.467808 85.792198,42.467808 77.469101,42.467808 
	C77.469101,47.243698 77.469101,51.641228 77.469101,56.599964 
	C85.102249,56.599964 92.839821,56.599964 100.814621,56.599964 
	C100.814621,59.071194 100.814621,60.993992 100.814621,63.490398 
	C93.032959,63.490398 85.287964,63.490398 77.330658,63.490398 
	C77.330658,70.490814 77.330658,76.931595 77.330658,84.106285 
	C79.417183,84.106285 81.502625,84.106285 84.079338,84.106293 
z"/>
<path fill="#0810CA" opacity="1.000000" stroke="none" 
	d="
M26.822678,90.248596 
	C20.356474,89.090561 22.966669,84.614807 22.570017,80.478371 
	C24.359217,81.285484 25.564035,82.116173 26.880514,82.371788 
	C31.854959,83.337685 36.869205,84.793694 41.861759,84.767540 
	C46.466751,84.743423 49.366951,81.286324 49.693378,76.549553 
	C49.993618,72.192810 47.697102,69.277756 43.525845,68.007446 
	C40.030087,66.942856 36.450687,66.148331 32.968906,65.043320 
	C24.439445,62.336334 21.280107,57.679409 21.965528,49.081547 
	C22.550018,41.749722 28.095137,35.887501 35.921978,35.141945 
	C39.834793,34.769230 43.933563,35.102409 47.807941,35.846642 
	C54.669857,37.164753 54.625046,37.398026 53.919678,45.022560 
	C50.506454,43.923363 47.202717,42.249668 43.772598,41.929344 
	C40.461201,41.620102 36.569302,41.897507 33.783585,43.447224 
	C31.716789,44.597000 29.949993,48.225681 30.020845,50.693558 
	C30.082781,52.850731 32.472164,55.709492 34.591980,56.857925 
	C37.722301,58.553822 41.541813,58.952751 45.038307,60.002346 
	C54.583900,62.867805 58.239136,68.388168 57.233166,78.305473 
	C56.403770,86.482002 50.965099,91.498665 41.517162,91.824493 
	C36.771938,91.988159 31.983177,90.889534 26.822678,90.248596 
z"/>
<path fill="#0A12CA" opacity="1.000000" stroke="none" 
	d="
M232.688507,90.804337 
	C214.870453,94.461929 204.357895,86.957245 202.821930,69.350998 
	C202.337280,63.795700 202.513763,57.963837 203.663345,52.528347 
	C206.450897,39.348118 215.665268,33.326973 228.951935,35.131714 
	C236.921249,36.214195 237.632080,37.152420 236.695740,45.326271 
	C233.815796,44.175571 231.017380,42.664989 228.028458,41.941589 
	C220.914917,40.219917 215.353180,43.028355 212.891388,49.860317 
	C209.692581,58.737595 209.691193,67.885162 212.810852,76.762337 
	C215.485352,84.372757 222.467194,87.195763 230.278641,84.328667 
	C232.422058,83.541939 234.412567,82.338524 236.870377,81.131248 
	C236.816559,85.005234 238.974670,89.312378 232.688507,90.804337 
z"/>
<path fill="#0E16CB" opacity="1.000000" stroke="none" 
	d="
M281.755157,35.805206 
	C283.503387,35.887669 284.783051,35.970131 286.182251,36.060291 
	C286.182251,38.262207 286.182251,40.168224 286.182251,42.657921 
	C280.518951,42.657921 275.128021,42.657921 269.382507,42.657921 
	C269.382507,58.983631 269.382507,74.728516 269.382507,90.746361 
	C266.617676,90.746361 264.219604,90.746361 261.275116,90.746361 
	C261.275116,74.785378 261.275116,58.914066 261.275116,42.546562 
	C255.336868,42.546562 249.921188,42.546562 244.306396,42.546562 
	C244.306396,40.134048 244.306396,38.229164 244.306396,35.805206 
	C256.770111,35.805206 269.028381,35.805206 281.755157,35.805206 
z"/>
<path fill="#060EC9" opacity="1.000000" stroke="none" 
	d="
M117.986221,35.828461 
	C119.769852,35.887230 121.073563,35.947262 122.741714,36.024075 
	C122.741714,51.931694 122.741714,67.672241 122.741714,83.997833 
	C131.625320,83.997833 140.163040,83.997833 148.920517,83.997833 
	C148.920517,86.523582 148.920517,88.465355 148.920517,90.708282 
	C137.764053,90.708282 126.554016,90.708282 114.897926,90.708282 
	C114.897926,74.486542 114.897705,58.395592 114.898300,42.304642 
	C114.898361,40.807259 114.598068,39.215923 115.018921,37.847046 
	C115.279396,36.999783 116.639717,36.490646 117.986221,35.828461 
z"/>
</svg>