<svg version="1.1" id="Layer_1" xmlns="http://www.w3.org/2000/svg" xmlns:xlink="http://www.w3.org/1999/xlink" x="0px" y="0px"
	 width="100%" viewBox="0 0 1264 153" enable-background="new 0 0 1264 153" xml:space="preserve">
<path fill="none" opacity="1.000000" stroke="none" 
	d="
M1.000000,153.000000 
	C1.000000,102.971970 1.000000,52.943939 1.226579,2.360764 
	C1.720988,1.595158 1.903269,1.326617 2.000000,1.000000 
	C422.934601,1.000000 843.869202,1.000000 1264.901855,1.000000 
	C1264.901855,51.926517 1264.901855,102.853287 1264.901855,154.000000 
	C844.305298,154.000000 423.610626,154.000000 2.353283,153.776733 
	C1.604047,153.259079 1.340494,153.074585 1.000000,153.000000 
M898.061279,65.289322 
	C895.882263,58.889023 893.703247,52.488724 891.558899,46.190201 
	C887.888916,46.190201 884.627075,46.190201 881.225830,46.190201 
	C881.225830,64.497795 881.225830,82.567917 881.225830,100.682678 
	C883.670593,100.682678 885.871094,100.682678 888.553955,100.682678 
	C888.553955,86.342918 888.553955,72.318993 888.553955,58.295063 
	C891.758362,64.459702 893.927124,70.807411 896.089172,77.157372 
	C896.883240,79.489555 897.254028,81.778099 900.860596,81.684464 
	C904.193726,81.597916 904.452881,79.551170 905.192871,77.358086 
	C907.497559,70.528236 909.877563,63.723839 912.228394,56.909569 
	C912.513428,56.963367 912.798523,57.017166 913.083618,57.070969 
	C913.083618,71.610390 913.083618,86.149811 913.083618,100.644485 
	C915.713196,100.644485 917.925781,100.644485 919.907959,100.644485 
	C919.907959,82.229958 919.907959,64.176651 919.907959,45.953339 
	C918.370789,45.953339 917.189514,46.114254 916.067078,45.925350 
	C911.333862,45.128830 909.024841,46.969501 907.763184,51.742630 
	C905.963318,58.551674 903.250916,65.119476 900.671936,72.526680 
	C899.653259,69.766861 898.965149,67.902519 898.061279,65.289322 
M815.298401,79.901176 
	C818.203979,85.081909 821.281616,90.175163 823.970581,95.465981 
	C827.183533,101.787910 827.405029,102.025269 835.445862,100.134712 
	C830.633484,91.398903 825.908020,82.820923 821.200684,74.275887 
	C827.197937,71.347374 829.670654,66.934341 828.993652,59.443939 
	C828.409668,52.982048 824.805664,47.996750 818.079712,46.936283 
	C810.502197,45.741550 802.710938,45.902164 795.081787,45.477104 
	C795.081787,64.595146 795.081787,82.654968 795.081787,100.640488 
	C797.770996,100.640488 800.148682,100.640488 803.010986,100.640488 
	C803.010986,92.884628 803.010986,85.490784 803.010986,77.299332 
	C807.320679,78.074371 811.005432,78.737030 815.298401,79.901176 
M871.445190,94.808754 
	C877.441895,82.142273 877.310364,69.077812 873.275940,56.041233 
	C870.830872,48.140320 865.267639,44.776054 857.002014,44.859253 
	C848.988281,44.939919 843.427490,48.762398 841.083130,56.610046 
	C837.881348,67.327568 837.929138,78.205811 840.739746,89.039154 
	C842.460449,95.671494 846.353943,100.404686 853.303589,101.655159 
	C860.251465,102.905296 866.559692,101.573402 871.445190,94.808754 
M175.527802,101.020424 
	C182.970871,101.020424 190.413940,101.020424 197.720551,101.020424 
	C197.720551,98.404778 197.720551,96.360931 197.720551,93.900024 
	C189.086151,93.900024 180.829636,93.900024 172.612991,93.900024 
	C172.612991,87.023239 172.612991,80.583855 172.612991,73.508072 
	C180.564529,73.508072 188.274094,73.508072 196.032684,73.508072 
	C196.032684,70.942642 196.032684,69.020279 196.032684,66.663704 
	C188.198990,66.663704 180.613831,66.663704 172.695862,66.663704 
	C172.695862,61.857597 172.695862,57.486671 172.695862,52.488312 
	C180.995758,52.488312 189.048065,52.488312 197.117081,52.488312 
	C197.117081,49.936340 197.117081,48.012627 197.117081,46.203720 
	C186.100601,46.203720 175.385605,46.203720 164.720825,46.203720 
	C164.720825,64.659485 164.720825,82.718193 164.720825,101.020424 
	C168.229736,101.020424 171.384491,101.020424 175.527802,101.020424 
M650.924194,99.179764 
	C650.630615,88.200485 650.702576,77.194656 649.907471,66.251816 
	C649.424622,59.606323 643.862549,56.629566 637.998474,59.111370 
	C636.375854,59.798103 635.048889,61.183380 634.398743,61.656658 
	C631.413696,60.434849 628.946838,58.613205 626.460571,58.586304 
	C622.064331,58.538742 617.656311,59.583492 613.011719,60.203300 
	C613.011719,73.474785 613.011719,87.060265 613.011719,100.815582 
	C615.150452,100.815582 617.065796,100.815582 619.327942,100.815582 
	C619.327942,97.804024 619.283325,94.987839 619.336609,92.173523 
	C619.475342,84.849159 619.398132,77.504204 620.000488,70.216522 
	C620.154236,68.356491 622.299683,65.450974 623.906799,65.168449 
	C627.454041,64.544846 627.947021,67.792244 628.023499,70.566475 
	C628.179382,76.228035 628.245850,81.892532 628.299377,87.556282 
	C628.341125,91.977196 628.307739,96.398819 628.307739,100.751877 
	C630.960144,100.751877 632.878235,100.751877 635.073364,100.751877 
	C635.073364,95.851440 635.051453,91.210754 635.079285,86.570358 
	C635.109314,81.572601 634.981018,76.561104 635.321594,71.582947 
	C635.515686,68.745850 635.470703,64.961784 639.740845,64.995506 
	C644.048523,65.029526 643.750732,68.702271 643.919128,71.622375 
	C644.101196,74.779282 644.033997,77.951668 644.040527,81.117363 
	C644.054138,87.709373 644.044678,94.301437 644.044678,101.510033 
	C646.837891,100.938232 648.847168,100.526924 650.924194,99.179764 
M101.309517,52.556660 
	C103.108955,52.556660 104.908394,52.556660 106.915787,52.556660 
	C106.915787,50.145634 106.915787,48.221996 106.915787,46.085541 
	C96.007103,46.085541 85.274780,46.085541 74.346573,46.085541 
	C74.346573,64.422028 74.346573,82.491470 74.346573,100.683975 
	C85.658356,100.683975 96.714760,100.683975 107.697327,100.683975 
	C107.697327,98.415016 107.697327,96.487053 107.697327,93.954285 
	C99.060524,93.954285 90.675171,93.954285 82.342819,93.954285 
	C82.342819,86.898781 82.342819,80.456146 82.342819,73.451439 
	C90.310524,73.451439 98.053360,73.451439 105.798553,73.451439 
	C105.798553,70.959709 105.798553,69.039162 105.798553,66.568756 
	C97.805748,66.568756 90.068634,66.568756 82.494019,66.568756 
	C82.494019,61.611591 82.494019,57.220665 82.494019,52.556522 
	C88.709724,52.556522 94.531242,52.556522 101.309517,52.556660 
M41.863453,67.932175 
	C37.526867,66.651024 34.159725,64.556328 34.777054,59.253998 
	C35.329967,54.504879 38.456882,52.264740 42.819160,51.878918 
	C45.741081,51.620480 48.797905,51.822475 51.671989,52.413521 
	C54.120865,52.917130 56.395020,54.270325 58.875877,55.301449 
	C59.658302,47.413921 59.696831,47.222458 52.847244,45.844116 
	C49.298988,45.130104 45.564682,44.847282 41.951950,45.047314 
	C33.833729,45.496811 27.804394,51.151829 26.993937,58.545486 
	C26.010630,67.515991 29.292166,72.328049 38.421017,75.145409 
	C41.753990,76.174034 45.154526,76.982780 48.492741,77.995644 
	C52.668289,79.262573 54.979382,82.159149 54.696255,86.514618 
	C54.388416,91.250221 51.500263,94.727516 46.894985,94.763039 
	C41.902992,94.801544 36.885242,93.349083 31.909357,92.388199 
	C30.588331,92.133102 29.379782,91.295555 27.714382,90.542114 
	C27.714382,93.627121 27.714382,96.078690 27.714382,98.716080 
	C35.268497,101.944283 43.019772,103.113754 51.082512,101.091545 
	C57.974800,99.362915 61.574314,95.108688 62.247375,88.147255 
	C63.068260,79.656876 60.480339,74.292473 53.603115,71.379471 
	C50.111629,69.900589 46.311020,69.151520 41.863453,67.932175 
M599.635254,101.016319 
	C600.725830,100.242981 602.757202,99.477005 602.763367,98.695160 
	C602.836182,89.393158 602.970581,80.063919 602.335510,70.793427 
	C601.879700,64.139458 597.392700,59.473450 590.844055,59.097092 
	C584.416626,58.727695 577.909485,59.745602 571.475220,60.152290 
	C571.475220,63.746681 571.475220,65.846687 571.475220,67.996109 
	C591.152649,63.490471 596.132385,64.880936 594.452698,74.591820 
	C591.695190,74.591820 588.873352,74.421043 586.081726,74.638496 
	C583.122803,74.868980 580.077209,75.100540 577.273010,75.980179 
	C570.608887,78.070549 567.481750,83.609077 568.471924,90.787857 
	C569.407654,97.571999 573.926025,102.133667 580.940430,101.821564 
	C585.765564,101.606873 590.515198,99.696091 594.814514,98.660034 
	C595.848145,99.276009 597.308350,100.146179 599.635254,101.016319 
M664.028442,96.459908 
	C672.214355,103.292412 683.578674,103.968620 693.395508,98.356880 
	C693.395508,96.158676 693.395508,94.119675 693.395508,91.744812 
	C685.411072,94.802750 677.674866,98.792732 670.123962,92.412437 
	C666.625977,89.456787 666.084290,85.130386 666.877319,80.198578 
	C676.510254,80.198578 685.903564,80.198578 695.245667,80.198578 
	C695.984558,68.553749 690.728455,60.338219 681.930298,58.837341 
	C670.900146,56.955708 661.849609,62.292473 659.455444,72.727638 
	C657.586975,80.871704 657.870117,88.946877 664.028442,96.459908 
M1096.609497,100.005791 
	C1101.941895,98.851532 1099.673340,95.134506 1099.704224,91.913826 
	C1080.337769,98.449860 1070.767334,94.214134 1073.474487,80.171265 
	C1082.798340,80.171265 1092.209839,80.171265 1101.578369,80.171265 
	C1102.385742,68.243835 1096.752930,60.005695 1087.228638,58.722820 
	C1076.046387,57.216633 1067.318726,63.088131 1065.391724,74.164238 
	C1064.643066,78.466927 1064.871094,83.183357 1065.769531,87.477982 
	C1067.637085,96.404182 1073.970215,101.623055 1083.028442,101.836769 
	C1087.266357,101.936760 1091.534180,100.766502 1096.609497,100.005791 
M469.850586,79.110283 
	C469.775360,77.616867 469.819519,76.106125 469.605591,74.632843 
	C468.155457,64.645126 462.236481,58.878895 453.067688,58.444866 
	C443.365204,57.985573 435.809601,63.235947 433.832611,72.919434 
	C432.866791,77.650269 432.932770,82.887161 433.848145,87.641541 
	C435.461609,96.021957 441.334229,101.342957 449.708221,101.679535 
	C455.786682,101.923843 461.933868,100.457787 467.723358,99.791977 
	C467.723358,96.236267 467.723358,94.151962 467.723358,91.997559 
	C447.450684,98.000946 439.297516,94.468117 441.401703,79.921165 
	C450.697571,79.921165 460.118073,79.921165 469.850586,79.110283 
M752.827881,98.326355 
	C754.081482,103.915543 757.927490,99.728058 760.965454,101.105629 
	C760.965454,91.450806 760.965454,82.531700 760.965454,73.268448 
	C768.538330,73.268448 775.647583,73.268448 782.930420,73.268448 
	C782.930420,70.961906 782.930420,69.017914 782.930420,66.720291 
	C775.623535,66.720291 768.513367,66.720291 761.207153,66.720291 
	C761.207153,61.820656 761.207153,57.280460 761.207153,52.240940 
	C769.466309,52.240940 777.366333,52.240940 785.132568,52.240940 
	C785.132568,49.833363 785.132568,47.938019 785.132568,46.158543 
	C774.182495,46.158543 763.620117,46.158543 752.826233,46.158543 
	C752.826233,63.449524 752.826233,80.401772 752.827881,98.326355 
M268.660126,101.020828 
	C270.439423,101.020828 272.218689,101.020828 274.365723,101.020828 
	C274.365723,84.772812 274.365723,69.011711 274.365723,52.668747 
	C280.118164,52.668747 285.514099,52.668747 291.097351,52.668747 
	C291.097351,50.057987 291.097351,48.040966 291.097351,46.005424 
	C276.962860,46.005424 263.201569,46.005424 249.285522,46.005424 
	C249.285522,48.162758 249.285522,50.107147 249.285522,52.547325 
	C254.897507,52.547325 260.315369,52.547325 266.026031,52.547325 
	C266.118011,54.636494 266.249207,56.258602 266.251373,57.880878 
	C266.268433,70.694107 266.209808,83.507828 266.327057,96.320007 
	C266.341339,97.882042 267.259827,99.435799 268.660126,101.020828 
M983.752380,59.764751 
	C981.646606,59.764751 979.540771,59.764751 977.200134,59.764751 
	C977.200134,69.622963 976.928772,79.247231 977.311157,88.845459 
	C977.511353,93.868668 978.890686,98.938736 984.421692,101.020027 
	C989.992493,103.116318 995.200989,102.277100 999.763306,98.254829 
	C1000.100647,97.957466 1000.599304,97.843124 1001.204407,97.558273 
	C1001.614807,98.799095 1001.988342,99.928368 1002.294983,100.855423 
	C1004.706360,100.855423 1006.660522,100.855423 1008.820312,100.855423 
	C1008.820312,87.126862 1008.820312,73.553001 1008.820312,59.809517 
	C1006.432922,59.809517 1004.233032,59.809517 1001.763062,59.809517 
	C1001.763062,61.621143 1001.798401,63.099499 1001.757080,64.575714 
	C1001.547974,72.051231 1001.635254,79.553528 1000.992188,86.992287 
	C1000.518250,92.474602 996.808716,95.616699 992.305176,95.521912 
	C987.619446,95.423294 985.103760,93.011818 984.766174,86.888641 
	C984.281372,78.093140 984.394165,69.264694 983.752380,59.764751 
M533.902283,63.221184 
	C533.346985,61.958477 532.791687,60.695770 532.290710,59.556469 
	C530.095337,59.556469 528.134766,59.556469 526.029114,59.556469 
	C526.029114,73.445808 526.029114,87.129028 526.029114,100.755692 
	C528.469299,100.755692 530.559448,100.755692 532.982544,100.755692 
	C532.982544,93.377396 532.868835,86.243546 533.039429,79.116501 
	C533.106018,76.332535 533.458313,73.450294 534.305969,70.813896 
	C535.701050,66.474716 538.976746,64.445747 543.578674,65.097282 
	C548.280945,65.763008 549.724731,69.185394 549.930115,73.322517 
	C550.119812,77.144012 550.077515,80.978127 550.094238,84.806870 
	C550.117371,90.091080 550.100037,95.375465 550.100037,100.679214 
	C552.812744,100.679214 555.022461,100.679214 557.282288,100.679214 
	C557.282288,90.879471 557.396362,81.405952 557.237000,71.937050 
	C557.149475,66.739105 555.800598,61.698650 550.465637,59.587807 
	C544.680542,57.298843 539.037964,58.058598 533.902283,63.221184 
M217.238388,61.188194 
	C222.035461,50.365509 227.191528,49.135426 243.056808,55.918758 
	C241.884171,52.351967 241.813507,48.272839 239.982758,47.201565 
	C228.898895,40.715771 214.537292,46.242966 209.894958,58.268997 
	C206.672348,66.617249 206.566406,75.246040 208.400330,83.828163 
	C211.893448,100.174637 226.736740,106.726639 241.927368,98.737587 
	C241.927368,96.336472 241.927368,93.868828 241.927368,91.001602 
	C240.680801,91.693893 239.706604,92.239037 238.728653,92.777390 
	C228.107117,98.624481 218.670288,94.732658 216.745239,82.748337 
	C215.664032,76.017319 216.875839,68.917961 217.238388,61.188194 
M369.348083,82.287521 
	C368.871063,84.875557 368.680206,87.559593 367.851593,90.029686 
	C366.527161,93.977730 363.469208,95.696877 359.323059,95.379990 
	C354.851166,95.038208 353.033600,92.092323 352.535156,88.104027 
	C352.226929,85.637764 352.156372,83.131050 352.138336,80.641335 
	C352.088074,73.707771 352.120850,66.773613 352.120850,59.685379 
	C349.496582,59.685379 347.412292,59.685379 345.106140,59.685379 
	C345.106140,70.026970 344.502045,80.180893 345.270020,90.229950 
	C346.096283,101.041748 357.048523,105.708443 365.862732,99.629662 
	C366.897003,98.916367 367.816803,98.037079 368.936493,97.113647 
	C369.649109,103.333397 373.640839,100.477394 376.508545,100.797218 
	C376.508545,86.833061 376.508545,73.301987 376.508545,59.730164 
	C374.033813,59.730164 371.942444,59.730164 369.971985,59.730164 
	C369.708984,60.295303 369.459137,60.583271 369.457062,60.873016 
	C369.407898,67.694351 369.385437,74.515892 369.348083,82.287521 
M1036.817017,75.945107 
	C1033.468750,75.036186 1030.114502,73.989525 1030.933838,69.462555 
	C1031.716187,65.140121 1035.362427,64.662659 1038.669556,64.921127 
	C1042.833984,65.246590 1046.936279,66.366196 1051.049927,67.140244 
	C1051.772339,60.297180 1051.406372,59.639759 1044.481689,59.005394 
	C1040.707031,58.659599 1036.815552,58.556427 1033.078247,59.075184 
	C1027.287964,59.878937 1023.553955,64.292755 1023.132019,69.908875 
	C1022.694885,75.726936 1025.584961,79.844612 1031.648315,81.747047 
	C1034.494629,82.640106 1037.721558,82.728340 1040.239502,84.138939 
	C1042.510132,85.411041 1044.048828,87.989365 1045.910400,89.991585 
	C1043.813232,91.831337 1041.941284,94.102600 1039.538208,95.356079 
	C1037.989502,96.163971 1035.583252,95.819527 1033.699585,95.388077 
	C1030.181763,94.582298 1026.764404,93.337219 1023.270996,92.264397 
	C1023.270996,94.712433 1023.270996,97.132446 1023.270996,100.992683 
	C1030.564819,100.992683 1037.667236,101.678383 1044.562622,100.778557 
	C1050.211792,100.041389 1053.462036,94.681160 1053.438232,89.080307 
	C1053.411499,82.830467 1050.871216,79.588112 1044.391724,77.706970 
	C1042.165161,77.060593 1039.881714,76.610741 1036.817017,75.945107 
M1174.789185,95.579788 
	C1169.501465,94.738266 1164.213623,93.896751 1158.851685,93.043419 
	C1158.851685,94.775604 1158.851685,97.163177 1158.851685,99.546005 
	C1166.238159,101.746872 1173.375488,103.284904 1180.686035,100.783875 
	C1186.052734,98.947861 1189.058838,94.554054 1189.012085,89.026253 
	C1188.962402,83.155891 1186.301392,79.644981 1180.304077,77.851700 
	C1177.607300,77.045311 1174.804565,76.600266 1172.079956,75.877708 
	C1168.906250,75.036064 1165.657227,73.907516 1166.263794,69.746208 
	C1166.828735,65.870842 1170.016113,64.686264 1173.357666,64.965645 
	C1177.860962,65.342163 1182.313110,66.329536 1186.830200,67.061714 
	C1186.830200,65.365402 1186.830200,63.231461 1186.830200,60.898514 
	C1179.861450,58.378094 1172.902222,57.297153 1165.846680,59.898663 
	C1160.824219,61.750576 1158.656006,65.621460 1158.764526,71.299561 
	C1158.862305,76.423691 1161.276855,79.777802 1166.162598,81.277626 
	C1169.177002,82.202972 1172.461792,82.553970 1175.199829,83.979836 
	C1177.574707,85.216667 1180.565796,87.310722 1181.104736,89.550446 
	C1181.897095,92.843056 1178.756958,94.645729 1174.789185,95.579788 
M411.447815,93.857414 
	C404.346924,98.147888 397.798950,94.390388 391.042725,92.112869 
	C391.042725,94.749474 391.042725,97.033203 391.042725,99.472458 
	C398.228271,101.725952 405.303986,103.234367 412.607727,100.886139 
	C418.126282,99.111862 421.224854,94.603302 421.152435,88.826546 
	C421.076538,82.767464 418.678925,79.656761 412.391815,77.806984 
	C409.375702,76.919586 406.028900,76.804932 403.295990,75.422714 
	C401.295624,74.411011 398.454315,71.423485 398.830597,70.169991 
	C399.457733,68.080811 402.299988,65.341217 404.319153,65.247963 
	C409.125244,65.025986 413.995361,66.191177 418.846893,66.796890 
	C419.617462,60.268940 419.235016,59.623932 411.979431,58.982067 
	C408.370056,58.662766 404.654785,58.553707 401.080933,59.038586 
	C394.936676,59.872204 391.225555,64.238808 390.964722,70.132111 
	C390.696716,76.187851 393.415955,79.951828 399.606781,81.823410 
	C402.778198,82.782196 406.119507,83.244041 409.205719,84.404633 
	C413.847687,86.150253 414.523773,88.700806 411.447815,93.857414 
M119.984131,46.697964 
	C119.984131,64.745346 119.984131,82.792725 119.984131,100.743744 
	C131.709274,100.743744 142.795120,100.743744 153.769485,100.743744 
	C153.769485,98.430328 153.769485,96.388840 153.769485,93.927193 
	C144.984436,93.927193 136.583191,93.927193 127.821014,93.927193 
	C127.821014,77.760880 127.821014,62.022057 127.821014,45.956394 
	C125.163902,45.956394 122.880386,45.956394 119.984131,46.697964 
M486.421082,88.481079 
	C486.421082,92.579567 486.421082,96.678047 486.421082,100.678101 
	C489.261078,100.678101 491.486511,100.678101 494.035736,100.678101 
	C494.035736,92.869339 493.759094,85.400131 494.102783,77.959579 
	C494.576996,67.693024 502.811035,62.708508 512.330139,66.591774 
	C513.454773,67.050568 514.558899,67.559547 515.791138,68.097015 
	C516.391418,60.238251 515.460999,59.115585 508.121155,58.528038 
	C502.464233,58.075207 497.885956,60.232426 494.205933,64.987160 
	C493.968231,62.825966 493.794678,61.248146 493.626984,59.723423 
	C491.112305,59.723423 488.909973,59.723423 486.421112,59.723423 
	C486.421112,69.251213 486.421112,78.368713 486.421082,88.481079 
M1129.060181,69.694427 
	C1134.746582,63.204418 1141.297241,64.902664 1147.929932,68.092682 
	C1148.606445,60.218182 1147.692871,59.082718 1140.319214,58.563965 
	C1134.687500,58.167763 1130.018921,60.146336 1126.348877,65.368210 
	C1126.071167,62.878277 1125.884644,61.206360 1125.714600,59.682522 
	C1123.230225,59.682522 1121.153198,59.682522 1118.807617,59.682522 
	C1118.807617,66.816162 1118.807495,73.623665 1118.807495,80.431175 
	C1118.807495,87.191933 1118.807617,93.952690 1118.807617,100.832321 
	C1121.432373,100.832321 1123.518555,100.832321 1126.044434,100.832321 
	C1126.044434,94.891823 1125.718018,89.091476 1126.150635,83.348289 
	C1126.479736,78.980194 1127.773193,74.684761 1129.060181,69.694427 
M1210.991211,100.305405 
	C1210.126343,103.787567 1209.261353,107.269722 1208.144287,111.766830 
	C1211.606201,111.265060 1215.929077,111.825623 1216.873901,110.297478 
	C1221.116821,103.435814 1226.246582,96.480911 1223.381470,87.403625 
	C1219.647583,87.403625 1215.931030,87.403625 1212.346436,87.403625 
	C1211.929565,91.627563 1211.542725,95.546478 1210.991211,100.305405 
M1218.327515,59.365471 
	C1216.095093,59.365471 1213.862671,59.365471 1211.624756,59.365471 
	C1211.624756,64.390686 1211.624756,68.608177 1211.624756,72.930038 
	C1215.634644,72.930038 1219.363647,72.930038 1223.387085,72.930038 
	C1223.387085,69.571228 1223.160889,66.436279 1223.447510,63.348949 
	C1223.765869,59.921280 1222.323608,58.879578 1218.327515,59.365471 
z"/>
<path fill="#E7E9EB" opacity="1.000000" stroke="none" 
	d="
M1.000000,153.500000 
	C1.340494,153.074585 1.604047,153.259079 1.895331,153.776733 
	C1.666667,154.000000 1.333333,154.000000 1.000000,153.500000 
z"/>
<path fill="#E7E9EB" opacity="1.000000" stroke="none" 
	d="
M1.500000,1.000000 
	C1.903269,1.326617 1.720988,1.595158 1.226579,1.902811 
	C1.000000,1.666667 1.000000,1.333333 1.500000,1.000000 
z"/>
<path fill="#040CC9" opacity="1.000000" stroke="none" 
	d="
M898.169189,65.663750 
	C898.965149,67.902519 899.653259,69.766861 900.671936,72.526680 
	C903.250916,65.119476 905.963318,58.551674 907.763184,51.742630 
	C909.024841,46.969501 911.333862,45.128830 916.067078,45.925350 
	C917.189514,46.114254 918.370789,45.953339 919.907959,45.953339 
	C919.907959,64.176651 919.907959,82.229958 919.907959,100.644485 
	C917.925781,100.644485 915.713196,100.644485 913.083618,100.644485 
	C913.083618,86.149811 913.083618,71.610390 913.083618,57.070969 
	C912.798523,57.017166 912.513428,56.963367 912.228394,56.909569 
	C909.877563,63.723839 907.497559,70.528236 905.192871,77.358086 
	C904.452881,79.551170 904.193726,81.597916 900.860596,81.684464 
	C897.254028,81.778099 896.883240,79.489555 896.089172,77.157372 
	C893.927124,70.807411 891.758362,64.459702 888.553955,58.295063 
	C888.553955,72.318993 888.553955,86.342918 888.553955,100.682678 
	C885.871094,100.682678 883.670593,100.682678 881.225830,100.682678 
	C881.225830,82.567917 881.225830,64.497795 881.225830,46.190201 
	C884.627075,46.190201 887.888916,46.190201 891.558899,46.190201 
	C893.703247,52.488724 895.882263,58.889023 898.169189,65.663750 
z"/>
<path fill="#0810CA" opacity="1.000000" stroke="none" 
	d="
M814.994263,79.650429 
	C811.005432,78.737030 807.320679,78.074371 803.010986,77.299332 
	C803.010986,85.490784 803.010986,92.884628 803.010986,100.640488 
	C800.148682,100.640488 797.770996,100.640488 795.081787,100.640488 
	C795.081787,82.654968 795.081787,64.595146 795.081787,45.477104 
	C802.710938,45.902164 810.502197,45.741550 818.079712,46.936283 
	C824.805664,47.996750 828.409668,52.982048 828.993652,59.443939 
	C829.670654,66.934341 827.197937,71.347374 821.200684,74.275887 
	C825.908020,82.820923 830.633484,91.398903 835.445862,100.134712 
	C827.405029,102.025269 827.183533,101.787910 823.970581,95.465981 
	C821.281616,90.175163 818.203979,85.081909 814.994263,79.650429 
M815.547424,53.576439 
	C811.528259,53.022728 807.509033,52.469017 803.087830,51.859921 
	C803.087830,58.761585 803.087830,64.781517 803.087830,71.045006 
	C805.991089,71.045006 808.617615,71.087906 811.242249,71.035156 
	C815.389160,70.951813 818.842224,69.557976 820.042236,65.210938 
	C821.282776,60.717052 820.686951,56.637188 815.547424,53.576439 
z"/>
<path fill="#0810CA" opacity="1.000000" stroke="none" 
	d="
M871.243042,95.118301 
	C866.559692,101.573402 860.251465,102.905296 853.303589,101.655159 
	C846.353943,100.404686 842.460449,95.671494 840.739746,89.039154 
	C837.929138,78.205811 837.881348,67.327568 841.083130,56.610046 
	C843.427490,48.762398 848.988281,44.939919 857.002014,44.859253 
	C865.267639,44.776054 870.830872,48.140320 873.275940,56.041233 
	C877.310364,69.077812 877.441895,82.142273 871.243042,95.118301 
M847.342224,80.907166 
	C847.883789,83.499718 848.255188,86.142754 849.005859,88.673271 
	C850.203613,92.711479 852.815125,95.232742 857.274109,95.290260 
	C861.771912,95.348289 864.591675,92.780319 865.657532,88.801735 
	C868.413940,78.512474 868.468323,68.095016 865.562927,57.820858 
	C864.360657,53.569149 861.186890,51.067757 856.588074,51.476765 
	C851.168579,51.958775 848.839233,56.021095 848.272644,60.662209 
	C847.491699,67.058784 847.543701,73.557053 847.342224,80.907166 
z"/>
<path fill="#0C14CA" opacity="1.000000" stroke="none" 
	d="
M175.033524,101.020424 
	C171.384491,101.020424 168.229736,101.020424 164.720825,101.020424 
	C164.720825,82.718193 164.720825,64.659485 164.720825,46.203720 
	C175.385605,46.203720 186.100601,46.203720 197.117081,46.203720 
	C197.117081,48.012627 197.117081,49.936340 197.117081,52.488312 
	C189.048065,52.488312 180.995758,52.488312 172.695862,52.488312 
	C172.695862,57.486671 172.695862,61.857597 172.695862,66.663704 
	C180.613831,66.663704 188.198990,66.663704 196.032684,66.663704 
	C196.032684,69.020279 196.032684,70.942642 196.032684,73.508072 
	C188.274094,73.508072 180.564529,73.508072 172.612991,73.508072 
	C172.612991,80.583855 172.612991,87.023239 172.612991,93.900024 
	C180.829636,93.900024 189.086151,93.900024 197.720551,93.900024 
	C197.720551,96.360931 197.720551,98.404778 197.720551,101.020424 
	C190.413940,101.020424 182.970871,101.020424 175.033524,101.020424 
z"/>
<path fill="#090909" opacity="1.000000" stroke="none" 
	d="
M650.890259,99.647690 
	C648.847168,100.526924 646.837891,100.938232 644.044678,101.510033 
	C644.044678,94.301437 644.054138,87.709373 644.040527,81.117363 
	C644.033997,77.951668 644.101196,74.779282 643.919128,71.622375 
	C643.750732,68.702271 644.048523,65.029526 639.740845,64.995506 
	C635.470703,64.961784 635.515686,68.745850 635.321594,71.582947 
	C634.981018,76.561104 635.109314,81.572601 635.079285,86.570358 
	C635.051453,91.210754 635.073364,95.851440 635.073364,100.751877 
	C632.878235,100.751877 630.960144,100.751877 628.307739,100.751877 
	C628.307739,96.398819 628.341125,91.977196 628.299377,87.556282 
	C628.245850,81.892532 628.179382,76.228035 628.023499,70.566475 
	C627.947021,67.792244 627.454041,64.544846 623.906799,65.168449 
	C622.299683,65.450974 620.154236,68.356491 620.000488,70.216522 
	C619.398132,77.504204 619.475342,84.849159 619.336609,92.173523 
	C619.283325,94.987839 619.327942,97.804024 619.327942,100.815582 
	C617.065796,100.815582 615.150452,100.815582 613.011719,100.815582 
	C613.011719,87.060265 613.011719,73.474785 613.011719,60.203300 
	C617.656311,59.583492 622.064331,58.538742 626.460571,58.586304 
	C628.946838,58.613205 631.413696,60.434849 634.398743,61.656658 
	C635.048889,61.183380 636.375854,59.798103 637.998474,59.111370 
	C643.862549,56.629566 649.424622,59.606323 649.907471,66.251816 
	C650.702576,77.194656 650.630615,88.200485 650.890259,99.647690 
z"/>
<path fill="#0910CA" opacity="1.000000" stroke="none" 
	d="
M100.831131,52.556591 
	C94.531242,52.556522 88.709724,52.556522 82.494019,52.556522 
	C82.494019,57.220665 82.494019,61.611591 82.494019,66.568756 
	C90.068634,66.568756 97.805748,66.568756 105.798553,66.568756 
	C105.798553,69.039162 105.798553,70.959709 105.798553,73.451439 
	C98.053360,73.451439 90.310524,73.451439 82.342819,73.451439 
	C82.342819,80.456146 82.342819,86.898781 82.342819,93.954285 
	C90.675171,93.954285 99.060524,93.954285 107.697327,93.954285 
	C107.697327,96.487053 107.697327,98.415016 107.697327,100.683975 
	C96.714760,100.683975 85.658356,100.683975 74.346573,100.683975 
	C74.346573,82.491470 74.346573,64.422028 74.346573,46.085541 
	C85.274780,46.085541 96.007103,46.085541 106.915787,46.085541 
	C106.915787,48.221996 106.915787,50.145634 106.915787,52.556660 
	C104.908394,52.556660 103.108955,52.556660 100.831131,52.556591 
z"/>
<path fill="#0810C9" opacity="1.000000" stroke="none" 
	d="
M42.256805,68.002350 
	C46.311020,69.151520 50.111629,69.900589 53.603115,71.379471 
	C60.480339,74.292473 63.068260,79.656876 62.247375,88.147255 
	C61.574314,95.108688 57.974800,99.362915 51.082512,101.091545 
	C43.019772,103.113754 35.268497,101.944283 27.714382,98.716080 
	C27.714382,96.078690 27.714382,93.627121 27.714382,90.542114 
	C29.379782,91.295555 30.588331,92.133102 31.909357,92.388199 
	C36.885242,93.349083 41.902992,94.801544 46.894985,94.763039 
	C51.500263,94.727516 54.388416,91.250221 54.696255,86.514618 
	C54.979382,82.159149 52.668289,79.262573 48.492741,77.995644 
	C45.154526,76.982780 41.753990,76.174034 38.421017,75.145409 
	C29.292166,72.328049 26.010630,67.515991 26.993937,58.545486 
	C27.804394,51.151829 33.833729,45.496811 41.951950,45.047314 
	C45.564682,44.847282 49.298988,45.130104 52.847244,45.844116 
	C59.696831,47.222458 59.658302,47.413921 58.875877,55.301449 
	C56.395020,54.270325 54.120865,52.917130 51.671989,52.413521 
	C48.797905,51.822475 45.741081,51.620480 42.819160,51.878918 
	C38.456882,52.264740 35.329967,54.504879 34.777054,59.253998 
	C34.159725,64.556328 37.526867,66.651024 42.256805,68.002350 
z"/>
<path fill="#090909" opacity="1.000000" stroke="none" 
	d="
M599.201904,101.016327 
	C597.308350,100.146179 595.848145,99.276009 594.814514,98.660034 
	C590.515198,99.696091 585.765564,101.606873 580.940430,101.821564 
	C573.926025,102.133667 569.407654,97.571999 568.471924,90.787857 
	C567.481750,83.609077 570.608887,78.070549 577.273010,75.980179 
	C580.077209,75.100540 583.122803,74.868980 586.081726,74.638496 
	C588.873352,74.421043 591.695190,74.591820 594.452698,74.591820 
	C596.132385,64.880936 591.152649,63.490471 571.475220,67.996109 
	C571.475220,65.846687 571.475220,63.746681 571.475220,60.152290 
	C577.909485,59.745602 584.416626,58.727695 590.844055,59.097092 
	C597.392700,59.473450 601.879700,64.139458 602.335510,70.793427 
	C602.970581,80.063919 602.836182,89.393158 602.763367,98.695160 
	C602.757202,99.477005 600.725830,100.242981 599.201904,101.016327 
M593.840820,89.008110 
	C594.423340,86.316368 595.005859,83.624619 595.812561,79.896919 
	C590.342590,80.418968 585.692627,80.450256 581.244507,81.413696 
	C577.471741,82.230865 575.521118,85.141472 575.918030,89.277924 
	C576.304138,93.300262 578.893005,95.159622 582.477356,95.624596 
	C587.432922,96.267464 591.241394,94.360588 593.840820,89.008110 
z"/>
<path fill="#070707" opacity="1.000000" stroke="none" 
	d="
M663.784058,96.186302 
	C657.870117,88.946877 657.586975,80.871704 659.455444,72.727638 
	C661.849609,62.292473 670.900146,56.955708 681.930298,58.837341 
	C690.728455,60.338219 695.984558,68.553749 695.245667,80.198578 
	C685.903564,80.198578 676.510254,80.198578 666.877319,80.198578 
	C666.084290,85.130386 666.625977,89.456787 670.123962,92.412437 
	C677.674866,98.792732 685.411072,94.802750 693.395508,91.744812 
	C693.395508,94.119675 693.395508,96.158676 693.395508,98.356880 
	C683.578674,103.968620 672.214355,103.292412 663.784058,96.186302 
M668.022705,70.762039 
	C667.662720,71.951172 667.302734,73.140305 666.877014,74.546432 
	C674.135925,74.546432 680.856018,74.546432 687.822754,74.546432 
	C687.442444,69.760384 685.101746,66.474617 680.809814,65.265633 
	C675.718323,63.831425 671.351746,65.411613 668.022705,70.762039 
z"/>
<path fill="#070707" opacity="1.000000" stroke="none" 
	d="
M1096.198975,100.088867 
	C1091.534180,100.766502 1087.266357,101.936760 1083.028442,101.836769 
	C1073.970215,101.623055 1067.637085,96.404182 1065.769531,87.477982 
	C1064.871094,83.183357 1064.643066,78.466927 1065.391724,74.164238 
	C1067.318726,63.088131 1076.046387,57.216633 1087.228638,58.722820 
	C1096.752930,60.005695 1102.385742,68.243835 1101.578369,80.171265 
	C1092.209839,80.171265 1082.798340,80.171265 1073.474487,80.171265 
	C1070.767334,94.214134 1080.337769,98.449860 1099.704224,91.913826 
	C1099.673340,95.134506 1101.941895,98.851532 1096.198975,100.088867 
M1079.659668,65.674850 
	C1076.072998,67.510033 1073.693970,70.186028 1073.318604,74.446487 
	C1080.294800,74.446487 1087.021240,74.446487 1093.772217,74.446487 
	C1092.963989,66.886383 1088.834595,64.143951 1079.659668,65.674850 
z"/>
<path fill="#070707" opacity="1.000000" stroke="none" 
	d="
M469.694580,79.515724 
	C460.118073,79.921165 450.697571,79.921165 441.401703,79.921165 
	C439.297516,94.468117 447.450684,98.000946 467.723358,91.997559 
	C467.723358,94.151962 467.723358,96.236267 467.723358,99.791977 
	C461.933868,100.457787 455.786682,101.923843 449.708221,101.679535 
	C441.334229,101.342957 435.461609,96.021957 433.848145,87.641541 
	C432.932770,82.887161 432.866791,77.650269 433.832611,72.919434 
	C435.809601,63.235947 443.365204,57.985573 453.067688,58.444866 
	C462.236481,58.878895 468.155457,64.645126 469.605591,74.632843 
	C469.819519,76.106125 469.775360,77.616867 469.694580,79.515724 
M443.507629,69.011223 
	C442.663422,70.706123 441.819214,72.401024 440.788635,74.470139 
	C448.266785,74.470139 454.994965,74.470139 461.961792,74.470139 
	C461.833954,69.875465 459.522461,66.851372 455.754242,65.498817 
	C451.443939,63.951714 447.194672,64.598129 443.507629,69.011223 
z"/>
<path fill="#0910CA" opacity="1.000000" stroke="none" 
	d="
M752.827026,97.840187 
	C752.826233,80.401772 752.826233,63.449524 752.826233,46.158543 
	C763.620117,46.158543 774.182495,46.158543 785.132568,46.158543 
	C785.132568,47.938019 785.132568,49.833363 785.132568,52.240940 
	C777.366333,52.240940 769.466309,52.240940 761.207153,52.240940 
	C761.207153,57.280460 761.207153,61.820656 761.207153,66.720291 
	C768.513367,66.720291 775.623535,66.720291 782.930420,66.720291 
	C782.930420,69.017914 782.930420,70.961906 782.930420,73.268448 
	C775.647583,73.268448 768.538330,73.268448 760.965454,73.268448 
	C760.965454,82.531700 760.965454,91.450806 760.965454,101.105629 
	C757.927490,99.728058 754.081482,103.915543 752.827026,97.840187 
z"/>
<path fill="#0E16CB" opacity="1.000000" stroke="none" 
	d="
M268.209717,101.007111 
	C267.259827,99.435799 266.341339,97.882042 266.327057,96.320007 
	C266.209808,83.507828 266.268433,70.694107 266.251373,57.880878 
	C266.249207,56.258602 266.118011,54.636494 266.026031,52.547325 
	C260.315369,52.547325 254.897507,52.547325 249.285522,52.547325 
	C249.285522,50.107147 249.285522,48.162758 249.285522,46.005424 
	C263.201569,46.005424 276.962860,46.005424 291.097351,46.005424 
	C291.097351,48.040966 291.097351,50.057987 291.097351,52.668747 
	C285.514099,52.668747 280.118164,52.668747 274.365723,52.668747 
	C274.365723,69.011711 274.365723,84.772812 274.365723,101.020828 
	C272.218689,101.020828 270.439423,101.020828 268.209717,101.007111 
z"/>
<path fill="#060606" opacity="1.000000" stroke="none" 
	d="
M984.002136,60.107529 
	C984.394165,69.264694 984.281372,78.093140 984.766174,86.888641 
	C985.103760,93.011818 987.619446,95.423294 992.305176,95.521912 
	C996.808716,95.616699 1000.518250,92.474602 1000.992188,86.992287 
	C1001.635254,79.553528 1001.547974,72.051231 1001.757080,64.575714 
	C1001.798401,63.099499 1001.763062,61.621143 1001.763062,59.809517 
	C1004.233032,59.809517 1006.432922,59.809517 1008.820312,59.809517 
	C1008.820312,73.553001 1008.820312,87.126862 1008.820312,100.855423 
	C1006.660522,100.855423 1004.706360,100.855423 1002.294983,100.855423 
	C1001.988342,99.928368 1001.614807,98.799095 1001.204407,97.558273 
	C1000.599304,97.843124 1000.100647,97.957466 999.763306,98.254829 
	C995.200989,102.277100 989.992493,103.116318 984.421692,101.020027 
	C978.890686,98.938736 977.511353,93.868668 977.311157,88.845459 
	C976.928772,79.247231 977.200134,69.622963 977.200134,59.764751 
	C979.540771,59.764751 981.646606,59.764751 984.002136,60.107529 
z"/>
<path fill="#050505" opacity="1.000000" stroke="none" 
	d="
M534.126343,62.942673 
	C539.037964,58.058598 544.680542,57.298843 550.465637,59.587807 
	C555.800598,61.698650 557.149475,66.739105 557.237000,71.937050 
	C557.396362,81.405952 557.282288,90.879471 557.282288,100.679214 
	C555.022461,100.679214 552.812744,100.679214 550.100037,100.679214 
	C550.100037,95.375465 550.117371,90.091080 550.094238,84.806870 
	C550.077515,80.978127 550.119812,77.144012 549.930115,73.322517 
	C549.724731,69.185394 548.280945,65.763008 543.578674,65.097282 
	C538.976746,64.445747 535.701050,66.474716 534.305969,70.813896 
	C533.458313,73.450294 533.106018,76.332535 533.039429,79.116501 
	C532.868835,86.243546 532.982544,93.377396 532.982544,100.755692 
	C530.559448,100.755692 528.469299,100.755692 526.029114,100.755692 
	C526.029114,87.129028 526.029114,73.445808 526.029114,59.556469 
	C528.134766,59.556469 530.095337,59.556469 532.290710,59.556469 
	C532.791687,60.695770 533.346985,61.958477 534.126343,62.942673 
z"/>
<path fill="#0A11CA" opacity="1.000000" stroke="none" 
	d="
M217.146484,61.586372 
	C216.875839,68.917961 215.664032,76.017319 216.745239,82.748337 
	C218.670288,94.732658 228.107117,98.624481 238.728653,92.777390 
	C239.706604,92.239037 240.680801,91.693893 241.927368,91.001602 
	C241.927368,93.868828 241.927368,96.336472 241.927368,98.737587 
	C226.736740,106.726639 211.893448,100.174637 208.400330,83.828163 
	C206.566406,75.246040 206.672348,66.617249 209.894958,58.268997 
	C214.537292,46.242966 228.898895,40.715771 239.982758,47.201565 
	C241.813507,48.272839 241.884171,52.351967 243.056808,55.918758 
	C227.191528,49.135426 222.035461,50.365509 217.146484,61.586372 
z"/>
<path fill="#0D0D0D" opacity="1.000000" stroke="none" 
	d="
M369.353088,81.812454 
	C369.385437,74.515892 369.407898,67.694351 369.457062,60.873016 
	C369.459137,60.583271 369.708984,60.295303 369.971985,59.730164 
	C371.942444,59.730164 374.033813,59.730164 376.508545,59.730164 
	C376.508545,73.301987 376.508545,86.833061 376.508545,100.797218 
	C373.640839,100.477394 369.649109,103.333397 368.936493,97.113647 
	C367.816803,98.037079 366.897003,98.916367 365.862732,99.629662 
	C357.048523,105.708443 346.096283,101.041748 345.270020,90.229950 
	C344.502045,80.180893 345.106140,70.026970 345.106140,59.685379 
	C347.412292,59.685379 349.496582,59.685379 352.120850,59.685379 
	C352.120850,66.773613 352.088074,73.707771 352.138336,80.641335 
	C352.156372,83.131050 352.226929,85.637764 352.535156,88.104027 
	C353.033600,92.092323 354.851166,95.038208 359.323059,95.379990 
	C363.469208,95.696877 366.527161,93.977730 367.851593,90.029686 
	C368.680206,87.559593 368.871063,84.875557 369.353088,81.812454 
z"/>
<path fill="#080808" opacity="1.000000" stroke="none" 
	d="
M1037.220703,76.008118 
	C1039.881714,76.610741 1042.165161,77.060593 1044.391724,77.706970 
	C1050.871216,79.588112 1053.411499,82.830467 1053.438232,89.080307 
	C1053.462036,94.681160 1050.211792,100.041389 1044.562622,100.778557 
	C1037.667236,101.678383 1030.564819,100.992683 1023.270996,100.992683 
	C1023.270996,97.132446 1023.270996,94.712433 1023.270996,92.264397 
	C1026.764404,93.337219 1030.181763,94.582298 1033.699585,95.388077 
	C1035.583252,95.819527 1037.989502,96.163971 1039.538208,95.356079 
	C1041.941284,94.102600 1043.813232,91.831337 1045.910400,89.991592 
	C1044.048828,87.989365 1042.510132,85.411041 1040.239502,84.138939 
	C1037.721558,82.728340 1034.494629,82.640106 1031.648315,81.747047 
	C1025.584961,79.844612 1022.694885,75.726936 1023.132019,69.908875 
	C1023.553955,64.292755 1027.287964,59.878937 1033.078247,59.075184 
	C1036.815552,58.556427 1040.707031,58.659599 1044.481689,59.005394 
	C1051.406372,59.639759 1051.772339,60.297180 1051.049927,67.140244 
	C1046.936279,66.366196 1042.833984,65.246590 1038.669556,64.921127 
	C1035.362427,64.662659 1031.716187,65.140121 1030.933838,69.462555 
	C1030.114502,73.989525 1033.468750,75.036186 1037.220703,76.008118 
z"/>
<path fill="#090909" opacity="1.000000" stroke="none" 
	d="
M1175.184082,95.490318 
	C1178.756958,94.645729 1181.897095,92.843056 1181.104736,89.550446 
	C1180.565796,87.310722 1177.574707,85.216667 1175.199829,83.979836 
	C1172.461792,82.553970 1169.177002,82.202972 1166.162598,81.277626 
	C1161.276855,79.777802 1158.862305,76.423691 1158.764526,71.299561 
	C1158.656006,65.621460 1160.824219,61.750576 1165.846680,59.898663 
	C1172.902222,57.297153 1179.861450,58.378094 1186.830200,60.898514 
	C1186.830200,63.231461 1186.830200,65.365402 1186.830200,67.061714 
	C1182.313110,66.329536 1177.860962,65.342163 1173.357666,64.965645 
	C1170.016113,64.686264 1166.828735,65.870842 1166.263794,69.746208 
	C1165.657227,73.907516 1168.906250,75.036064 1172.079956,75.877708 
	C1174.804565,76.600266 1177.607300,77.045311 1180.304077,77.851700 
	C1186.301392,79.644981 1188.962402,83.155891 1189.012085,89.026253 
	C1189.058838,94.554054 1186.052734,98.947861 1180.686035,100.783875 
	C1173.375488,103.284904 1166.238159,101.746872 1158.851685,99.546005 
	C1158.851685,97.163177 1158.851685,94.775604 1158.851685,93.043419 
	C1164.213623,93.896751 1169.501465,94.738266 1175.184082,95.490318 
z"/>
<path fill="#090909" opacity="1.000000" stroke="none" 
	d="
M411.731384,93.552185 
	C414.523773,88.700806 413.847687,86.150253 409.205719,84.404633 
	C406.119507,83.244041 402.778198,82.782196 399.606781,81.823410 
	C393.415955,79.951828 390.696716,76.187851 390.964722,70.132111 
	C391.225555,64.238808 394.936676,59.872204 401.080933,59.038586 
	C404.654785,58.553707 408.370056,58.662766 411.979431,58.982067 
	C419.235016,59.623932 419.617462,60.268940 418.846893,66.796890 
	C413.995361,66.191177 409.125244,65.025986 404.319153,65.247963 
	C402.299988,65.341217 399.457733,68.080811 398.830597,70.169991 
	C398.454315,71.423485 401.295624,74.411011 403.295990,75.422714 
	C406.028900,76.804932 409.375702,76.919586 412.391815,77.806984 
	C418.678925,79.656761 421.076538,82.767464 421.152435,88.826546 
	C421.224854,94.603302 418.126282,99.111862 412.607727,100.886139 
	C405.303986,103.234367 398.228271,101.725952 391.042725,99.472458 
	C391.042725,97.033203 391.042725,94.749474 391.042725,92.112869 
	C397.798950,94.390388 404.346924,98.147888 411.731384,93.552185 
z"/>
<path fill="#060EC9" opacity="1.000000" stroke="none" 
	d="
M120.290497,46.327179 
	C122.880386,45.956394 125.163902,45.956394 127.821014,45.956394 
	C127.821014,62.022057 127.821014,77.760880 127.821014,93.927193 
	C136.583191,93.927193 144.984436,93.927193 153.769485,93.927193 
	C153.769485,96.388840 153.769485,98.430328 153.769485,100.743744 
	C142.795120,100.743744 131.709274,100.743744 119.984131,100.743744 
	C119.984131,82.792725 119.984131,64.745346 120.290497,46.327179 
z"/>
<path fill="#121212" opacity="1.000000" stroke="none" 
	d="
M486.421082,87.983643 
	C486.421112,78.368713 486.421112,69.251213 486.421112,59.723423 
	C488.909973,59.723423 491.112305,59.723423 493.626984,59.723423 
	C493.794678,61.248146 493.968231,62.825966 494.205933,64.987160 
	C497.885956,60.232426 502.464233,58.075207 508.121155,58.528038 
	C515.460999,59.115585 516.391418,60.238251 515.791138,68.097015 
	C514.558899,67.559547 513.454773,67.050568 512.330139,66.591774 
	C502.811035,62.708508 494.576996,67.693024 494.102783,77.959579 
	C493.759094,85.400131 494.035736,92.869339 494.035736,100.678101 
	C491.486511,100.678101 489.261078,100.678101 486.421082,100.678101 
	C486.421082,96.678047 486.421082,92.579567 486.421082,87.983643 
z"/>
<path fill="#050505" opacity="1.000000" stroke="none" 
	d="
M1128.848877,70.025711 
	C1127.773193,74.684761 1126.479736,78.980194 1126.150635,83.348289 
	C1125.718018,89.091476 1126.044434,94.891823 1126.044434,100.832321 
	C1123.518555,100.832321 1121.432373,100.832321 1118.807617,100.832321 
	C1118.807617,93.952690 1118.807495,87.191933 1118.807495,80.431175 
	C1118.807495,73.623665 1118.807617,66.816162 1118.807617,59.682522 
	C1121.153198,59.682522 1123.230225,59.682522 1125.714600,59.682522 
	C1125.884644,61.206360 1126.071167,62.878277 1126.348877,65.368210 
	C1130.018921,60.146336 1134.687500,58.167763 1140.319214,58.563965 
	C1147.692871,59.082718 1148.606445,60.218182 1147.929932,68.092682 
	C1141.297241,64.902664 1134.746582,63.204418 1128.848877,70.025711 
z"/>
<path fill="#060606" opacity="1.000000" stroke="none" 
	d="
M1211.073608,99.885391 
	C1211.542725,95.546478 1211.929565,91.627563 1212.346436,87.403625 
	C1215.931030,87.403625 1219.647583,87.403625 1223.381470,87.403625 
	C1226.246582,96.480911 1221.116821,103.435814 1216.873901,110.297478 
	C1215.929077,111.825623 1211.606201,111.265060 1208.144287,111.766830 
	C1209.261353,107.269722 1210.126343,103.787567 1211.073608,99.885391 
z"/>
<path fill="#111111" opacity="1.000000" stroke="none" 
	d="
M1218.766846,59.365501 
	C1222.323608,58.879578 1223.765869,59.921280 1223.447510,63.348949 
	C1223.160889,66.436279 1223.387085,69.571228 1223.387085,72.930038 
	C1219.363647,72.930038 1215.634644,72.930038 1211.624756,72.930038 
	C1211.624756,68.608177 1211.624756,64.390686 1211.624756,59.365471 
	C1213.862671,59.365471 1216.095093,59.365471 1218.766846,59.365501 
z"/>
<path fill="#FAFAFE" opacity="1.000000" stroke="none" 
	d="
M815.893066,53.771912 
	C820.686951,56.637188 821.282776,60.717052 820.042236,65.210938 
	C818.842224,69.557976 815.389160,70.951813 811.242249,71.035156 
	C808.617615,71.087906 805.991089,71.045006 803.087830,71.045006 
	C803.087830,64.781517 803.087830,58.761585 803.087830,51.859921 
	C807.509033,52.469017 811.528259,53.022728 815.893066,53.771912 
z"/>
<path fill="#F9FAFE" opacity="1.000000" stroke="none" 
	d="
M847.290527,80.459457 
	C847.543701,73.557053 847.491699,67.058784 848.272644,60.662209 
	C848.839233,56.021095 851.168579,51.958775 856.588074,51.476765 
	C861.186890,51.067757 864.360657,53.569149 865.562927,57.820858 
	C868.468323,68.095016 868.413940,78.512474 865.657532,88.801735 
	C864.591675,92.780319 861.771912,95.348289 857.274109,95.290260 
	C852.815125,95.232742 850.203613,92.711479 849.005859,88.673271 
	C848.255188,86.142754 847.883789,83.499718 847.290527,80.459457 
z"/>
<path fill="#F6F6F6" opacity="1.000000" stroke="none" 
	d="
M593.634460,89.345512 
	C591.241394,94.360588 587.432922,96.267464 582.477356,95.624596 
	C578.893005,95.159622 576.304138,93.300262 575.918030,89.277924 
	C575.521118,85.141472 577.471741,82.230865 581.244507,81.413696 
	C585.692627,80.450256 590.342590,80.418968 595.812561,79.896919 
	C595.005859,83.624619 594.423340,86.316368 593.634460,89.345512 
z"/>
<path fill="#EDEDED" opacity="1.000000" stroke="none" 
	d="
M668.232300,70.441345 
	C671.351746,65.411613 675.718323,63.831425 680.809814,65.265633 
	C685.101746,66.474617 687.442444,69.760384 687.822754,74.546432 
	C680.856018,74.546432 674.135925,74.546432 666.877014,74.546432 
	C667.302734,73.140305 667.662720,71.951172 668.232300,70.441345 
z"/>
<path fill="#EDEDED" opacity="1.000000" stroke="none" 
	d="
M1080.010132,65.480545 
	C1088.834595,64.143951 1092.963989,66.886383 1093.772217,74.446487 
	C1087.021240,74.446487 1080.294800,74.446487 1073.318604,74.446487 
	C1073.693970,70.186028 1076.072998,67.510033 1080.010132,65.480545 
z"/>
<path fill="#EDEDED" opacity="1.000000" stroke="none" 
	d="
M443.738800,68.710480 
	C447.194672,64.598129 451.443939,63.951714 455.754242,65.498817 
	C459.522461,66.851372 461.833954,69.875465 461.961792,74.470139 
	C454.994965,74.470139 448.266785,74.470139 440.788635,74.470139 
	C441.819214,72.401024 442.663422,70.706123 443.738800,68.710480 
z"/>
</svg>