<svg version="1.1" id="Layer_1" xmlns="http://www.w3.org/2000/svg" xmlns:xlink="http://www.w3.org/1999/xlink" x="0px" y="0px"
	 width="100%" viewBox="0 0 393 265" enable-background="new 0 0 393 265" xml:space="preserve">
<path fill="#010101" opacity="1.000000" stroke="none" 
	d="
M1.000000,101.000000 
	C1.000000,67.691238 1.000000,34.382473 1.000000,1.036854 
	C131.878860,1.036854 262.757751,1.036854 394.000000,1.036854 
	C394.000000,34.353348 394.000000,67.708015 393.531433,101.531570 
	C382.769440,102.436905 372.564514,101.917557 362.267273,99.018051 
	C359.088196,96.253906 356.207092,93.648109 353.195679,90.771072 
	C342.760559,82.829872 332.455750,75.159904 321.918640,67.263596 
	C312.459290,62.301105 303.232239,57.564960 293.789337,52.550724 
	C272.601959,43.261566 250.721664,37.543659 228.070709,35.128273 
	C204.481705,32.612858 180.815262,33.080235 157.655228,38.256763 
	C142.129379,41.726963 127.072075,47.293457 111.438095,51.926495 
	C101.603539,56.569042 92.136002,61.207062 82.324387,65.884460 
	C71.561630,72.909859 61.142952,79.895866 50.409073,86.981857 
	C46.277065,90.342873 42.460255,93.603920 38.286240,96.890091 
	C35.990227,98.624283 34.051422,100.333328 31.735483,101.880096 
	C30.081348,101.478455 28.805710,101.040512 27.527128,101.031738 
	C18.685095,100.971130 9.842449,100.999924 1.000000,101.000000 
z"/>
<path fill="#010101" opacity="1.000000" stroke="none" 
	d="
M394.000000,231.000000 
	C394.000000,242.655640 394.000000,254.311279 394.000000,265.959717 
	C263.000000,265.952515 131.999985,265.952515 1.000000,265.952515 
	C1.000000,254.582474 1.000000,243.259903 1.468657,231.468903 
	C14.924715,231.000519 27.913383,230.884735 40.899231,231.026794 
	C62.336388,231.261276 83.771057,231.732330 105.208374,231.934509 
	C109.541481,231.975388 113.881683,231.264404 118.597214,230.915817 
	C128.004074,233.396851 137.032318,235.862137 146.314682,238.578674 
	C156.534470,240.368866 166.460434,242.270172 176.474487,243.367569 
	C194.536377,245.346924 212.752975,245.604218 230.599319,242.293594 
	C247.567825,239.145813 264.210205,234.240158 281.060120,230.436005 
	C286.013123,230.843048 290.901978,230.986481 295.790924,230.989502 
	C328.527283,231.009705 361.263641,231.000000 394.000000,231.000000 
z"/>
<path fill="#FEFEFE" opacity="1.000000" stroke="none" 
	d="
M146.060562,238.327423 
	C137.032318,235.862137 128.004074,233.396851 118.367065,230.626785 
	C106.535454,225.457886 95.312607,220.593765 83.915497,215.440094 
	C77.873390,211.808060 72.005531,208.465561 65.938980,204.860535 
	C64.332108,203.912415 62.768856,203.432159 61.542431,202.505905 
	C56.067070,198.370667 50.687866,194.108109 45.131081,189.578918 
	C40.011173,184.836166 35.034111,180.406067 29.932198,175.663254 
	C21.221733,165.143112 12.657920,154.917114 4.010223,144.762573 
	C3.298405,143.926727 2.016835,143.576096 1.000000,143.000000 
	C1.000000,141.285645 1.000000,139.571289 1.349225,137.483582 
	C4.093043,134.058197 6.487638,131.006165 9.312391,127.981148 
	C12.854136,128.338791 15.964832,128.946182 19.077446,128.956161 
	C43.667328,129.035034 68.257736,128.955338 92.847542,129.045486 
	C96.788475,129.059921 100.727188,129.677261 104.735176,130.440491 
	C104.808784,132.589676 104.814148,134.314255 104.754120,136.347214 
	C104.721268,137.072693 104.753792,137.489792 104.736435,138.160049 
	C104.677177,138.584961 104.667809,138.756729 104.471405,139.279770 
	C105.197868,147.295212 105.555916,155.077087 107.149086,162.597275 
	C109.848381,175.338608 115.051079,187.072037 123.936943,197.296997 
	C125.672394,199.508591 127.289154,201.395157 128.970917,203.466949 
	C129.176804,203.892776 129.383102,204.044220 129.821594,204.368896 
	C130.622864,205.131393 131.257355,205.631546 131.861237,206.144440 
	C131.830612,206.157181 131.798828,206.215393 131.960373,206.506958 
	C141.140182,216.369720 151.988373,223.242661 164.059479,228.753662 
	C165.030106,232.412201 166.129028,235.140884 170.601349,233.210388 
	C171.437622,232.849442 173.236694,234.164001 174.267868,235.072586 
	C174.702866,235.455902 174.638840,237.307312 174.209000,237.589844 
	C173.194580,238.256653 171.802139,238.742447 170.601959,238.667862 
	C163.450455,238.223633 156.313766,237.539856 149.161911,237.103653 
	C148.156738,237.042343 147.095734,237.896820 146.060562,238.327423 
z"/>
<path fill="#FDFDFD" opacity="1.000000" stroke="none" 
	d="
M146.314682,238.578659 
	C147.095734,237.896820 148.156738,237.042343 149.161911,237.103653 
	C156.313766,237.539856 163.450455,238.223633 170.601959,238.667862 
	C171.802139,238.742447 173.194580,238.256653 174.209000,237.589844 
	C174.638840,237.307312 174.702866,235.455902 174.267868,235.072586 
	C173.236694,234.164001 171.437622,232.849442 170.601349,233.210388 
	C166.129028,235.140884 165.030106,232.412201 164.417969,228.661896 
	C171.120270,230.180527 177.531662,232.132507 184.187195,234.398468 
	C186.216431,235.036148 188.005219,235.655518 189.785980,235.633163 
	C198.231415,235.527115 206.674652,235.246002 215.557648,235.029236 
	C219.721710,234.523804 223.512207,234.291702 227.152283,233.426620 
	C230.380310,232.659470 233.365463,230.881393 236.590286,230.087753 
	C245.651337,227.857803 253.042923,222.748566 260.419006,216.848022 
	C261.410950,215.780228 261.956055,214.521194 262.875702,214.119476 
	C271.616760,210.301102 276.186401,202.531998 281.155975,195.095276 
	C281.153534,195.062683 281.107697,195.109329 281.401306,194.939178 
	C282.193420,193.557678 282.691925,192.346344 283.176392,191.097809 
	C283.162354,191.060623 283.113403,191.123260 283.395050,191.099274 
	C283.828552,190.744431 283.980438,190.413574 284.065460,190.066040 
	C283.998596,190.049347 284.121521,190.112076 284.412048,189.967697 
	C284.989777,189.242249 285.277008,188.661179 285.798828,187.849365 
	C294.022705,173.453690 298.239258,158.221085 299.015747,141.623749 
	C299.053619,140.501038 299.020264,139.749405 299.047607,138.537872 
	C299.102722,134.053360 299.097107,130.028778 299.500549,126.061935 
	C302.020782,126.413322 304.131226,126.955734 306.243286,126.962090 
	C327.312134,127.025520 348.382080,126.899239 369.449524,127.081627 
	C373.947876,127.120567 378.429230,128.269226 382.936737,128.725830 
	C383.989594,128.832489 385.117157,128.201874 386.480682,128.094086 
	C389.167358,131.185135 391.583679,134.092575 394.000000,137.000000 
	C394.000000,138.066666 394.000000,139.133347 393.667725,140.437347 
	C384.193634,151.771652 375.051788,162.868607 365.598541,174.084167 
	C356.075745,182.423096 346.864288,190.643402 337.334930,198.956696 
	C330.969543,203.216309 324.922119,207.382919 318.534454,211.672821 
	C305.794830,217.899887 293.395416,224.003662 280.996002,230.107437 
	C264.210205,234.240158 247.567825,239.145813 230.599319,242.293594 
	C212.752975,245.604218 194.536377,245.346924 176.474487,243.367569 
	C166.460434,242.270172 156.534470,240.368866 146.314682,238.578659 
z"/>
<path fill="#0A0A0A" opacity="1.000000" stroke="none" 
	d="
M281.060120,230.436005 
	C293.395416,224.003662 305.794830,217.899887 318.538116,212.012451 
	C318.600250,213.062042 318.318512,213.895264 318.036774,214.728500 
	C318.326355,215.022079 318.615906,215.315674 318.905457,215.609253 
	C320.566406,214.235489 322.227386,212.861725 323.417725,211.877213 
	C326.574768,212.276215 329.436829,212.939194 332.301697,212.951752 
	C352.867462,213.041931 373.433838,213.000000 394.000000,213.000000 
	C394.000000,218.688034 394.000000,224.376083 394.000000,230.532059 
	C361.263641,231.000000 328.527283,231.009705 295.790924,230.989502 
	C290.901978,230.986481 286.013123,230.843048 281.060120,230.436005 
z"/>
<path fill="#090909" opacity="1.000000" stroke="none" 
	d="
M84.089752,215.729614 
	C95.312607,220.593765 106.535454,225.457886 117.988457,230.611038 
	C113.881683,231.264404 109.541481,231.975388 105.208374,231.934509 
	C83.771057,231.732330 62.336388,231.261276 40.899231,231.026794 
	C27.913383,230.884735 14.924715,231.000519 1.468657,231.000244 
	C1.000000,226.643097 1.000000,222.286194 1.468657,217.464645 
	C23.087933,217.000000 44.238579,216.980896 65.389145,217.013275 
	C70.741631,217.021469 76.094513,217.266739 81.445549,217.218613 
	C82.331345,217.210663 83.208572,216.250015 84.089752,215.729614 
z"/>
<path fill="#111111" opacity="1.000000" stroke="none" 
	d="
M394.000000,212.532394 
	C373.433838,213.000000 352.867462,213.041931 332.301697,212.951752 
	C329.436829,212.939194 326.574768,212.276215 323.417725,211.877213 
	C322.227386,212.861725 320.566406,214.235489 318.905457,215.609253 
	C318.615906,215.315674 318.326355,215.022079 318.036774,214.728500 
	C318.318512,213.895264 318.600250,213.062042 318.878326,211.889160 
	C324.922119,207.382919 330.969543,203.216309 337.690063,199.014603 
	C339.485535,199.018463 340.917511,199.525726 341.680603,199.021194 
	C347.062561,195.463120 352.947784,195.751938 359.030182,195.911270 
	C370.679565,196.216431 382.342621,196.000000 394.000000,196.000000 
	C394.000000,201.354935 394.000000,206.709854 394.000000,212.532394 
z"/>
<path fill="#0F0F0F" opacity="1.000000" stroke="none" 
	d="
M83.915497,215.440079 
	C83.208572,216.250015 82.331345,217.210663 81.445549,217.218613 
	C76.094513,217.266739 70.741631,217.021469 65.389145,217.013275 
	C44.238579,216.980896 23.087933,217.000000 1.468657,217.000000 
	C1.000000,212.643097 1.000000,208.286194 1.468657,203.464645 
	C22.797123,204.105759 43.946976,200.098877 64.525101,206.503021 
	C64.884659,206.614899 65.592407,205.607956 66.137680,205.123077 
	C72.005531,208.465561 77.873390,211.808060 83.915497,215.440079 
z"/>
<path fill="#181818" opacity="1.000000" stroke="none" 
	d="
M394.000000,195.531723 
	C382.342621,196.000000 370.679565,196.216431 359.030182,195.911270 
	C352.947784,195.751938 347.062561,195.463120 341.680603,199.021194 
	C340.917511,199.525726 339.485535,199.018463 338.007996,198.921600 
	C346.864288,190.643402 356.075745,182.423096 366.006836,174.095779 
	C375.447266,178.347076 384.821838,176.784180 394.000000,177.000000 
	C394.000000,183.021149 394.000000,189.042297 394.000000,195.531723 
z"/>
<path fill="#151515" opacity="1.000000" stroke="none" 
	d="
M65.938988,204.860535 
	C65.592407,205.607956 64.884659,206.614899 64.525101,206.503021 
	C43.946976,200.098877 22.797123,204.105759 1.468657,203.000000 
	C1.000000,198.975449 1.000000,194.950912 1.468657,190.463181 
	C6.730059,190.000000 11.522836,190.011505 16.315538,189.997589 
	C25.968357,189.969574 35.621132,189.927704 45.273926,189.891556 
	C50.687866,194.108109 56.067070,198.370667 61.542431,202.505905 
	C62.768856,203.432159 64.332108,203.912415 65.938988,204.860535 
z"/>
<path fill="#1E1E1E" opacity="1.000000" stroke="none" 
	d="
M1.000000,143.468658 
	C2.016835,143.576096 3.298405,143.926727 4.010223,144.762573 
	C12.657920,154.917114 21.221733,165.143112 29.581490,175.817688 
	C27.653017,176.854889 25.975283,177.817642 24.243492,177.927399 
	C16.504086,178.417847 8.749259,178.664993 1.000000,179.000000 
	C1.000000,167.312439 1.000000,155.624878 1.000000,143.468658 
z"/>
<path fill="#1E1E1E" opacity="1.000000" stroke="none" 
	d="
M394.000000,176.531342 
	C384.821838,176.784180 375.447266,178.347076 366.318176,173.977173 
	C375.051788,162.868607 384.193634,151.771652 393.667725,140.837341 
	C394.000000,152.687561 394.000000,164.375122 394.000000,176.531342 
z"/>
<path fill="#090909" opacity="1.000000" stroke="none" 
	d="
M1.000000,101.468582 
	C9.842449,100.999924 18.685095,100.971130 27.527128,101.031738 
	C28.805710,101.040512 30.081348,101.478455 31.602692,102.190590 
	C28.253241,106.450180 24.659449,110.236984 20.750896,114.141342 
	C18.333559,116.523071 16.230982,118.787247 13.741395,121.042061 
	C9.236258,121.688461 5.118129,122.344231 1.000000,123.000000 
	C1.000000,115.979050 1.000000,108.958107 1.000000,101.468582 
z"/>
<path fill="#090909" opacity="1.000000" stroke="none" 
	d="
M362.565308,99.176392 
	C372.564514,101.917557 382.769440,102.436905 393.531433,102.000229 
	C394.000000,109.687576 394.000000,117.375153 393.590332,125.532043 
	C390.890167,126.329002 388.599609,126.656654 386.079834,126.735771 
	C384.512909,124.675278 383.175201,122.863312 382.182678,120.994415 
	C382.885101,120.201820 383.242310,119.466164 383.599518,118.730507 
	C382.416351,118.813339 381.233185,118.896172 379.781158,118.815704 
	C378.638245,117.769493 377.764221,116.886581 376.904602,115.663788 
	C373.426208,111.495842 369.933441,107.667778 366.301331,103.530220 
	C364.963104,101.872620 363.764221,100.524506 362.565308,99.176392 
z"/>
<path fill="#181818" opacity="1.000000" stroke="none" 
	d="
M1.000000,179.458069 
	C8.749259,178.664993 16.504086,178.417847 24.243492,177.927399 
	C25.975283,177.817642 27.653017,176.854889 29.706343,176.130402 
	C35.034111,180.406067 40.011173,184.836166 45.131081,189.578918 
	C35.621132,189.927704 25.968357,189.969574 16.315538,189.997589 
	C11.522836,190.011505 6.730059,190.000000 1.468657,190.000000 
	C1.000000,186.638718 1.000000,183.277420 1.000000,179.458069 
z"/>
<path fill="#151515" opacity="1.000000" stroke="none" 
	d="
M1.000000,123.464645 
	C5.118129,122.344231 9.236258,121.688461 13.624561,121.357323 
	C12.223901,123.772675 10.553065,125.863396 8.882231,127.954117 
	C6.487638,131.006165 4.093043,134.058197 1.349225,137.055115 
	C1.000000,132.643097 1.000000,128.286194 1.000000,123.464645 
z"/>
<path fill="#151515" opacity="1.000000" stroke="none" 
	d="
M386.309082,126.984314 
	C388.599609,126.656654 390.890167,126.329002 393.590332,126.000671 
	C394.000000,129.361282 394.000000,132.722580 394.000000,136.541931 
	C391.583679,134.092575 389.167358,131.185135 386.527283,127.864883 
	C386.303558,127.452080 386.309082,126.984314 386.309082,126.984314 
z"/>
<path fill="#E6E6E5" opacity="1.000000" stroke="none" 
	d="
M50.724270,86.881874 
	C61.142952,79.895866 71.561630,72.909859 82.618431,66.068428 
	C82.894371,70.016678 84.577370,71.140709 88.371696,71.085800 
	C103.034058,70.873573 117.702591,70.896202 132.365845,71.075203 
	C135.864822,71.117920 139.339188,72.305481 142.852966,72.533455 
	C143.926773,72.603119 145.094360,71.227531 146.483948,70.747711 
	C147.921616,72.342110 149.360855,73.554832 150.213440,75.092781 
	C152.196228,78.669487 154.215729,78.374237 157.168152,76.091080 
	C159.836670,74.027489 163.015594,72.623970 166.172501,71.191971 
	C170.053772,71.303032 173.731689,71.030037 177.410263,71.020599 
	C195.224884,70.974907 213.039948,70.956345 230.854065,71.059372 
	C232.908371,71.071259 234.950470,71.937759 237.011261,72.341454 
	C241.441055,73.209206 245.879333,74.033554 250.593597,74.949776 
	C251.582504,75.668671 252.291962,76.313461 253.005371,77.331558 
	C253.339340,79.136787 253.669373,80.568703 253.633820,82.040924 
	C252.019745,82.215637 250.620071,82.783691 249.548706,82.410118 
	C244.659271,80.705254 241.669098,82.120132 239.619049,87.304764 
	C239.405762,87.285461 238.997681,87.155342 238.951508,86.789566 
	C238.140671,85.997665 237.375992,85.571541 236.297546,85.013031 
	C231.305389,82.964615 226.626999,81.048576 221.588806,79.006744 
	C218.489731,78.298401 215.750427,77.715858 212.638504,77.063644 
	C211.508789,77.000320 210.751724,77.006676 209.544800,76.944656 
	C206.061447,76.913406 203.027908,76.950523 199.618027,76.959564 
	C198.491287,76.992897 197.740891,77.054298 196.588806,77.096252 
	C192.994339,77.712791 189.749146,79.034317 186.623322,78.795227 
	C183.389526,78.547867 181.405914,79.423401 179.453598,81.960411 
	C177.421295,82.981628 175.719086,83.962242 173.727310,84.965317 
	C173.253708,85.289787 173.069687,85.591797 172.873474,85.829681 
	C172.861282,85.765549 172.730774,85.762733 172.400543,85.761276 
	C170.927094,86.471817 169.783890,87.183823 168.462189,87.919312 
	C168.283707,87.942802 167.978073,88.133125 167.719177,88.214378 
	C166.975098,88.534561 166.489914,88.773491 165.782898,88.738693 
	C160.787933,85.001724 155.498535,85.779892 149.985382,85.846138 
	C122.175407,86.180283 94.358574,85.905479 66.546059,86.108055 
	C62.671928,86.136269 58.808437,87.625473 54.040276,88.627426 
	C53.656944,88.425644 52.190605,87.653763 50.724270,86.881874 
z"/>
<path fill="#E6E6E5" opacity="1.000000" stroke="none" 
	d="
M111.805115,51.921970 
	C127.072075,47.293457 142.129379,41.726963 157.655228,38.256763 
	C180.815262,33.080235 204.481705,32.612858 228.070709,35.128273 
	C250.721664,37.543659 272.601959,43.261566 293.817322,52.873539 
	C294.427216,54.197964 294.793274,54.921482 295.915680,57.139996 
	C283.039398,57.139996 270.878754,57.139996 258.417725,57.072441 
	C257.417755,56.570599 256.718201,56.136311 256.007629,55.388210 
	C255.297714,54.789612 254.598770,54.504829 253.547943,54.128304 
	C244.443024,50.738663 235.880188,46.738403 226.893066,44.304989 
	C212.878189,40.510220 198.417694,40.828003 184.582840,44.883427 
	C173.520340,48.126186 163.032013,53.327728 152.109802,57.326591 
	C140.546371,56.993298 129.162003,56.993298 118.286697,56.993298 
	C116.802704,55.610867 115.401207,54.305286 113.999847,52.999855 
	C114.000000,53.000000 114.000305,53.000156 113.808891,52.742023 
	C113.013359,52.296585 112.409233,52.109280 111.805115,51.921970 
M287.825928,52.246811 
	C287.880859,52.412605 287.935791,52.578400 287.990753,52.744186 
	C288.044312,52.577377 288.097900,52.410572 287.825928,52.246811 
z"/>
<path fill="#F0F0EF" opacity="1.000000" stroke="none" 
	d="
M21.065655,114.023781 
	C24.659449,110.236984 28.253241,106.450180 31.979826,102.352875 
	C34.051422,100.333328 35.990227,98.624283 38.667694,96.951630 
	C45.606937,96.994217 51.807941,96.955574 58.008026,97.014061 
	C91.631638,97.331230 125.255203,97.656555 158.878220,98.030312 
	C162.164307,98.066833 165.446533,98.452637 168.860153,98.946609 
	C169.026703,99.807693 169.063629,100.398491 168.717621,101.059570 
	C167.002167,107.605804 162.139053,107.186981 157.192490,107.045242 
	C150.712204,106.859566 144.209702,106.772171 137.744720,107.137527 
	C135.782028,107.248451 133.911880,108.997177 131.722900,110.202805 
	C129.957230,112.272720 128.468033,114.135597 126.815521,115.687645 
	C121.976990,112.893898 117.301758,110.410980 113.019119,108.136559 
	C111.230118,109.811920 110.057945,110.909637 108.424286,112.005112 
	C80.977821,112.002876 53.992855,112.002876 27.007889,112.002876 
	C25.767578,113.170288 25.021444,116.522545 21.065655,114.023781 
z"/>
<path fill="#EBEBEB" opacity="1.000000" stroke="none" 
	d="
M168.730545,98.676315 
	C165.446533,98.452637 162.164307,98.066833 158.878220,98.030312 
	C125.255203,97.656555 91.631638,97.331230 58.008026,97.014061 
	C51.807941,96.955574 45.606937,96.994217 39.024902,96.926498 
	C42.460255,93.603920 46.277065,90.342873 50.409073,86.981857 
	C52.190605,87.653763 53.656944,88.425644 54.040276,88.627426 
	C58.808437,87.625473 62.671928,86.136269 66.546059,86.108055 
	C94.358574,85.905479 122.175407,86.180283 149.985382,85.846138 
	C155.498535,85.779892 160.787933,85.001724 165.742401,88.959732 
	C165.923752,89.454498 165.849030,89.897736 165.884460,89.943909 
	C165.919907,89.990082 165.898834,89.875595 165.567963,89.992935 
	C162.311172,92.896027 165.090851,93.866646 166.883636,95.093567 
	C166.922577,95.023521 166.803177,95.130447 166.798874,95.360558 
	C166.794571,95.590668 167.014481,95.995049 167.130554,96.291351 
	C167.741257,97.283882 168.235901,97.980103 168.730545,98.676315 
z"/>
<path fill="#EBEBEB" opacity="1.000000" stroke="none" 
	d="
M362.267273,99.018051 
	C363.764221,100.524506 364.963104,101.872620 365.875854,103.571236 
	C359.926392,103.280952 354.273193,102.224152 348.597626,102.086060 
	C336.805939,101.799156 324.999084,102.159500 313.205414,101.916237 
	C308.825745,101.825897 304.480133,100.598770 300.090485,100.263542 
	C297.782684,100.087303 295.413330,100.717003 292.859467,100.930389 
	C292.647156,100.878014 292.231049,100.743309 292.218689,100.365517 
	C290.610260,95.985809 289.014252,91.983894 287.793274,87.967133 
	C288.778870,87.301628 289.389435,86.650970 290.000000,86.000153 
	C290.000000,86.000000 290.000000,85.999695 290.378845,85.958847 
	C293.507568,85.945229 296.257507,85.994171 299.007416,85.995987 
	C311.761475,86.004417 324.515656,85.978401 337.269501,86.029518 
	C338.704346,86.035263 340.213806,86.240448 341.553314,86.726273 
	C343.468750,87.420998 345.259338,88.459930 347.103271,89.351860 
	C347.241882,89.108376 347.380524,88.864891 347.519135,88.621407 
	C348.638031,90.347748 349.756897,92.074089 351.204926,94.308311 
	C352.147430,92.857063 352.736694,91.949684 353.325989,91.042313 
	C356.207092,93.648109 359.088196,96.253906 362.267273,99.018051 
z"/>
<path fill="#E6E6E5" opacity="1.000000" stroke="none" 
	d="
M290.000000,86.000305 
	C289.389435,86.650970 288.778870,87.301628 287.622864,87.735245 
	C284.113953,83.575996 281.150452,79.633781 278.038696,75.439011 
	C277.261078,74.454994 276.631653,73.723534 276.066895,72.638878 
	C279.699829,71.330101 283.247528,69.664833 286.840515,69.560493 
	C295.427338,69.311127 304.040344,70.036034 312.632599,69.862335 
	C315.820038,69.797905 318.979004,68.322113 322.150940,67.489944 
	C332.455750,75.159904 342.760559,82.829872 353.195679,90.771080 
	C352.736694,91.949684 352.147430,92.857063 351.204926,94.308311 
	C349.756897,92.074089 348.638031,90.347748 347.519135,88.621407 
	C347.380524,88.864891 347.241882,89.108376 347.103271,89.351860 
	C345.259338,88.459930 343.468750,87.420998 341.553314,86.726273 
	C340.213806,86.240448 338.704346,86.035263 337.269501,86.029518 
	C324.515656,85.978401 311.761475,86.004417 299.007416,85.995987 
	C296.257507,85.994171 293.507568,85.945229 290.325012,85.820724 
	C289.806976,85.674309 289.721558,85.625153 289.636169,85.576004 
	C289.757446,85.717438 289.878723,85.858871 290.000000,86.000305 
z"/>
<path fill="#E2E2E2" opacity="1.000000" stroke="none" 
	d="
M113.999702,52.999710 
	C115.401207,54.305286 116.802704,55.610867 118.286697,56.993298 
	C129.162003,56.993298 140.546371,56.993298 151.925476,57.570045 
	C150.478867,59.185719 148.903763,60.083057 147.623611,61.292561 
	C144.815369,63.945839 142.559357,66.817177 146.218994,70.513809 
	C145.094360,71.227531 143.926773,72.603119 142.852966,72.533455 
	C139.339188,72.305481 135.864822,71.117920 132.365845,71.075203 
	C117.702591,70.896202 103.034058,70.873573 88.371696,71.085800 
	C84.577370,71.140709 82.894371,70.016678 82.962509,66.029037 
	C92.136002,61.207062 101.603539,56.569042 111.438095,51.926498 
	C112.409233,52.109280 113.013359,52.296585 113.670914,52.795929 
	C113.816139,53.071884 113.907921,53.035797 113.999702,52.999710 
M114.628868,57.475521 
	C114.839020,57.529537 115.049164,57.583557 115.259315,57.637573 
	C115.124275,57.504787 114.989243,57.372002 114.628868,57.475521 
z"/>
<path fill="#E2E2E2" opacity="1.000000" stroke="none" 
	d="
M321.918640,67.263596 
	C318.979004,68.322113 315.820038,69.797905 312.632599,69.862335 
	C304.040344,70.036034 295.427338,69.311127 286.840515,69.560493 
	C283.247528,69.664833 279.699829,71.330101 275.743774,72.604797 
	C274.925354,72.887886 274.494781,72.851852 274.062256,72.461937 
	C272.394684,70.044800 270.729065,67.981552 269.033142,65.956558 
	C269.002869,65.994804 269.081268,65.936829 268.931366,65.663620 
	C267.929443,64.857529 267.077454,64.324631 266.181152,63.794369 
	C266.136871,63.796997 266.125427,63.884949 266.065308,63.610451 
	C265.706329,63.114128 265.407471,62.892307 264.937103,62.396629 
	C262.749786,60.461845 260.733978,58.800919 258.718140,57.139996 
	C270.878754,57.139996 283.039398,57.139996 295.915680,57.139996 
	C294.793274,54.921482 294.427216,54.197964 294.033203,53.151630 
	C303.232239,57.564960 312.459290,62.301105 321.918640,67.263596 
z"/>
<path fill="#9DA39F" opacity="1.000000" stroke="none" 
	d="
M183.943069,234.084473 
	C177.531662,232.132507 171.120270,230.180527 164.350372,228.320282 
	C151.988373,223.242661 141.140182,216.369720 132.341751,206.442276 
	C134.667358,207.172134 136.773117,208.258224 139.149445,209.483841 
	C141.860504,204.974426 146.232681,207.059280 150.216064,207.636490 
	C153.143509,208.060684 155.890533,208.748032 156.783890,204.701630 
	C163.790054,208.349014 170.165375,212.827393 177.246567,215.190659 
	C184.902313,217.745712 193.214111,218.343857 201.248917,219.742798 
	C202.213943,219.910797 203.258331,219.880905 204.228363,219.718384 
	C209.014435,218.916580 213.901016,218.431107 218.537964,217.092270 
	C224.764938,215.294357 230.958725,213.177917 236.858337,210.514954 
	C241.479492,208.429062 245.631958,205.304886 249.996277,203.082672 
	C250.449966,205.738510 250.709152,209.802612 251.380692,209.871918 
	C256.107758,210.359894 257.238922,214.727448 260.145935,217.054550 
	C253.042923,222.748566 245.651337,227.857803 236.590286,230.087753 
	C233.365463,230.881393 230.380310,232.659470 227.152283,233.426620 
	C223.512207,234.291702 219.721710,234.523804 215.079956,235.016541 
	C208.047546,234.994385 201.929214,235.092422 195.817017,234.941635 
	C191.854401,234.843872 187.900742,234.382767 183.943069,234.084473 
z"/>
<path fill="#F7F7F7" opacity="1.000000" stroke="none" 
	d="
M20.750895,114.141342 
	C25.021444,116.522545 25.767578,113.170288 27.007889,112.002876 
	C53.992855,112.002876 80.977821,112.002876 108.361160,112.382996 
	C107.395332,118.514046 106.031136,124.264969 104.666931,130.015900 
	C100.727188,129.677261 96.788475,129.059921 92.847542,129.045486 
	C68.257736,128.955338 43.667328,129.035034 19.077446,128.956161 
	C15.964832,128.946182 12.854136,128.338791 9.312389,127.981148 
	C10.553065,125.863396 12.223901,123.772675 14.011570,121.366692 
	C16.230982,118.787247 18.333559,116.523071 20.750895,114.141342 
M102.837685,114.051804 
	C102.585907,114.201797 102.206406,114.302429 102.123253,114.517586 
	C102.058167,114.686005 102.360321,114.996346 102.499298,115.243622 
	C102.638733,114.996040 102.778168,114.748459 102.837685,114.051804 
M105.413162,114.482620 
	C105.413162,114.482620 105.522552,114.417336 105.413162,114.482620 
z"/>
<path fill="#A1A8A4" opacity="1.000000" stroke="none" 
	d="
M156.463898,204.601151 
	C155.890533,208.748032 153.143509,208.060684 150.216064,207.636490 
	C146.232681,207.059280 141.860504,204.974426 139.149445,209.483841 
	C136.773117,208.258224 134.667358,207.172134 132.180206,206.150726 
	C131.798828,206.215393 131.830612,206.157181 131.849854,205.783020 
	C131.130997,204.974762 130.392914,204.540649 129.654816,204.106537 
	C129.383102,204.044220 129.176804,203.892776 128.996597,203.069199 
	C128.423981,199.548660 127.488136,196.986298 123.818245,196.971939 
	C115.051079,187.072037 109.848381,175.338608 107.149086,162.597275 
	C105.555916,155.077087 105.197868,147.295212 104.696609,139.232483 
	C105.212166,138.724915 105.413078,138.529343 105.404434,138.519592 
	C105.212349,138.302979 104.997147,138.106888 104.786324,137.906891 
	C104.753792,137.489792 104.721268,137.072693 105.121246,136.289764 
	C110.582565,130.463837 115.596985,136.298325 120.423340,135.239059 
	C120.981674,140.301849 121.460938,144.647644 121.989853,149.195099 
	C122.039497,149.396759 122.041710,149.812057 122.108437,150.048431 
	C122.318703,150.596771 122.548759,150.819275 122.942764,151.352936 
	C126.077522,171.083374 135.705261,186.690369 150.120483,199.972137 
	C151.104813,200.890640 152.089722,201.421448 153.039459,201.972229 
	C153.004288,201.992218 153.047531,201.923843 153.039062,202.310699 
	C154.083649,203.385818 155.136734,204.074066 156.245743,204.700607 
	C156.301666,204.638901 156.463898,204.601151 156.463898,204.601151 
z"/>
<path fill="#99A09B" opacity="1.000000" stroke="none" 
	d="
M121.940201,148.993439 
	C121.460938,144.647644 120.981674,140.301849 120.423340,135.239059 
	C115.596985,136.298325 110.582565,130.463837 105.186630,135.981384 
	C104.814148,134.314255 104.808784,132.589676 104.735176,130.440491 
	C106.031136,124.264969 107.395332,118.514046 108.822662,112.385239 
	C110.057945,110.909637 111.230118,109.811920 113.019119,108.136559 
	C117.301758,110.410980 121.976990,112.893898 126.689919,115.936371 
	C126.485123,116.997475 126.242615,117.499023 125.774605,118.069824 
	C125.221001,118.328979 125.124626,118.600960 125.220078,119.367691 
	C124.825066,122.190826 124.469940,124.601288 124.029861,127.420525 
	C123.276680,134.884003 122.608437,141.938721 121.940201,148.993439 
z"/>
<path fill="#9DA39F" opacity="1.000000" stroke="none" 
	d="
M123.936943,197.296997 
	C127.488136,196.986298 128.423981,199.548660 128.931580,202.883942 
	C127.289154,201.395157 125.672394,199.508591 123.936943,197.296997 
z"/>
<path fill="#9DA39F" opacity="1.000000" stroke="none" 
	d="
M129.821594,204.368896 
	C130.392914,204.540649 131.130997,204.974762 131.880463,205.770264 
	C131.257355,205.631546 130.622864,205.131393 129.821594,204.368896 
z"/>
<path fill="#99A09B" opacity="1.000000" stroke="none" 
	d="
M104.736435,138.160049 
	C104.997147,138.106888 105.212349,138.302979 105.404434,138.519592 
	C105.413078,138.529343 105.212166,138.724915 104.883644,138.881226 
	C104.667809,138.756729 104.677177,138.584961 104.736435,138.160049 
z"/>
<path fill="#F7F7F7" opacity="1.000000" stroke="none" 
	d="
M386.079834,126.735779 
	C386.309082,126.984314 386.303558,127.452080 386.256958,127.681282 
	C385.117157,128.201874 383.989594,128.832489 382.936737,128.725830 
	C378.429230,128.269226 373.947876,127.120567 369.449524,127.081627 
	C348.382080,126.899239 327.312134,127.025520 306.243286,126.962090 
	C304.131226,126.955734 302.020782,126.413322 299.344360,125.693085 
	C298.228882,121.512650 297.678619,117.758812 297.482788,113.960587 
	C301.207245,114.277260 304.575439,114.929787 307.947510,114.950401 
	C325.258362,115.056206 342.570892,115.069260 359.880737,114.900528 
	C361.784546,114.881966 364.089783,113.940483 365.479614,112.644852 
	C367.883545,110.403770 369.410980,110.392075 371.633759,112.845924 
	C372.947174,114.295914 375.109589,114.976860 376.890198,116.003654 
	C377.764221,116.886581 378.638245,117.769493 379.809296,119.107452 
	C380.683350,120.058777 381.260406,120.555069 381.837494,121.051353 
	C383.175201,122.863312 384.512909,124.675278 386.079834,126.735779 
z"/>
<path fill="#A3A9A5" opacity="1.000000" stroke="none" 
	d="
M298.944550,141.994812 
	C298.239258,158.221085 294.022705,173.453690 285.454712,187.944763 
	C284.624573,188.884644 284.373047,189.498352 284.121521,190.112076 
	C284.121521,190.112076 283.998596,190.049347 283.817780,190.151459 
	C283.462433,190.543472 283.287933,190.833359 283.113403,191.123260 
	C283.113403,191.123260 283.162354,191.060623 282.827759,191.194397 
	C282.031311,192.588562 281.569519,193.848938 281.107697,195.109329 
	C281.107697,195.109329 281.153534,195.062683 280.748138,195.045959 
	C277.157135,194.336609 273.776978,194.089462 270.847687,192.810028 
	C268.515411,191.791367 266.733643,189.512360 264.737671,187.805038 
	C264.767883,187.817215 264.822052,187.847702 265.194885,187.866058 
	C266.672058,185.884918 267.776428,183.885406 268.855377,181.899155 
	C268.829956,181.912399 268.823639,181.855408 269.212524,181.898941 
	C270.934570,181.551514 272.267731,181.160553 273.545563,180.785812 
	C273.292328,178.443344 273.087463,176.548096 273.049805,174.346436 
	C274.020813,172.273041 275.045135,170.570999 275.587952,168.727219 
	C277.389801,162.606979 279.018372,156.435730 280.974579,150.088821 
	C281.095306,149.222122 280.954865,148.550659 280.788300,147.562805 
	C280.839905,146.831421 280.917603,146.416382 281.370483,145.923752 
	C282.165680,143.898865 282.585663,141.951569 283.420227,140.012238 
	C288.871399,140.678391 293.907990,141.336609 298.944550,141.994812 
z"/>
<path fill="#A0A6A2" opacity="1.000000" stroke="none" 
	d="
M264.707489,187.792862 
	C266.733643,189.512360 268.515411,191.791367 270.847687,192.810028 
	C273.776978,194.089462 277.157135,194.336609 280.750580,195.078568 
	C276.186401,202.531998 271.616760,210.301102 262.875702,214.119476 
	C261.956055,214.521194 261.410950,215.780228 260.419006,216.848022 
	C257.238922,214.727448 256.107758,210.359894 251.380692,209.871918 
	C250.709152,209.802612 250.449966,205.738510 250.216492,202.859528 
	C255.191208,197.394760 259.949341,192.593811 264.707489,187.792862 
z"/>
<path fill="#959C97" opacity="1.000000" stroke="none" 
	d="
M297.128357,114.004974 
	C297.678619,117.758812 298.228882,121.512650 298.935303,125.635345 
	C299.097107,130.028778 299.102722,134.053360 298.662720,138.451065 
	C297.481873,135.373825 296.393158,131.951233 296.119324,128.464661 
	C295.885590,125.488434 294.592316,124.241714 291.897156,124.039314 
	C288.814575,123.807823 285.724945,123.669830 282.697327,123.494621 
	C282.091309,125.062378 281.518158,126.545105 280.848419,128.051544 
	C280.751831,128.075272 280.557220,128.117096 280.628967,127.719589 
	C279.993835,123.598160 279.286926,119.874245 278.911194,115.942993 
	C279.242401,113.412086 279.242401,111.088501 279.242401,108.001457 
	C283.973053,108.001457 288.481506,108.001457 293.109558,108.227608 
	C293.507385,108.644531 293.785645,108.835304 294.231445,109.320190 
	C295.248169,110.784332 296.097321,111.954353 296.950745,113.353043 
	C296.954987,113.581711 297.128357,114.004974 297.128357,114.004974 
z"/>
<path fill="#9DA39F" opacity="1.000000" stroke="none" 
	d="
M280.945007,128.027832 
	C281.518158,126.545105 282.091309,125.062378 282.697327,123.494621 
	C285.724945,123.669830 288.814575,123.807823 291.897156,124.039314 
	C294.592316,124.241714 295.885590,125.488434 296.119324,128.464661 
	C296.393158,131.951233 297.481873,135.373825 298.601990,138.910980 
	C299.020264,139.749405 299.053619,140.501038 299.015747,141.623749 
	C293.907990,141.336609 288.871399,140.678391 283.417664,139.569946 
	C282.391083,136.421936 281.781708,133.724182 281.068909,130.661224 
	C280.958618,129.539963 280.951813,128.783890 280.945007,128.027832 
z"/>
<path fill="#888F8A" opacity="1.000000" stroke="none" 
	d="
M184.187195,234.398468 
	C187.900742,234.382767 191.854401,234.843872 195.817017,234.941635 
	C201.929214,235.092422 208.047546,234.994385 214.640991,235.014557 
	C206.674652,235.246002 198.231415,235.527115 189.785980,235.633163 
	C188.005219,235.655518 186.216431,235.036148 184.187195,234.398468 
z"/>
<path fill="#A0A6A2" opacity="1.000000" stroke="none" 
	d="
M281.401306,194.939178 
	C281.569519,193.848938 282.031311,192.588562 282.841797,191.231598 
	C282.691925,192.346344 282.193420,193.557678 281.401306,194.939178 
z"/>
<path fill="#A0A6A2" opacity="1.000000" stroke="none" 
	d="
M284.412048,189.967697 
	C284.373047,189.498352 284.624573,188.884644 285.220184,188.175522 
	C285.277008,188.661179 284.989777,189.242249 284.412048,189.967697 
z"/>
<path fill="#A0A6A2" opacity="1.000000" stroke="none" 
	d="
M283.395050,191.099274 
	C283.287933,190.833359 283.462433,190.543472 283.884644,190.168152 
	C283.980438,190.413574 283.828552,190.744431 283.395050,191.099274 
z"/>
<path fill="#F1F2F1" opacity="1.000000" stroke="none" 
	d="
M297.482788,113.960587 
	C297.128357,114.004974 296.954987,113.581711 296.972626,112.952652 
	C296.098450,110.211662 295.206635,108.099731 294.253082,105.737228 
	C294.132660,105.324936 294.073944,105.163223 294.016296,104.654915 
	C293.702148,103.199806 293.386963,102.091293 293.071777,100.982773 
	C295.413330,100.717003 297.782684,100.087303 300.090485,100.263542 
	C304.480133,100.598770 308.825745,101.825897 313.205414,101.916237 
	C324.999084,102.159500 336.805939,101.799156 348.597626,102.086060 
	C354.273193,102.224152 359.926392,103.280952 366.015198,103.880722 
	C369.933441,107.667778 373.426208,111.495842 376.904602,115.663780 
	C375.109589,114.976860 372.947174,114.295914 371.633759,112.845924 
	C369.410980,110.392075 367.883545,110.403770 365.479614,112.644852 
	C364.089783,113.940483 361.784546,114.881966 359.880737,114.900528 
	C342.570892,115.069260 325.258362,115.056206 307.947510,114.950401 
	C304.575439,114.929787 301.207245,114.277260 297.482788,113.960587 
M361.482574,104.586990 
	C361.482574,104.586990 361.417389,104.477959 361.482574,104.586990 
z"/>
<path fill="#151515" opacity="1.000000" stroke="none" 
	d="
M382.182678,120.994415 
	C381.260406,120.555069 380.683350,120.058777 380.078156,119.270752 
	C381.233185,118.896172 382.416351,118.813339 383.599518,118.730507 
	C383.242310,119.466164 382.885101,120.201820 382.182678,120.994415 
z"/>
<path fill="#888F8A" opacity="1.000000" stroke="none" 
	d="
M258.417725,57.072441 
	C260.733978,58.800919 262.749786,60.461845 265.001099,62.676109 
	C265.532867,63.447948 265.829163,63.666447 266.125427,63.884949 
	C266.125427,63.884949 266.136871,63.796997 266.153809,64.163849 
	C267.140930,64.999420 268.111115,65.468124 269.081268,65.936829 
	C269.081268,65.936829 269.002869,65.994804 269.018250,66.330315 
	C269.905090,68.511475 270.776520,70.357117 271.625580,72.155312 
	C269.931702,77.480911 266.132721,79.396767 260.781006,79.081062 
	C259.843109,79.025734 258.849060,79.922943 257.586212,80.277588 
	C256.913208,80.002197 256.534912,79.829453 255.999115,79.398949 
	C254.894882,78.413536 253.948166,77.685890 253.001434,76.958244 
	C252.291962,76.313461 251.582504,75.668671 250.371216,74.677719 
	C239.288208,66.802353 227.720947,62.073254 214.666016,60.631145 
	C197.207230,58.702564 181.071991,62.154774 165.969452,70.929382 
	C163.015594,72.623970 159.836670,74.027489 157.168152,76.091080 
	C154.215729,78.374237 152.196228,78.669487 150.213440,75.092781 
	C149.360855,73.554832 147.921616,72.342110 146.483948,70.747711 
	C142.559357,66.817177 144.815369,63.945839 147.623611,61.292561 
	C148.903763,60.083057 150.478867,59.185719 152.104523,57.903343 
	C163.032013,53.327728 173.520340,48.126186 184.582840,44.883427 
	C198.417694,40.828003 212.878189,40.510220 226.893066,44.304989 
	C235.880188,46.738403 244.443024,50.738663 253.694519,54.352013 
	C254.801529,55.012325 255.410095,55.357178 256.018646,55.702026 
	C256.718201,56.136311 257.417755,56.570599 258.417725,57.072441 
z"/>
<path fill="#8B928D" opacity="1.000000" stroke="none" 
	d="
M174.016876,84.942856 
	C175.719086,83.962242 177.421295,82.981628 179.885910,81.986694 
	C185.773148,80.895180 190.905334,79.850037 196.009384,78.681992 
	C196.433670,78.584892 196.667953,77.657387 196.990509,77.115707 
	C197.740891,77.054298 198.491287,76.992897 199.895706,77.252838 
	C203.698044,77.387138 206.846344,77.200081 209.994644,77.013031 
	C210.751724,77.006676 211.508789,77.000320 212.715363,77.416008 
	C216.092789,78.269547 219.020691,78.701042 221.948608,79.132545 
	C226.626999,81.048576 231.305389,82.964615 236.416107,85.339401 
	C237.564865,86.250557 238.281265,86.702950 238.997681,87.155342 
	C238.997681,87.155342 239.405762,87.285461 239.678085,87.594162 
	C240.350708,88.584732 240.751007,89.266586 240.747208,89.973724 
	C238.801468,90.990669 237.285614,92.789879 235.713928,92.840042 
	C226.969574,93.119156 218.211685,92.974014 209.247467,92.974014 
	C208.540833,94.953560 207.463242,97.972298 206.299011,100.591866 
	C206.309372,97.513382 206.406418,94.834068 206.652985,91.733185 
	C207.703522,85.911087 204.706970,86.556419 201.487640,87.493103 
	C201.033844,89.563881 200.648331,91.322975 199.778259,93.057877 
	C190.362686,93.033691 181.431686,93.033691 172.051605,93.033691 
	C172.465866,90.834900 172.732330,89.420654 172.988953,87.629974 
	C172.896332,86.756607 172.813553,86.259666 172.730774,85.762733 
	C172.730774,85.762733 172.861282,85.765549 173.122864,85.754898 
	C173.595245,85.477112 173.806061,85.209984 174.016876,84.942856 
z"/>
<path fill="#E3E3E3" opacity="1.000000" stroke="none" 
	d="
M166.172501,71.191971 
	C181.071991,62.154774 197.207230,58.702564 214.666016,60.631145 
	C227.720947,62.073254 239.288208,66.802353 250.091766,74.603622 
	C245.879333,74.033554 241.441055,73.209206 237.011261,72.341454 
	C234.950470,71.937759 232.908371,71.071259 230.854065,71.059372 
	C213.039948,70.956345 195.224884,70.974907 177.410263,71.020599 
	C173.731689,71.030037 170.053772,71.303032 166.172501,71.191971 
z"/>
<path fill="#909692" opacity="1.000000" stroke="none" 
	d="
M172.998779,88.006409 
	C172.732330,89.420654 172.465866,90.834900 172.051605,93.033691 
	C181.431686,93.033691 190.362686,93.033691 199.766052,93.405685 
	C200.464340,94.857361 200.690231,95.937042 200.872208,97.371590 
	C200.565140,99.133514 200.301987,100.540565 199.615967,101.967331 
	C191.173676,102.266327 184.267868,105.035202 178.565521,111.101669 
	C177.949799,111.027596 177.602127,110.945740 177.235565,110.501877 
	C174.511292,107.089676 171.805939,104.039482 169.100571,100.989288 
	C169.063629,100.398491 169.026703,99.807693 168.860153,98.946609 
	C168.235901,97.980103 167.741257,97.283882 167.296600,96.190483 
	C167.165466,95.572350 166.984314,95.351395 166.803177,95.130447 
	C166.803177,95.130447 166.922577,95.023521 166.903931,94.705223 
	C166.556473,92.883148 166.227661,91.379372 165.898834,89.875595 
	C165.898834,89.875595 165.919907,89.990082 166.211884,89.946243 
	C166.995285,89.312653 167.486679,88.722893 167.978073,88.133125 
	C167.978073,88.133125 168.283707,87.942802 168.901672,87.952591 
	C170.679337,87.977058 171.839066,87.991737 172.998779,88.006409 
z"/>
<path fill="#EBEBEB" opacity="1.000000" stroke="none" 
	d="
M241.151306,89.948441 
	C240.751007,89.266586 240.350708,88.584732 239.891388,87.613464 
	C241.669098,82.120132 244.659271,80.705254 249.548706,82.410118 
	C250.620071,82.783691 252.019745,82.215637 253.883972,82.040527 
	C254.666458,81.999313 254.833237,81.998810 255.234406,82.269684 
	C256.886871,82.722794 258.304932,82.904541 260.026367,83.236198 
	C264.137878,88.433693 267.946045,93.481285 271.795685,98.772690 
	C271.859100,99.346916 271.881073,99.677322 271.548218,99.997223 
	C267.802826,99.326180 264.419952,98.165710 261.020050,98.113472 
	C254.744003,98.017044 258.970581,103.848518 256.621735,106.024780 
	C255.252426,104.184631 254.374802,102.330162 253.002655,100.977272 
	C249.161560,97.190086 245.116119,93.610153 241.151306,89.948441 
z"/>
<path fill="#888F8A" opacity="1.000000" stroke="none" 
	d="
M196.588806,77.096252 
	C196.667953,77.657387 196.433670,78.584892 196.009384,78.681992 
	C190.905334,79.850037 185.773148,80.895180 180.216003,81.946106 
	C181.405914,79.423401 183.389526,78.547867 186.623322,78.795227 
	C189.749146,79.034317 192.994339,77.712791 196.588806,77.096252 
z"/>
<path fill="#888F8A" opacity="1.000000" stroke="none" 
	d="
M221.588806,79.006744 
	C219.020691,78.701042 216.092789,78.269547 213.088013,77.485687 
	C215.750427,77.715858 218.489731,78.298401 221.588806,79.006744 
z"/>
<path fill="#888F8A" opacity="1.000000" stroke="none" 
	d="
M209.544800,76.944656 
	C206.846344,77.200081 203.698044,77.387138 200.272064,77.280914 
	C203.027908,76.950523 206.061447,76.913406 209.544800,76.944656 
z"/>
<path fill="#E3E3E3" opacity="1.000000" stroke="none" 
	d="
M255.000000,81.998306 
	C254.833237,81.998810 254.666458,81.999313 254.249542,82.000214 
	C253.669373,80.568703 253.339340,79.136787 253.005371,77.331558 
	C253.948166,77.685890 254.894882,78.413536 255.876678,79.705437 
	C255.607834,80.845886 255.303909,81.422096 255.000000,81.998306 
z"/>
<path fill="#888F8A" opacity="1.000000" stroke="none" 
	d="
M172.988953,87.629974 
	C171.839066,87.991737 170.679337,87.977058 169.080139,87.929108 
	C169.783890,87.183823 170.927094,86.471817 172.400543,85.761276 
	C172.813553,86.259666 172.896332,86.756607 172.988953,87.629974 
z"/>
<path fill="#E3E3E3" opacity="1.000000" stroke="none" 
	d="
M238.951508,86.789566 
	C238.281265,86.702950 237.564865,86.250557 236.729889,85.471786 
	C237.375992,85.571541 238.140671,85.997665 238.951508,86.789566 
z"/>
<path fill="#888F8A" opacity="1.000000" stroke="none" 
	d="
M167.719177,88.214378 
	C167.486679,88.722893 166.995285,89.312653 166.176453,89.900070 
	C165.849030,89.897736 165.923752,89.454498 165.964249,89.233459 
	C166.489914,88.773491 166.975098,88.534561 167.719177,88.214378 
z"/>
<path fill="#888F8A" opacity="1.000000" stroke="none" 
	d="
M173.727310,84.965317 
	C173.806061,85.209984 173.595245,85.477112 173.135040,85.819031 
	C173.069687,85.591797 173.253708,85.289787 173.727310,84.965317 
z"/>
<path fill="#E2E2E2" opacity="1.000000" stroke="none" 
	d="
M256.007629,55.388214 
	C255.410095,55.357178 254.801529,55.012325 254.046417,54.443760 
	C254.598770,54.504829 255.297714,54.789612 256.007629,55.388214 
z"/>
<path fill="#E2E2E2" opacity="1.000000" stroke="none" 
	d="
M287.988708,52.245289 
	C288.097900,52.410572 288.044312,52.577377 287.990753,52.744186 
	C287.935791,52.578400 287.880859,52.412605 287.988708,52.245289 
z"/>
<path fill="#F5F4F5" opacity="1.000000" stroke="none" 
	d="
M177.254456,110.863876 
	C177.602127,110.945740 177.949799,111.027596 178.754684,111.381958 
	C181.649445,114.827278 184.086975,118.000099 186.324097,121.474785 
	C184.221710,121.308502 182.319183,120.443260 180.417908,120.445953 
	C174.486679,120.454361 168.533051,120.556801 162.637848,121.132324 
	C160.673172,121.324127 158.858627,123.053696 156.579102,124.049309 
	C155.066223,123.777237 153.917130,123.634048 152.839462,123.275948 
	C150.064438,122.353806 146.946106,120.071075 144.679169,120.742699 
	C142.735092,121.318665 141.781693,125.232491 140.381195,127.665024 
	C140.302444,127.801819 140.142166,127.891663 139.649399,127.964821 
	C134.394836,124.792809 129.289337,125.329956 124.114807,127.011757 
	C124.469940,124.601288 124.825066,122.190826 125.388611,119.248672 
	C125.799194,118.516365 125.933563,118.277565 126.000114,118.000580 
	C126.242615,117.499023 126.485123,116.997475 126.853226,116.247192 
	C128.468033,114.135597 129.957230,112.272720 132.066498,110.381989 
	C134.023300,110.901199 135.355484,111.910080 136.697464,111.923279 
	C148.961487,112.043968 161.227448,112.024048 173.492111,111.940399 
	C174.748611,111.931831 176.000458,111.239120 177.254456,110.863876 
z"/>
<path fill="#F1F2F1" opacity="1.000000" stroke="none" 
	d="
M177.235565,110.501869 
	C176.000458,111.239120 174.748611,111.931831 173.492111,111.940399 
	C161.227448,112.024048 148.961487,112.043968 136.697464,111.923279 
	C135.355484,111.910080 134.023300,110.901199 132.342957,110.174942 
	C133.911880,108.997177 135.782028,107.248451 137.744720,107.137527 
	C144.209702,106.772171 150.712204,106.859566 157.192490,107.045242 
	C162.139053,107.186981 167.002167,107.605804 168.717621,101.059570 
	C171.805939,104.039482 174.511292,107.089676 177.235565,110.501869 
z"/>
<path fill="#888F8A" opacity="1.000000" stroke="none" 
	d="
M165.567963,89.992935 
	C166.227661,91.379372 166.556473,92.883148 166.865005,94.775269 
	C165.090851,93.866646 162.311172,92.896027 165.567963,89.992935 
z"/>
<path fill="#888F8A" opacity="1.000000" stroke="none" 
	d="
M166.798874,95.360558 
	C166.984314,95.351395 167.165466,95.572350 167.180542,95.894180 
	C167.014481,95.995049 166.794571,95.590668 166.798874,95.360558 
z"/>
<path fill="#8B928D" opacity="1.000000" stroke="none" 
	d="
M271.754242,98.528862 
	C267.946045,93.481285 264.137878,88.433693 259.967468,82.964584 
	C259.030457,81.822121 258.455688,81.101181 257.880920,80.380241 
	C258.849060,79.922943 259.843109,79.025734 260.781006,79.081062 
	C266.132721,79.396767 269.931702,77.480911 271.625580,72.155312 
	C270.776520,70.357117 269.905090,68.511475 269.048523,66.292068 
	C270.729065,67.981552 272.394684,70.044800 274.043091,72.870598 
	C274.068115,77.037773 275.207886,78.223709 278.186951,75.691574 
	C281.150452,79.633781 284.113953,83.575996 287.247864,87.750092 
	C289.014252,91.983894 290.610260,95.985809 292.160583,100.431328 
	C292.114838,100.874931 291.996460,101.002373 291.721436,100.806976 
	C288.457733,92.173576 280.971924,94.306358 274.232483,93.525246 
	C273.479919,95.044647 272.617096,96.786751 271.754242,98.528862 
z"/>
<path fill="#8B928D" opacity="1.000000" stroke="none" 
	d="
M292.859467,100.930389 
	C293.386963,102.091293 293.702148,103.199806 293.656982,104.590591 
	C292.863251,103.582703 292.429871,102.292534 291.996460,101.002373 
	C291.996460,101.002373 292.114838,100.874931 292.172943,100.809120 
	C292.231049,100.743309 292.647156,100.878014 292.859467,100.930389 
z"/>
<path fill="#888F8A" opacity="1.000000" stroke="none" 
	d="
M278.038696,75.439011 
	C275.207886,78.223709 274.068115,77.037773 274.045044,73.224487 
	C274.494781,72.851852 274.925354,72.887886 275.679108,72.957993 
	C276.631653,73.723534 277.261078,74.454994 278.038696,75.439011 
z"/>
<path fill="#EBEBEB" opacity="1.000000" stroke="none" 
	d="
M290.000000,86.000153 
	C289.878723,85.858871 289.757446,85.717438 289.636169,85.576004 
	C289.721558,85.625153 289.806976,85.674309 289.946167,85.861572 
	C290.000000,85.999695 290.000000,86.000000 290.000000,86.000153 
z"/>
<path fill="#E6E6E5" opacity="1.000000" stroke="none" 
	d="
M114.741531,57.357368 
	C114.989243,57.372002 115.124275,57.504787 115.259315,57.637573 
	C115.049164,57.583557 114.839020,57.529537 114.741531,57.357368 
z"/>
<path fill="#E6E6E5" opacity="1.000000" stroke="none" 
	d="
M113.999847,52.999855 
	C113.907921,53.035797 113.816139,53.071884 113.862335,53.054062 
	C114.000305,53.000156 114.000000,53.000000 113.999847,52.999855 
z"/>
<path fill="#8B928D" opacity="1.000000" stroke="none" 
	d="
M268.931366,65.663620 
	C268.111115,65.468124 267.140930,64.999420 266.198120,64.161224 
	C267.077454,64.324631 267.929443,64.857529 268.931366,65.663620 
z"/>
<path fill="#8B928D" opacity="1.000000" stroke="none" 
	d="
M266.065308,63.610451 
	C265.829163,63.666447 265.532867,63.447948 265.172607,62.949966 
	C265.407471,62.892307 265.706329,63.114128 266.065308,63.610451 
z"/>
<path fill="#FCFDFC" opacity="1.000000" stroke="none" 
	d="
M124.029861,127.420525 
	C129.289337,125.329956 134.394836,124.792809 139.639740,128.396149 
	C140.012711,136.238083 140.024902,143.610168 140.018677,151.380157 
	C143.298279,169.387238 153.540985,182.165527 168.226135,192.254745 
	C170.277039,193.377777 172.093018,194.263092 173.942963,195.128403 
	C173.976929,195.108398 173.905014,195.076126 174.069870,195.335968 
	C174.813217,195.771439 175.391693,195.947067 175.981384,196.083862 
	C175.992584,196.045044 175.915253,196.068527 176.142426,196.343842 
	C179.922653,197.766556 183.475723,198.913940 187.153015,200.116150 
	C187.277222,200.170959 187.540222,200.103363 187.765778,200.345993 
	C188.510071,200.416946 189.028809,200.245285 189.670853,200.247803 
	C190.140274,200.537674 190.364777,200.420731 190.707947,200.423218 
	C196.040085,201.178162 201.175369,202.197495 206.213882,201.842758 
	C214.235443,201.277939 222.270721,200.057831 229.042572,195.097656 
	C228.987625,195.083572 229.077850,195.152328 229.437454,195.174103 
	C231.249420,194.184647 232.701797,193.173401 234.139877,192.123749 
	C234.125580,192.085327 234.066772,192.142441 234.385162,192.195801 
	C235.169083,191.867310 235.634644,191.485458 236.069763,191.125961 
	C236.039322,191.148300 236.106308,191.183121 236.340698,191.189758 
	C236.575089,191.196381 236.997009,190.991653 237.310364,190.867706 
	C240.815384,187.634506 243.866714,184.363586 247.225906,181.447281 
	C256.177826,173.675552 259.636292,163.199982 262.382660,151.919571 
	C263.184845,143.454651 263.656647,135.231354 264.456238,126.945801 
	C265.600830,126.389183 266.504242,125.368515 267.220306,125.486343 
	C271.689240,126.221687 276.116302,127.211555 280.557220,128.117096 
	C280.557220,128.117096 280.751831,128.075272 280.848419,128.051544 
	C280.951813,128.783890 280.958618,129.539963 281.006836,131.112640 
	C281.030548,136.619949 281.012909,141.310654 280.995300,146.001358 
	C280.917603,146.416382 280.839905,146.831421 280.712341,147.959686 
	C280.679474,149.209976 280.696442,149.747009 280.713440,150.284042 
	C279.018372,156.435730 277.389801,162.606979 275.587952,168.727219 
	C275.045135,170.570999 274.020813,172.273041 272.761353,174.558411 
	C271.144989,177.336334 269.984314,179.595871 268.823639,181.855408 
	C268.823639,181.855408 268.829956,181.912399 268.559082,182.053650 
	C267.132812,184.079163 265.977448,185.963440 264.822052,187.847717 
	C264.822052,187.847702 264.767883,187.817215 264.737671,187.805038 
	C259.949341,192.593811 255.191208,197.394760 250.212860,202.418854 
	C245.631958,205.304886 241.479492,208.429062 236.858337,210.514954 
	C230.958725,213.177917 224.764938,215.294357 218.537964,217.092270 
	C213.901016,218.431107 209.014435,218.916580 204.228363,219.718384 
	C203.258331,219.880905 202.213943,219.910797 201.248917,219.742798 
	C193.214111,218.343857 184.902313,217.745712 177.246567,215.190659 
	C170.165375,212.827393 163.790054,208.349014 156.783890,204.701630 
	C156.463898,204.601151 156.301666,204.638901 156.205048,204.393463 
	C155.088120,203.406631 154.067825,202.665237 153.047531,201.923843 
	C153.047531,201.923843 153.004288,201.992218 152.875305,201.698334 
	C151.871246,200.797791 150.996155,200.191132 150.121063,199.584457 
	C135.705261,186.690369 126.077522,171.083374 122.917389,151.101562 
	C122.556953,150.237045 122.299332,150.024551 122.041710,149.812057 
	C122.041710,149.812057 122.039497,149.396759 121.989845,149.195099 
	C122.608437,141.938721 123.276680,134.884003 124.029861,127.420525 
z"/>
<path fill="#F0F0EF" opacity="1.000000" stroke="none" 
	d="
M102.877640,114.276344 
	C102.778168,114.748459 102.638733,114.996040 102.499298,115.243622 
	C102.360321,114.996346 102.058167,114.686005 102.123253,114.517586 
	C102.206406,114.302429 102.585907,114.201797 102.877640,114.276344 
z"/>
<path fill="#F0F0EF" opacity="1.000000" stroke="none" 
	d="
M105.467857,114.449982 
	C105.522552,114.417336 105.413162,114.482620 105.467857,114.449982 
z"/>
<path fill="#9DA39F" opacity="1.000000" stroke="none" 
	d="
M153.039062,202.310699 
	C154.067825,202.665237 155.088120,203.406631 156.149109,204.455170 
	C155.136734,204.074066 154.083649,203.385818 153.039062,202.310699 
z"/>
<path fill="#9DA39F" opacity="1.000000" stroke="none" 
	d="
M150.120483,199.972137 
	C150.996155,200.191132 151.871246,200.797791 152.910492,201.678345 
	C152.089722,201.421448 151.104813,200.890640 150.120483,199.972137 
z"/>
<path fill="#99A09B" opacity="1.000000" stroke="none" 
	d="
M122.108437,150.048431 
	C122.299332,150.024551 122.556953,150.237045 122.839951,150.700928 
	C122.548759,150.819275 122.318703,150.596771 122.108437,150.048431 
z"/>
<path fill="#F0F0EF" opacity="1.000000" stroke="none" 
	d="
M125.774605,118.069824 
	C125.933563,118.277565 125.799194,118.516365 125.428497,118.836014 
	C125.124626,118.600960 125.221001,118.328979 125.774605,118.069824 
z"/>
<path fill="#959C97" opacity="1.000000" stroke="none" 
	d="
M281.370483,145.923752 
	C281.012909,141.310654 281.030548,136.619949 281.110260,131.477829 
	C281.781708,133.724182 282.391083,136.421936 283.003052,139.561981 
	C282.585663,141.951569 282.165680,143.898865 281.370483,145.923752 
z"/>
<path fill="#A0A6A2" opacity="1.000000" stroke="none" 
	d="
M269.212524,181.898941 
	C269.984314,179.595871 271.144989,177.336334 272.594116,174.864822 
	C273.087463,176.548096 273.292328,178.443344 273.545563,180.785812 
	C272.267731,181.160553 270.934570,181.551514 269.212524,181.898941 
z"/>
<path fill="#A0A6A2" opacity="1.000000" stroke="none" 
	d="
M265.194885,187.866058 
	C265.977448,185.963440 267.132812,184.079163 268.584473,182.040405 
	C267.776428,183.885406 266.672058,185.884918 265.194885,187.866058 
z"/>
<path fill="#959C97" opacity="1.000000" stroke="none" 
	d="
M280.974609,150.088821 
	C280.696442,149.747009 280.679474,149.209976 280.738464,148.276062 
	C280.954865,148.550659 281.095306,149.222122 280.974609,150.088821 
z"/>
<path fill="#909692" opacity="1.000000" stroke="none" 
	d="
M291.721436,100.806976 
	C292.429871,102.292534 292.863251,103.582703 293.655945,104.937187 
	C294.073944,105.163223 294.132660,105.324936 294.158997,106.063698 
	C294.099579,107.092621 294.072601,107.544502 293.781708,107.997032 
	C293.341858,107.998932 293.165894,108.000191 292.989960,108.001457 
	C288.481506,108.001457 283.973053,108.001457 279.242401,108.001457 
	C279.242401,111.088501 279.242401,113.412086 278.717468,115.689438 
	C277.765869,114.432869 277.339203,113.222534 276.912048,111.641251 
	C275.242065,107.516106 273.572571,103.761917 271.903046,100.007721 
	C271.881073,99.677322 271.859100,99.346916 271.795685,98.772690 
	C272.617096,96.786751 273.479919,95.044647 274.232483,93.525246 
	C280.971924,94.306358 288.457733,92.173576 291.721436,100.806976 
z"/>
<path fill="#F7F7F7" opacity="1.000000" stroke="none" 
	d="
M276.912537,112.012199 
	C277.339203,113.222534 277.765869,114.432869 278.386292,115.896759 
	C279.286926,119.874245 279.993835,123.598160 280.628967,127.719597 
	C276.116302,127.211555 271.689240,126.221687 267.220306,125.486343 
	C266.504242,125.368515 265.600830,126.389183 264.347656,126.589546 
	C263.261139,124.194931 262.611053,122.094307 261.957581,119.627151 
	C261.326141,117.167946 260.698120,115.075279 260.466370,112.935883 
	C262.973694,112.662132 265.079865,112.333504 267.196930,112.231758 
	C270.431519,112.076309 273.673615,112.077499 276.912537,112.012199 
z"/>
<path fill="#EBEBEB" opacity="1.000000" stroke="none" 
	d="
M294.045624,107.996384 
	C294.072601,107.544502 294.099579,107.092621 294.220703,106.314270 
	C295.206635,108.099731 296.098450,110.211662 296.968384,112.723984 
	C296.097321,111.954353 295.248169,110.784332 294.265686,109.061981 
	C294.103485,108.338570 294.074554,108.167473 294.045624,107.996384 
z"/>
<path fill="#8B928D" opacity="1.000000" stroke="none" 
	d="
M293.781708,107.997032 
	C294.074554,108.167473 294.103485,108.338570 294.098145,108.767868 
	C293.785645,108.835304 293.507385,108.644531 293.109558,108.227608 
	C293.165894,108.000191 293.341858,107.998932 293.781708,107.997032 
z"/>
<path fill="#EBEBEB" opacity="1.000000" stroke="none" 
	d="
M361.449982,104.532471 
	C361.417389,104.477959 361.482574,104.586990 361.449982,104.532471 
z"/>
<path fill="#E6E6E5" opacity="1.000000" stroke="none" 
	d="
M257.586212,80.277588 
	C258.455688,81.101181 259.030457,81.822121 259.664124,82.814667 
	C258.304932,82.904541 256.886871,82.722794 255.234406,82.269684 
	C255.303909,81.422096 255.607834,80.845886 256.034180,79.963196 
	C256.534912,79.829453 256.913208,80.002197 257.586212,80.277588 
z"/>
<path fill="#909692" opacity="1.000000" stroke="none" 
	d="
M240.747208,89.973724 
	C245.116119,93.610153 249.161560,97.190086 253.002655,100.977272 
	C254.374802,102.330162 255.252426,104.184631 256.690552,106.358055 
	C257.402863,108.225380 257.780396,109.544807 257.781860,110.872261 
	C256.662811,110.301537 255.440445,109.843674 255.258820,109.123390 
	C254.413940,105.772758 252.942291,105.123772 249.239334,105.448051 
	C242.889160,106.004150 235.985397,106.387642 230.104538,104.447517 
	C224.063339,102.454498 225.419754,105.079041 225.508530,108.258743 
	C219.398270,104.449127 213.410568,101.453949 206.194977,101.900314 
	C206.225555,101.386482 206.305603,101.188759 206.385666,100.991035 
	C207.463242,97.972298 208.540833,94.953560 209.247467,92.974014 
	C218.211685,92.974014 226.969574,93.119156 235.713928,92.840042 
	C237.285614,92.789879 238.801468,90.990669 240.747208,89.973724 
z"/>
<path fill="#F5F4F5" opacity="1.000000" stroke="none" 
	d="
M206.299011,100.591866 
	C206.305603,101.188759 206.225555,101.386482 206.135559,102.351395 
	C205.981857,107.077271 206.040909,111.056488 205.642593,114.989388 
	C205.152374,119.829933 204.866333,124.356163 210.524200,126.018143 
	C208.610260,126.462067 207.053207,126.897644 206.649948,127.010452 
	C203.911331,125.008797 201.848053,123.500748 199.632538,121.619431 
	C199.601379,120.189606 199.722488,119.133049 200.113937,117.909286 
	C200.266174,116.163780 200.148056,114.585464 199.951324,112.552650 
	C199.928070,108.714638 199.983459,105.331123 200.038849,101.947617 
	C200.301987,100.540565 200.565140,99.133514 201.162292,97.127022 
	C201.782608,94.670334 202.068909,92.813087 202.332779,91.101334 
	C203.754303,91.460381 205.128876,91.807571 206.503464,92.154755 
	C206.406418,94.834068 206.309372,97.513382 206.299011,100.591866 
M203.581146,103.512909 
	C203.581146,103.512909 203.481796,103.568008 203.581146,103.512909 
z"/>
<path fill="#D7D8D7" opacity="1.000000" stroke="none" 
	d="
M206.652985,91.733185 
	C205.128876,91.807571 203.754303,91.460381 202.332779,91.101334 
	C202.068909,92.813087 201.782608,94.670334 201.206207,96.772148 
	C200.690231,95.937042 200.464340,94.857361 200.250641,93.429871 
	C200.648331,91.322975 201.033844,89.563881 201.487640,87.493103 
	C204.706970,86.556419 207.703522,85.911087 206.652985,91.733185 
z"/>
<path fill="#111111" opacity="1.000000" stroke="none" 
	d="
M199.615967,101.967331 
	C199.983459,105.331123 199.928070,108.714638 199.773773,112.875412 
	C199.731094,115.127274 199.787338,116.601883 199.843582,118.076485 
	C199.722488,119.133049 199.601379,120.189606 199.444733,121.913101 
	C198.940369,123.085960 198.471542,123.591888 197.691086,124.065216 
	C196.888931,124.334091 196.398407,124.635567 195.947617,124.961548 
	C195.987335,124.986061 195.942307,124.904305 195.644455,124.925217 
	C194.613876,125.426453 193.881149,125.906784 192.899307,126.529259 
	C192.500290,126.790131 192.350403,126.908852 192.019791,126.940460 
	C191.379791,126.608353 190.920532,126.363350 190.376434,125.813690 
	C189.035889,124.063660 187.780212,122.618286 186.524521,121.172913 
	C184.086975,118.000099 181.649445,114.827278 179.022736,111.374168 
	C184.267868,105.035202 191.173676,102.266327 199.615967,101.967331 
z"/>
<path fill="#F0F0EF" opacity="1.000000" stroke="none" 
	d="
M258.157959,110.864235 
	C257.780396,109.544807 257.402863,108.225380 256.956482,106.572678 
	C258.970581,103.848518 254.744003,98.017044 261.020050,98.113472 
	C264.419952,98.165710 267.802826,99.326180 271.548218,99.997223 
	C273.572571,103.761917 275.242065,107.516106 276.912048,111.641251 
	C273.673615,112.077499 270.431519,112.076309 267.196930,112.231758 
	C265.079865,112.333504 262.973694,112.662132 260.289062,112.919830 
	C259.715454,112.950516 259.360687,112.924179 259.289856,112.614304 
	C258.838745,111.834755 258.458466,111.365067 258.103088,110.900780 
	C258.127991,110.906181 258.157959,110.864235 258.157959,110.864235 
z"/>
<path fill="#F9FAF9" opacity="1.000000" stroke="none" 
	d="
M192.200531,127.027565 
	C192.350403,126.908852 192.500290,126.790131 193.092926,126.924362 
	C194.337875,126.419655 195.140091,125.661980 195.942307,124.904297 
	C195.942307,124.904305 195.987335,124.986061 196.296265,124.988602 
	C197.070145,124.993988 197.535095,124.996841 198.168976,125.235596 
	C198.875534,125.508095 199.413116,125.544685 199.950714,125.581276 
	C199.953079,125.422340 199.955429,125.263405 199.957794,125.104469 
	C199.304993,125.069748 198.652191,125.035027 197.999878,124.774681 
	C198.000381,124.549057 198.002716,124.097809 198.002716,124.097809 
	C198.471542,123.591888 198.940369,123.085960 199.596985,122.286362 
	C201.848053,123.500748 203.911331,125.008797 206.649948,127.010452 
	C207.053207,126.897644 208.610260,126.462067 210.840637,126.089890 
	C211.635742,126.332100 211.757507,126.510902 211.512894,126.838860 
	C210.169281,130.629654 210.639053,131.107544 216.301758,132.235138 
	C217.373337,134.485474 217.896957,136.890503 221.421875,135.842834 
	C223.217361,135.866364 224.602844,135.813110 226.445038,135.845642 
	C231.180237,135.860352 235.458740,135.789276 240.210648,135.812225 
	C243.662994,135.948257 246.657303,136.196487 249.616623,135.975677 
	C252.723389,135.743835 254.358978,136.679199 253.963028,140.357239 
	C252.354614,141.478104 250.902023,142.735779 249.345123,142.881851 
	C245.971024,143.198441 242.543549,142.946350 238.903015,142.551712 
	C231.766617,142.176620 224.865128,142.176620 217.885544,142.176620 
	C216.892715,144.326645 215.884750,146.509445 214.627472,148.819778 
	C213.820404,149.682602 213.262634,150.417892 212.383545,151.287155 
	C210.320053,152.473099 208.577881,153.525055 206.440125,154.683350 
	C205.520309,155.307037 204.535248,155.829834 204.541290,156.340942 
	C204.626266,163.546844 204.846039,170.751175 204.925751,178.413422 
	C204.818375,182.794998 204.818375,186.719009 204.818375,191.015900 
	C202.385574,190.864304 200.798752,190.765411 199.295303,190.671722 
	C198.506317,185.867004 197.789291,181.500504 197.495148,176.962341 
	C197.985870,171.862122 198.053680,166.933533 198.250900,161.578217 
	C197.826340,158.971100 197.895721,155.433472 196.611298,154.843567 
	C190.822433,152.184921 187.117538,148.110291 185.660889,141.964111 
	C182.191025,141.964111 179.052963,141.835464 175.929657,141.995300 
	C171.616806,142.216019 167.315094,142.654236 162.549744,142.937653 
	C157.817078,142.201904 153.044479,144.999268 149.274872,140.637680 
	C149.689362,138.869232 150.073059,137.493301 150.576050,135.689590 
	C155.305695,135.689590 159.788025,135.689590 164.713928,135.778320 
	C172.246918,135.867035 179.336349,135.867035 186.425781,135.867035 
	C186.480515,135.415512 186.535248,134.963989 186.589981,134.512466 
	C180.727982,132.293304 174.865982,130.074142 169.001785,127.470306 
	C168.840500,123.468773 167.633667,121.652931 163.619110,124.228836 
	C161.199432,124.242203 159.087433,124.161247 156.975449,124.080292 
	C158.858627,123.053696 160.673172,121.324127 162.637848,121.132324 
	C168.533051,120.556801 174.486679,120.454361 180.417908,120.445953 
	C182.319183,120.443260 184.221710,121.308502 186.324097,121.474785 
	C187.780212,122.618286 189.035889,124.063660 190.264709,126.220825 
	C190.788528,127.773056 191.339203,128.613495 191.889893,129.453934 
	C191.993439,128.645142 192.096985,127.836357 192.200531,127.027565 
z"/>
<path fill="#9DA39F" opacity="1.000000" stroke="none" 
	d="
M164.270355,135.689590 
	C159.788025,135.689590 155.305695,135.689590 150.576050,135.689590 
	C150.073059,137.493301 149.689362,138.869232 148.897247,140.587387 
	C146.577011,140.047714 144.665207,139.165817 142.753403,138.283920 
	C142.169754,140.334106 141.475937,142.360809 141.032928,144.440948 
	C140.574295,146.594391 140.358902,148.799652 140.037109,150.982239 
	C140.024902,143.610168 140.012711,136.238083 140.010162,128.434692 
	C140.142166,127.891663 140.302444,127.801819 140.381195,127.665024 
	C141.781693,125.232491 142.735092,121.318665 144.679169,120.742699 
	C146.946106,120.071075 150.064438,122.353806 152.839462,123.275948 
	C153.917130,123.634048 155.066223,123.777237 156.579102,124.049316 
	C159.087433,124.161247 161.199432,124.242203 163.688538,124.547272 
	C165.401337,125.790253 166.737000,126.809135 167.700104,127.888885 
	C166.308487,130.529694 165.289429,133.109650 164.270355,135.689590 
z"/>
<path fill="#A3A9A5" opacity="1.000000" stroke="none" 
	d="
M140.018707,151.380157 
	C140.358902,148.799652 140.574295,146.594391 141.032928,144.440948 
	C141.475937,142.360809 142.169754,140.334106 142.753403,138.283920 
	C144.665207,139.165817 146.577011,140.047714 148.866455,140.979904 
	C153.044479,144.999268 157.817078,142.201904 162.946838,143.056396 
	C164.944794,147.009537 165.929794,150.839615 167.279007,154.536789 
	C168.338593,157.440308 169.848221,160.179565 171.187256,163.313828 
	C172.479095,164.374313 173.741592,165.112778 175.226395,166.077164 
	C176.282272,166.928757 177.115845,167.554428 178.107758,168.472229 
	C184.108597,172.511963 189.460983,177.360794 197.072266,177.134003 
	C197.789291,181.500504 198.506317,185.867004 199.295303,190.671722 
	C200.798752,190.765411 202.385574,190.864304 204.818375,191.015900 
	C204.818375,186.719009 204.818375,182.794998 205.304535,178.372498 
	C211.958725,175.186264 218.153397,172.556335 224.263321,169.742432 
	C225.089645,169.361877 225.490479,168.057480 226.382446,167.051468 
	C227.791840,165.676117 228.907089,164.430130 230.373169,163.129028 
	C231.195389,162.401733 231.666779,161.729507 232.441742,160.867065 
	C234.876175,154.760162 237.007050,148.843475 239.137909,142.926804 
	C242.543549,142.946350 245.971024,143.198441 249.345123,142.881851 
	C250.902023,142.735779 252.354614,141.478104 254.307693,140.297516 
	C256.379425,138.788788 258.348938,136.507706 259.548187,136.858643 
	C262.669434,137.772003 263.585876,140.387589 262.668915,143.852951 
	C261.970612,146.491974 262.222900,149.382538 262.052277,152.161194 
	C259.636292,163.199982 256.177826,173.675552 247.225906,181.447281 
	C243.866714,184.363586 240.815384,187.634506 237.210419,190.699005 
	C236.566864,190.830551 236.336594,191.006836 236.106308,191.183136 
	C236.106308,191.183121 236.039322,191.148300 235.752808,191.114700 
	C234.999786,191.434875 234.533279,191.788666 234.066772,192.142441 
	C234.066772,192.142441 234.125580,192.085327 233.782425,192.095505 
	C231.985458,193.121231 230.531662,194.136780 229.077850,195.152328 
	C229.077850,195.152328 228.987625,195.083572 228.647522,195.064575 
	C224.400223,196.333405 220.567200,198.353928 216.570602,198.758453 
	C207.914032,199.634705 199.173721,199.683777 190.467667,200.071136 
	C190.364777,200.420731 190.140274,200.537674 189.168793,200.245895 
	C188.209030,200.081009 187.874619,200.092178 187.540222,200.103363 
	C187.540222,200.103363 187.277222,200.170959 186.989838,199.789032 
	C183.106735,198.294235 179.511002,197.181366 175.915253,196.068512 
	C175.915253,196.068527 175.992584,196.045044 175.832199,195.804932 
	C175.082886,195.401932 174.493942,195.239029 173.905014,195.076126 
	C173.905014,195.076126 173.976929,195.108398 173.932068,194.774246 
	C171.921875,193.632401 169.956543,192.824707 167.991211,192.017014 
	C153.540985,182.165527 143.298279,169.387238 140.018707,151.380157 
z"/>
<path fill="#9DA39F" opacity="1.000000" stroke="none" 
	d="
M262.382660,151.919571 
	C262.222900,149.382538 261.970612,146.491974 262.668915,143.852951 
	C263.585876,140.387589 262.669434,137.772003 259.548187,136.858643 
	C258.348938,136.507706 256.379425,138.788788 254.416229,139.930313 
	C254.358978,136.679199 252.723389,135.743835 249.616623,135.975677 
	C246.657303,136.196487 243.662994,135.948257 240.124374,135.593567 
	C239.300690,134.585052 239.036697,133.889206 238.793625,132.854355 
	C238.837296,131.838654 238.860046,131.161957 239.036499,130.577759 
	C239.085754,130.624893 238.981277,130.579498 238.774902,130.379410 
	C238.672974,130.224731 238.310806,130.146698 238.411652,129.770050 
	C237.722595,127.479149 236.932678,125.564888 236.098434,123.322868 
	C235.960052,122.347755 235.865997,121.700409 236.220184,121.037354 
	C238.609650,120.787224 240.552200,120.562988 242.491898,120.316505 
	C248.970123,119.493324 255.424393,117.286430 261.960938,119.993690 
	C262.611053,122.094307 263.261139,124.194931 264.019836,126.651802 
	C263.656647,135.231354 263.184845,143.454651 262.382660,151.919571 
z"/>
<path fill="#99A09B" opacity="1.000000" stroke="none" 
	d="
M190.707947,200.423218 
	C199.173721,199.683777 207.914032,199.634705 216.570602,198.758453 
	C220.567200,198.353928 224.400223,196.333405 228.702454,195.078644 
	C222.270721,200.057831 214.235443,201.277939 206.213882,201.842758 
	C201.175369,202.197495 196.040085,201.178162 190.707947,200.423218 
z"/>
<path fill="#99A09B" opacity="1.000000" stroke="none" 
	d="
M176.142426,196.343842 
	C179.511002,197.181366 183.106735,198.294235 186.865631,199.734207 
	C183.475723,198.913940 179.922653,197.766556 176.142426,196.343842 
z"/>
<path fill="#99A09B" opacity="1.000000" stroke="none" 
	d="
M168.226135,192.254745 
	C169.956543,192.824707 171.921875,193.632401 173.898102,194.794250 
	C172.093018,194.263092 170.277039,193.377777 168.226135,192.254745 
z"/>
<path fill="#99A09B" opacity="1.000000" stroke="none" 
	d="
M229.437454,195.174103 
	C230.531662,194.136780 231.985458,193.121231 233.796722,192.133911 
	C232.701797,193.173401 231.249420,194.184647 229.437454,195.174103 
z"/>
<path fill="#99A09B" opacity="1.000000" stroke="none" 
	d="
M234.385162,192.195801 
	C234.533279,191.788666 234.999786,191.434875 235.783249,191.092361 
	C235.634644,191.485458 235.169083,191.867310 234.385162,192.195801 
z"/>
<path fill="#99A09B" opacity="1.000000" stroke="none" 
	d="
M174.069870,195.335968 
	C174.493942,195.239029 175.082886,195.401932 175.820999,195.843750 
	C175.391693,195.947067 174.813217,195.771439 174.069870,195.335968 
z"/>
<path fill="#99A09B" opacity="1.000000" stroke="none" 
	d="
M187.765778,200.345993 
	C187.874619,200.092178 188.209030,200.081009 189.045486,200.071716 
	C189.028809,200.245285 188.510071,200.416946 187.765778,200.345993 
z"/>
<path fill="#99A09B" opacity="1.000000" stroke="none" 
	d="
M236.340698,191.189758 
	C236.336594,191.006836 236.566864,190.830551 236.897064,190.822968 
	C236.997009,190.991653 236.575089,191.196381 236.340698,191.189758 
z"/>
<path fill="#959C97" opacity="1.000000" stroke="none" 
	d="
M261.957581,119.627151 
	C255.424393,117.286430 248.970123,119.493324 242.491898,120.316505 
	C240.552200,120.562988 238.609650,120.787224 235.998154,120.798172 
	C232.169373,116.505707 229.010849,112.436714 225.852310,108.367729 
	C225.419754,105.079041 224.063339,102.454498 230.104538,104.447517 
	C235.985397,106.387642 242.889160,106.004150 249.239334,105.448051 
	C252.942291,105.123772 254.413940,105.772758 255.258820,109.123390 
	C255.440445,109.843674 256.662811,110.301537 257.781860,110.872261 
	C258.157959,110.864235 258.127991,110.906181 258.108582,111.238091 
	C258.513000,112.021393 258.936859,112.472786 259.360687,112.924179 
	C259.360687,112.924179 259.715454,112.950516 259.892761,112.966568 
	C260.698120,115.075279 261.326141,117.167946 261.957581,119.627151 
z"/>
<path fill="#0F0F0F" opacity="1.000000" stroke="none" 
	d="
M225.508530,108.258743 
	C229.010849,112.436714 232.169373,116.505707 235.549927,120.813873 
	C235.865997,121.700409 235.960052,122.347755 236.055573,123.712692 
	C236.808304,126.335747 237.559555,128.241226 238.310806,130.146698 
	C238.310806,130.146698 238.672974,130.224731 238.796021,130.367615 
	C238.919067,130.510513 238.882812,130.485245 238.882812,130.485245 
	C238.860046,131.161957 238.837296,131.838654 238.279236,132.796509 
	C233.708710,133.460388 229.135651,131.485764 225.988312,135.759857 
	C224.602844,135.813110 223.217361,135.866364 221.392426,135.548920 
	C219.895828,132.679779 218.773331,130.206528 217.797928,127.676575 
	C216.544846,124.426437 214.939255,124.535416 212.765839,127.006531 
	C212.373260,126.824928 212.141663,126.722496 211.879257,126.689705 
	C211.757507,126.510902 211.635742,126.332100 211.197540,126.081543 
	C204.866333,124.356163 205.152374,119.829933 205.642593,114.989388 
	C206.040909,111.056488 205.981857,107.077271 206.185043,102.667511 
	C213.410568,101.453949 219.398270,104.449127 225.508530,108.258743 
z"/>
<path fill="#D7D8D7" opacity="1.000000" stroke="none" 
	d="
M200.113937,117.909286 
	C199.787338,116.601883 199.731094,115.127274 199.852402,113.329910 
	C200.148056,114.585464 200.266174,116.163780 200.113937,117.909286 
z"/>
<path fill="#D7D8D7" opacity="1.000000" stroke="none" 
	d="
M203.531464,103.540459 
	C203.481796,103.568008 203.581146,103.512909 203.531464,103.540459 
z"/>
<path fill="#F5F4F5" opacity="1.000000" stroke="none" 
	d="
M192.019791,126.940460 
	C192.096985,127.836357 191.993439,128.645142 191.889893,129.453934 
	C191.339203,128.613495 190.788528,127.773056 190.349548,126.525482 
	C190.920532,126.363350 191.379791,126.608353 192.019791,126.940460 
z"/>
<path fill="#F5F4F5" opacity="1.000000" stroke="none" 
	d="
M195.644455,124.925209 
	C195.140091,125.661980 194.337875,126.419655 193.342041,126.782227 
	C193.881149,125.906784 194.613876,125.426453 195.644455,124.925209 
z"/>
<path fill="#F5F4F5" opacity="1.000000" stroke="none" 
	d="
M198.000031,124.999695 
	C197.535095,124.996841 197.070145,124.993988 196.256561,124.964096 
	C196.398407,124.635567 196.888931,124.334091 197.691086,124.065216 
	C198.002716,124.097809 198.000381,124.549057 198.000183,124.774529 
	C198.000000,125.000000 198.000031,124.999695 198.000031,124.999695 
z"/>
<path fill="#909692" opacity="1.000000" stroke="none" 
	d="
M259.289856,112.614304 
	C258.936859,112.472786 258.513000,112.021393 258.083679,111.232689 
	C258.458466,111.365067 258.838745,111.834755 259.289856,112.614304 
z"/>
<path fill="#181818" opacity="1.000000" stroke="none" 
	d="
M177.949402,168.180084 
	C177.115845,167.554428 176.282272,166.928757 175.186157,165.741394 
	C173.668350,164.450394 172.413132,163.721100 171.157913,162.991806 
	C169.848221,160.179565 168.338593,157.440308 167.279007,154.536789 
	C165.929794,150.839615 164.944794,147.009537 163.405701,143.118011 
	C167.315094,142.654236 171.616806,142.216019 175.929657,141.995300 
	C179.052963,141.835464 182.191025,141.964111 185.660889,141.964111 
	C187.117538,148.110291 190.822433,152.184921 196.611298,154.843567 
	C197.895721,155.433472 197.826340,158.971100 197.849457,161.576981 
	C190.841873,162.549896 184.365143,163.097321 177.704636,163.660278 
	C177.794220,165.314438 177.871811,166.747253 177.949402,168.180084 
z"/>
<path fill="#181818" opacity="1.000000" stroke="none" 
	d="
M238.903015,142.551712 
	C237.007050,148.843475 234.876175,154.760162 232.093658,160.892441 
	C230.968781,161.800079 230.495575,162.492111 230.022339,163.184143 
	C228.907089,164.430130 227.791840,165.676117 226.176041,166.762726 
	C220.214188,165.357178 214.716110,164.243378 209.324875,162.745087 
	C208.332825,162.469391 207.431763,160.727325 207.101196,159.497452 
	C206.684097,157.945633 206.895477,156.224899 206.835724,154.577026 
	C208.577881,153.525055 210.320053,152.473099 212.530045,151.633926 
	C213.624176,150.795227 214.250473,149.743729 214.876770,148.692245 
	C215.884750,146.509445 216.892715,144.326645 217.885544,142.176620 
	C224.865128,142.176620 231.766617,142.176620 238.903015,142.551712 
z"/>
<path fill="#222221" opacity="1.000000" stroke="none" 
	d="
M206.440125,154.683350 
	C206.895477,156.224899 206.684097,157.945633 207.101196,159.497452 
	C207.431763,160.727325 208.332825,162.469391 209.324875,162.745087 
	C214.716110,164.243378 220.214188,165.357178 225.881897,166.892090 
	C225.490479,168.057480 225.089645,169.361877 224.263321,169.742432 
	C218.153397,172.556335 211.958725,175.186264 205.411896,177.914948 
	C204.846039,170.751175 204.626266,163.546844 204.541290,156.340942 
	C204.535248,155.829834 205.520309,155.307037 206.440125,154.683350 
z"/>
<path fill="#1E1E1E" opacity="1.000000" stroke="none" 
	d="
M178.107758,168.472229 
	C177.871811,166.747253 177.794220,165.314438 177.704636,163.660278 
	C184.365143,163.097321 190.841873,162.549896 197.720032,162.003723 
	C198.053680,166.933533 197.985870,171.862122 197.495148,176.962341 
	C189.460983,177.360794 184.108597,172.511963 178.107758,168.472229 
z"/>
<path fill="#1E1E1E" opacity="1.000000" stroke="none" 
	d="
M164.713928,135.778320 
	C165.289429,133.109650 166.308487,130.529694 167.931305,127.952194 
	C168.535065,127.954651 169.003983,127.854988 169.003983,127.854988 
	C174.865982,130.074142 180.727982,132.293304 186.589981,134.512466 
	C186.535248,134.963989 186.480515,135.415512 186.425781,135.867035 
	C179.336349,135.867035 172.246918,135.867035 164.713928,135.778320 
z"/>
<path fill="#181818" opacity="1.000000" stroke="none" 
	d="
M212.957642,127.016060 
	C214.939255,124.535416 216.544846,124.426437 217.797928,127.676575 
	C218.773331,130.206528 219.895828,132.679779 220.982391,135.472153 
	C217.896957,136.890503 217.373337,134.485474 216.297211,131.900146 
	C215.015991,129.879074 213.986816,128.447571 212.957642,127.016060 
z"/>
<path fill="#181818" opacity="1.000000" stroke="none" 
	d="
M226.445038,135.845642 
	C229.135651,131.485764 233.708710,133.460388 238.258316,133.135498 
	C239.036697,133.889206 239.300690,134.585052 239.650955,135.499557 
	C235.458740,135.789276 231.180237,135.860352 226.445038,135.845642 
z"/>
<path fill="#F5F4F5" opacity="1.000000" stroke="none" 
	d="
M212.765839,127.006531 
	C213.986816,128.447571 215.015991,129.879074 216.049728,131.645599 
	C210.639053,131.107544 210.169281,130.629654 211.512894,126.838860 
	C212.141663,126.722496 212.373260,126.824928 212.765839,127.006531 
z"/>
<path fill="#F5F4F5" opacity="1.000000" stroke="none" 
	d="
M169.001785,127.470306 
	C169.003983,127.854988 168.535065,127.954651 168.303864,127.891342 
	C166.737000,126.809135 165.401337,125.790253 163.996216,124.452934 
	C167.633667,121.652931 168.840500,123.468773 169.001785,127.470306 
z"/>
<path fill="#222221" opacity="1.000000" stroke="none" 
	d="
M214.627472,148.819778 
	C214.250473,149.743729 213.624176,150.795227 212.851379,151.499954 
	C213.262634,150.417892 213.820404,149.682602 214.627472,148.819778 
z"/>
<path fill="#F5F4F5" opacity="1.000000" stroke="none" 
	d="
M197.999695,125.000153 
	C198.652191,125.035027 199.304993,125.069748 199.957794,125.104469 
	C199.955429,125.263405 199.953079,125.422340 199.950714,125.581276 
	C199.413116,125.544685 198.875534,125.508095 198.168976,125.235596 
	C198.000031,124.999695 198.000000,125.000000 197.999695,125.000153 
z"/>
<path fill="#1E1E1E" opacity="1.000000" stroke="none" 
	d="
M171.187256,163.313828 
	C172.413132,163.721100 173.668350,164.450394 174.963837,165.515442 
	C173.741592,165.112778 172.479095,164.374313 171.187256,163.313828 
z"/>
<path fill="#222221" opacity="1.000000" stroke="none" 
	d="
M230.373169,163.129044 
	C230.495575,162.492111 230.968781,161.800079 231.790085,161.082672 
	C231.666779,161.729507 231.195389,162.401733 230.373169,163.129044 
z"/>
<path fill="#181818" opacity="1.000000" stroke="none" 
	d="
M238.411652,129.770050 
	C237.559555,128.241226 236.808304,126.335747 236.099915,124.040451 
	C236.932678,125.564888 237.722595,127.479149 238.411652,129.770050 
z"/>
<path fill="#181818" opacity="1.000000" stroke="none" 
	d="
M239.036514,130.577759 
	C238.882812,130.485245 238.919067,130.510513 238.897949,130.522308 
	C238.981277,130.579498 239.085754,130.624893 239.036514,130.577759 
z"/>
</svg>