<?xml version="1.0" standalone="no"?>
<!DOCTYPE svg PUBLIC "-//W3C//DTD SVG 20010904//EN"
 "http://www.w3.org/TR/2001/REC-SVG-20010904/DTD/svg10.dtd">
<svg version="1.0" xmlns="http://www.w3.org/2000/svg"
 width="900.000000pt" height="981.000000pt" viewBox="0 0 900.000000 981.000000"
 preserveAspectRatio="xMidYMid meet">

<g transform="translate(0.000000,981.000000) scale(0.100000,-0.100000)"
fill="#000000" stroke="none">
<path d="M3515 9803 c-568 -35 -1144 -267 -1680 -678 -399 -307 -757 -686
-1200 -1275 -155 -205 -248 -294 -430 -413 -170 -110 -115 -356 86 -383 62 -8
133 22 249 104 144 102 277 241 452 472 86 113 204 264 263 335 793 968 1630
1448 2485 1422 911 -27 1661 -577 2131 -1562 147 -309 258 -624 365 -1035 18
-69 45 -139 80 -205 69 -131 127 -270 179 -430 48 -145 69 -172 150 -195 198
-55 344 180 210 337 -18 21 -41 56 -52 78 -27 53 -86 227 -117 345 -128 490
-165 616 -253 854 -286 775 -725 1390 -1253 1760 -485 340 -1073 506 -1665
469z"/>
<path d="M3830 8881 c-426 -92 -802 -279 -1200 -598 -184 -147 -465 -430 -650
-653 -256 -308 -563 -607 -770 -749 -180 -124 -657 -384 -800 -436 -41 -15
-88 -32 -104 -38 -75 -28 -127 -106 -127 -192 0 -117 87 -205 205 -205 96 0
316 96 644 282 l203 115 58 119 c306 625 844 1122 1501 1387 60 24 118 59 197
118 342 258 673 408 1019 463 92 14 156 39 185 72 78 88 61 232 -34 308 -35
28 -47 31 -115 33 -55 2 -116 -6 -212 -26z"/>
<path d="M4720 7957 c156 -54 244 -92 387 -167 125 -64 136 -64 35 3 -124 83
-261 144 -390 176 -145 36 -157 31 -32 -12z"/>
<path d="M3493 7955 c-451 -57 -931 -259 -1285 -542 -541 -432 -888 -1055
-969 -1743 -7 -58 -12 -190 -12 -295 0 -425 88 -791 282 -1172 398 -784 1175
-1315 2054 -1403 151 -16 496 -8 637 15 144 22 327 68 467 116 131 45 364 154
479 224 41 25 76 45 77 45 1 0 652 -650 1447 -1445 795 -795 1466 -1459 1491
-1475 183 -119 428 -97 585 52 66 63 106 124 134 208 19 55 21 80 17 165 -5
110 -25 174 -79 254 -17 25 -673 689 -1457 1474 -784 785 -1427 1432 -1429
1436 -2 5 24 51 58 101 394 602 518 1344 340 2050 -87 345 -272 714 -501 997
-91 112 -278 297 -395 390 -356 282 -735 451 -1199 534 -157 28 -569 36 -742
14z m478 -495 c257 -21 511 -87 732 -193 l109 -51 -39 -17 c-98 -42 -146 -182
-112 -329 24 -105 105 -169 197 -156 105 14 165 99 166 235 1 42 -2 91 -6 109
l-8 34 68 -53 c118 -92 203 -171 295 -274 82 -92 226 -291 216 -298 -2 -2 -16
-8 -31 -15 -29 -12 -34 -27 -19 -50 6 -11 15 -10 45 5 32 15 38 15 46 3 6 -8
10 -102 10 -207 l0 -193 38 0 37 0 -2 117 -2 118 24 -50 c25 -50 97 -263 109
-321 l7 -31 -50 -5 c-64 -6 -111 -41 -142 -105 -20 -39 -24 -64 -24 -138 0
-77 4 -98 27 -147 40 -85 117 -123 204 -99 l37 10 -7 -112 c-4 -62 -11 -132
-15 -157 l-8 -45 -2 58 c-1 55 -2 57 -29 57 -15 0 -57 -15 -94 -32 -60 -30
-65 -35 -57 -56 l9 -23 39 21 c22 11 45 20 51 20 6 0 10 -62 10 -180 l0 -180
-36 -93 c-54 -137 -82 -187 -129 -232 -33 -32 -45 -55 -60 -107 -17 -65 -78
-157 -179 -273 l-35 -40 -1 228 0 227 -35 0 c-42 0 -145 -44 -145 -62 1 -33
15 -37 59 -17 24 10 45 19 47 19 2 0 4 -94 4 -210 l0 -210 23 0 c18 -1 4 -18
-74 -93 -111 -107 -217 -187 -361 -274 l-103 -62 -7 64 c-7 73 -38 137 -80
168 -18 14 -49 22 -87 25 -85 6 -139 -26 -177 -105 -24 -48 -28 -69 -28 -137
1 -51 7 -95 17 -118 l16 -37 -32 -10 c-46 -15 -159 -41 -179 -41 -16 0 -18 19
-20 223 l-3 222 -25 3 c-14 2 -56 -11 -93 -28 -61 -27 -67 -33 -61 -53 9 -31
8 -31 53 -8 22 12 43 21 46 21 3 0 5 -89 5 -199 l0 -198 -42 -7 c-24 -4 -107
-9 -185 -13 l-143 -6 0 242 0 241 -34 0 c-18 0 -59 -12 -90 -26 -49 -22 -56
-29 -50 -47 9 -31 8 -31 53 -8 22 12 43 21 46 21 3 0 5 -94 5 -208 l0 -208
-77 8 c-114 11 -215 29 -210 36 42 80 50 111 50 197 0 105 -20 164 -72 208
-40 33 -68 41 -132 35 -114 -11 -175 -110 -167 -270 2 -63 0 -77 -10 -73 -8 3
-25 8 -38 11 -23 6 -24 10 -24 89 0 45 -5 97 -11 116 -16 47 -54 96 -89 114
-37 19 -123 19 -158 1 -35 -18 -78 -64 -89 -94 -9 -23 -11 -22 -99 46 -49 38
-128 106 -176 151 l-87 82 38 38 c52 52 66 97 66 211 0 79 -4 103 -23 142 -32
64 -72 91 -142 96 -79 6 -130 -21 -169 -90 l-29 -51 -76 154 c-97 198 -97 200
-48 220 43 18 83 65 101 118 16 49 14 190 -4 242 -17 49 -47 84 -87 105 -31
16 -121 19 -147 4 -16 -8 -19 -4 -25 28 -3 20 -6 111 -6 202 0 257 25 390 72
390 4 0 8 -94 8 -210 l0 -210 40 0 40 0 -2 243 -3 242 -27 3 c-15 2 -40 -4
-57 -13 -17 -8 -31 -11 -31 -6 0 26 73 258 108 340 l39 94 7 -53 c9 -65 40
-134 74 -160 88 -70 222 -37 273 67 20 40 23 64 24 148 0 85 -3 107 -23 147
-35 70 -72 93 -153 93 -61 0 -66 2 -58 18 24 44 169 226 242 303 77 82 273
254 290 254 4 0 7 -79 7 -175 l0 -175 35 0 35 0 0 204 0 204 78 46 c270 158
596 263 884 284 177 13 191 13 329 2z m931 -327 c33 -35 48 -90 48 -173 0
-121 -34 -186 -102 -197 -33 -5 -41 -2 -72 29 -25 25 -37 48 -46 93 -20 98 6
227 53 260 35 25 89 19 119 -12z m-2730 -694 c36 -19 58 -86 58 -178 0 -103
-15 -155 -53 -187 -56 -48 -131 -16 -156 67 -15 50 -16 170 -2 218 16 52 58
91 99 91 18 0 42 -5 54 -11z m3686 -666 c11 -21 28 -142 38 -258 5 -72 4 -82
-14 -98 -11 -10 -36 -20 -55 -24 -32 -5 -41 -1 -71 29 -75 75 -71 290 7 350
29 23 84 23 95 1z m-3970 -679 c44 -30 57 -71 57 -179 0 -114 -18 -166 -66
-191 -28 -14 -30 -14 -40 13 -17 44 -47 161 -65 252 l-17 85 23 18 c27 22 78
23 108 2z m374 -705 c36 -19 62 -95 62 -184 0 -91 -14 -142 -47 -174 l-23 -21
-21 22 c-71 79 -133 172 -133 202 0 118 83 197 162 155z m606 -665 c35 -24 53
-71 59 -152 l6 -75 -102 53 c-56 30 -106 59 -112 66 -15 18 -1 60 31 94 32 34
81 40 118 14z m454 -9 c33 -32 48 -87 48 -171 0 -79 -13 -133 -38 -162 l-17
-21 -75 22 -75 22 -13 50 c-24 93 3 236 51 270 34 24 90 19 119 -10z m1328 -3
c29 -30 50 -101 50 -173 0 -39 -2 -41 -52 -64 -29 -13 -76 -33 -105 -44 l-52
-20 -11 37 c-25 92 -1 234 47 271 38 30 88 27 123 -7z"/>
<path d="M2992 7193 c-46 -22 -79 -65 -97 -125 -30 -101 -12 -235 41 -297 34
-41 102 -65 156 -57 109 18 163 100 163 251 0 78 -4 97 -27 146 -20 40 -38 61
-67 77 -47 26 -121 29 -169 5z m142 -59 c34 -35 46 -81 46 -179 -1 -120 -32
-180 -102 -191 -27 -5 -41 -1 -65 20 -39 33 -55 81 -57 165 -1 93 10 136 46
176 39 45 92 49 132 9z"/>
<path d="M4325 7196 c-76 -34 -115 -114 -115 -236 0 -93 19 -153 63 -198 90
-93 248 -52 291 75 19 55 21 194 5 244 -17 51 -57 99 -95 115 -42 17 -110 17
-149 0z m139 -67 c34 -41 41 -68 41 -169 0 -63 -5 -97 -19 -129 -41 -90 -134
-94 -178 -7 -46 90 -30 270 28 315 41 33 96 28 128 -10z"/>
<path d="M3432 7172 c-43 -22 -51 -30 -46 -47 9 -29 8 -28 53 -6 22 12 43 21
46 21 3 0 5 -94 5 -210 l0 -210 40 0 40 0 0 240 0 240 -42 -1 c-26 0 -65 -11
-96 -27z"/>
<path d="M3875 7172 c-41 -22 -50 -31 -47 -49 4 -28 3 -28 52 -3 22 11 44 20
50 20 7 0 10 -65 8 -210 l-3 -210 38 0 37 0 0 240 0 240 -42 0 c-27 -1 -62
-11 -93 -28z"/>
<path d="M3375 6486 c-76 -34 -115 -114 -115 -236 0 -89 19 -152 58 -194 94
-100 249 -62 297 73 18 52 20 193 4 242 -17 51 -57 99 -95 115 -42 17 -110 17
-149 0z m123 -52 c35 -24 53 -70 59 -149 10 -126 -25 -216 -88 -230 -45 -10
-87 12 -112 59 -31 60 -31 213 1 273 12 23 30 47 39 52 27 15 76 13 101 -5z"/>
<path d="M4247 6479 c-129 -68 -144 -352 -23 -444 74 -56 192 -38 246 37 69
95 64 298 -11 377 -49 52 -144 66 -212 30z m135 -40 c36 -19 58 -86 58 -178 0
-103 -15 -155 -53 -187 -56 -48 -131 -16 -156 67 -29 98 -10 232 41 286 24 25
75 31 110 12z"/>
<path d="M5150 6489 c-32 -13 -78 -57 -95 -90 -41 -78 -36 -237 10 -316 59
-100 202 -111 279 -21 44 51 60 119 54 224 -8 138 -62 205 -167 211 -31 2 -67
-2 -81 -8z m130 -67 c75 -76 59 -322 -25 -360 -64 -29 -116 0 -140 80 -31 104
-10 247 42 287 38 31 88 27 123 -7z"/>
<path d="M2482 6462 c-43 -22 -51 -30 -46 -47 9 -29 8 -28 53 -6 22 12 44 21
48 21 4 0 7 -94 5 -210 l-3 -210 41 0 40 0 0 240 0 240 -42 -1 c-26 0 -65 -11
-96 -27z"/>
<path d="M2929 6464 c-49 -22 -55 -28 -51 -50 2 -13 6 -24 7 -24 2 0 24 9 50
20 26 11 49 20 51 20 2 0 4 -94 4 -210 l0 -210 35 0 35 0 0 240 0 240 -37 0
c-21 0 -63 -12 -94 -26z"/>
<path d="M3813 6464 c-53 -25 -61 -37 -44 -62 7 -11 16 -10 49 7 23 12 44 21
47 21 3 0 5 -94 5 -210 l0 -210 35 0 35 0 0 240 0 240 -37 -1 c-21 0 -62 -12
-90 -25z"/>
<path d="M4697 6463 c-49 -22 -56 -29 -51 -47 9 -30 8 -30 53 -7 22 12 44 21
48 21 4 0 7 -94 5 -210 l-3 -210 41 0 40 0 0 240 0 240 -37 0 c-21 0 -64 -12
-96 -27z"/>
<path d="M2198 5820 c-71 -38 -103 -110 -103 -230 0 -74 4 -92 30 -145 24 -49
38 -64 75 -82 113 -58 227 4 261 140 28 113 -8 262 -74 309 -44 31 -138 36
-189 8z m134 -41 c35 -19 60 -92 60 -177 0 -101 -15 -154 -53 -186 -88 -74
-169 9 -169 174 0 94 21 155 61 184 27 18 71 21 101 5z"/>
<path d="M2635 5816 c-139 -85 -133 -387 8 -455 56 -27 102 -27 157 2 82 41
115 119 108 257 -3 67 -9 95 -28 129 -36 64 -69 84 -143 89 -52 2 -68 -1 -102
-22z m155 -54 c74 -75 59 -316 -22 -358 -36 -19 -88 -12 -111 14 -66 73 -60
297 10 351 38 31 88 27 123 -7z"/>
<path d="M3972 5823 c-90 -44 -133 -182 -101 -323 24 -105 105 -169 197 -156
112 15 167 98 167 251 0 78 -4 97 -27 146 -20 40 -38 61 -67 77 -47 26 -121
29 -169 5z m133 -49 c37 -24 55 -83 55 -182 0 -63 -6 -98 -19 -128 -34 -75
-95 -95 -148 -50 -37 31 -55 89 -55 176 0 37 6 86 13 109 23 77 96 113 154 75z"/>
<path d="M4845 5816 c-139 -85 -133 -387 8 -455 56 -27 102 -27 157 2 82 41
115 119 108 257 -3 67 -9 95 -28 129 -36 64 -69 84 -143 89 -52 2 -68 -1 -102
-22z m155 -54 c75 -76 59 -322 -25 -360 -64 -29 -116 0 -140 80 -31 104 -10
247 42 287 38 31 88 27 123 -7z"/>
<path d="M3088 5802 c-50 -24 -55 -29 -47 -49 l8 -23 46 20 c26 11 49 20 51
20 2 0 4 -94 4 -210 l0 -210 35 0 35 0 0 240 0 240 -37 0 c-21 0 -63 -12 -95
-28z"/>
<path d="M3533 5804 c-52 -23 -61 -36 -44 -62 7 -11 16 -10 49 7 23 12 44 21
47 21 3 0 5 -94 5 -210 l0 -210 35 0 35 0 0 240 0 240 -37 -1 c-21 0 -62 -11
-90 -25z"/>
<path d="M4412 5802 c-43 -22 -51 -30 -46 -47 9 -29 8 -28 53 -6 22 12 44 21
48 21 4 0 7 -94 5 -210 l-3 -210 41 0 40 0 0 240 0 240 -42 -1 c-26 0 -65 -11
-96 -27z"/>
<path d="M5298 5802 c-51 -24 -55 -29 -47 -50 8 -22 9 -22 46 -6 21 9 44 18
51 21 9 4 12 -41 12 -206 l0 -211 35 0 35 0 0 240 0 240 -37 0 c-21 -1 -63
-13 -95 -28z"/>
<path d="M3515 5138 c-28 -17 -48 -40 -70 -82 -27 -53 -30 -69 -30 -146 1 -73
5 -95 28 -143 45 -92 131 -127 222 -93 89 34 131 127 123 270 -8 142 -61 208
-173 214 -48 2 -68 -2 -100 -20z m144 -44 c30 -22 48 -66 56 -140 11 -90 -9
-170 -51 -212 -31 -31 -39 -34 -72 -29 -68 11 -102 76 -102 197 0 85 15 137
50 172 33 33 82 37 119 12z"/>
<path d="M4049 5150 c-25 -4 -66 -18 -91 -31 -41 -21 -45 -27 -37 -47 8 -21
10 -22 36 -9 16 8 38 18 51 21 l22 7 0 -210 0 -211 35 0 35 0 0 245 c0 135 -1
244 -2 244 -2 -1 -24 -5 -49 -9z"/>
<path d="M4852 5143 c-70 -34 -112 -122 -112 -233 0 -159 91 -265 212 -246
109 18 163 100 163 251 0 78 -4 97 -27 146 -20 40 -38 61 -67 77 -47 26 -121
29 -169 5z m142 -59 c33 -34 46 -81 46 -169 0 -125 -33 -191 -101 -201 -28 -5
-41 -1 -66 20 -42 35 -57 84 -56 181 1 126 41 195 114 195 26 0 44 -7 63 -26z"/>
<path d="M5288 5140 c-71 -38 -103 -110 -103 -230 0 -74 4 -92 30 -145 24 -49
38 -64 75 -82 113 -58 227 4 261 140 28 113 -8 262 -74 309 -44 31 -138 36
-189 8z m134 -41 c35 -19 60 -92 60 -178 0 -99 -17 -155 -56 -188 -24 -20 -37
-24 -64 -19 -43 7 -61 22 -83 71 -26 56 -26 194 0 251 30 66 88 92 143 63z"/>
<path d="M2203 5125 c-51 -23 -61 -37 -45 -62 6 -9 18 -7 51 8 24 10 45 19 47
19 2 0 4 -94 4 -210 l0 -210 35 0 35 0 0 240 0 240 -37 -1 c-21 0 -62 -11 -90
-24z"/>
<path d="M2643 5124 c-52 -23 -61 -36 -44 -62 7 -11 16 -10 49 7 23 12 44 21
47 21 3 0 5 -94 5 -210 l0 -210 35 0 35 0 0 240 0 240 -37 -1 c-21 0 -62 -11
-90 -25z"/>
<path d="M3082 5122 c-43 -22 -51 -30 -46 -47 9 -29 8 -28 53 -6 22 12 43 21
46 21 3 0 5 -94 5 -210 l0 -210 40 0 40 0 0 240 0 240 -42 -1 c-26 0 -65 -11
-96 -27z"/>
<path d="M4413 5125 c-51 -23 -61 -37 -45 -62 6 -9 18 -7 51 8 24 10 45 19 47
19 2 0 4 -94 4 -210 l0 -210 35 0 35 0 0 240 0 240 -37 -1 c-21 0 -62 -11 -90
-24z"/>
<path d="M2563 4425 c-62 -38 -97 -114 -97 -214 0 -105 17 -157 68 -207 86
-86 219 -62 279 49 19 36 22 57 22 152 0 99 -3 114 -25 154 -36 64 -69 84
-143 89 -53 2 -68 -1 -104 -23z m157 -53 c68 -68 65 -269 -5 -339 -36 -36 -61
-41 -104 -18 -61 31 -90 176 -57 288 28 96 106 128 166 69z"/>
<path d="M3902 4433 c-70 -34 -112 -122 -112 -233 0 -124 54 -217 139 -240 91
-24 165 11 208 98 25 51 28 67 27 152 0 97 -12 139 -51 186 -43 52 -144 70
-211 37z m130 -44 c36 -19 58 -86 58 -178 0 -137 -29 -196 -102 -207 -73 -12
-120 67 -119 200 0 88 13 131 48 168 29 30 77 37 115 17z"/>
<path d="M4795 4437 c-43 -20 -92 -80 -106 -129 -16 -61 -14 -169 6 -227 52
-157 250 -174 328 -28 19 36 22 57 22 152 0 99 -3 114 -25 154 -14 24 -37 53
-52 64 -35 26 -130 33 -173 14z m135 -65 c54 -54 65 -224 20 -312 -33 -65
-106 -77 -155 -24 -65 70 -58 289 12 344 38 30 88 26 123 -8z"/>
<path d="M3023 4415 c-38 -17 -53 -30 -53 -44 0 -30 11 -32 59 -10 24 10 45
19 47 19 2 0 4 -94 4 -210 l0 -210 35 0 35 0 0 240 0 240 -37 0 c-21 0 -62
-11 -90 -25z"/>
<path d="M3463 4414 c-52 -23 -61 -36 -44 -62 7 -11 16 -10 49 7 23 12 44 21
47 21 3 0 5 -94 5 -210 l0 -210 35 0 35 0 0 240 0 240 -37 -1 c-21 0 -62 -11
-90 -25z"/>
<path d="M4342 4412 c-43 -22 -51 -30 -46 -47 9 -29 8 -28 53 -6 22 12 44 21
48 21 4 0 7 -94 5 -210 l-3 -210 41 0 40 0 0 240 0 240 -42 -1 c-26 0 -65 -11
-96 -27z"/>
<path d="M835 5519 c-160 -69 -466 -179 -583 -209 -52 -13 -106 -59 -134 -113
-16 -32 -19 -54 -16 -102 4 -73 31 -120 91 -159 67 -43 110 -43 253 -2 118 34
412 140 515 185 l46 21 -4 87 c-3 49 0 151 5 228 6 77 10 140 9 141 -1 0 -83
-34 -182 -77z"/>
<path d="M6605 4888 c-2 -7 -9 -47 -16 -88 -6 -41 -25 -126 -40 -189 -16 -63
-28 -115 -26 -117 2 -2 30 -15 62 -30 177 -78 340 20 323 196 -9 94 -30 118
-158 182 -122 60 -138 65 -145 46z"/>
<path d="M985 4448 c-129 -58 -388 -162 -544 -218 -128 -45 -159 -66 -192
-123 -29 -51 -32 -145 -7 -192 22 -41 62 -80 102 -99 64 -30 123 -21 309 48
314 117 610 244 603 260 -41 95 -89 219 -112 289 -15 48 -33 87 -39 86 -5 -1
-59 -23 -120 -51z"/>
<path d="M6380 3636 c136 -137 156 -154 164 -137 13 29 -2 105 -27 142 -37 55
-57 65 -272 144 -11 4 50 -63 135 -149z"/>
<path d="M1445 3529 c-164 -90 -582 -298 -730 -364 -137 -60 -175 -87 -206
-147 -55 -108 13 -256 133 -289 63 -16 102 -7 245 56 219 98 927 460 962 491
2 2 -39 48 -92 103 -53 55 -115 125 -138 156 -23 30 -46 55 -53 55 -6 -1 -60
-28 -121 -61z"/>
<path d="M2270 2799 c-543 -361 -944 -593 -1121 -649 -170 -54 -234 -204 -142
-333 34 -48 88 -79 152 -85 116 -11 435 143 902 436 276 172 749 483 749 491
0 4 -18 13 -39 20 -22 6 -117 51 -213 99 -95 48 -175 88 -178 89 -3 0 -52 -30
-110 -68z"/>
<path d="M5113 2795 l-63 -34 158 -109 c149 -103 330 -221 417 -272 26 -15
-42 59 -195 214 -129 130 -239 236 -245 235 -5 0 -38 -16 -72 -34z"/>
<path d="M3730 2432 c-220 -73 -582 -298 -1251 -778 -503 -360 -702 -509 -725
-544 -105 -158 57 -369 237 -309 35 12 78 42 629 440 534 385 890 622 1085
724 151 80 159 81 252 50 106 -36 315 -146 573 -302 118 -72 312 -189 430
-260 244 -148 432 -250 535 -288 93 -36 166 -32 227 11 126 89 114 284 -22
351 -25 12 -99 48 -165 80 -66 32 -223 120 -350 197 -126 76 -333 202 -460
278 -256 156 -516 289 -645 332 -113 37 -268 45 -350 18z"/>
<path d="M3690 1133 c-100 -16 -252 -87 -400 -186 -175 -117 -540 -434 -673
-584 -51 -58 -62 -95 -55 -174 13 -129 151 -211 274 -164 34 13 85 55 196 162
254 244 496 435 640 503 160 76 252 34 883 -410 219 -154 239 -164 317 -157
146 13 230 159 169 293 -22 48 -25 51 -271 223 -449 316 -606 411 -759 460
-110 36 -233 49 -321 34z"/>
</g>
</svg>
