<svg version="1.1" id="Layer_1" xmlns="http://www.w3.org/2000/svg" xmlns:xlink="http://www.w3.org/1999/xlink" x="0px" y="0px"
	 width="100%" viewBox="0 0 752 416" enable-background="new 0 0 752 416" xml:space="preserve">
<path fill="#000000" opacity="1.000000" stroke="none" 
	d="
M278.337982,193.000092 
	C278.337799,211.830704 278.450867,230.162552 278.252106,248.490997 
	C278.206207,252.724442 279.695343,253.906906 283.735260,253.896835 
	C331.894501,253.776749 380.054230,253.726440 428.213257,253.859634 
	C433.003540,253.872894 434.309509,252.127533 434.071136,247.717941 
	C433.810822,242.901260 434.208496,238.052170 434.056488,233.225479 
	C433.932495,229.287201 435.204102,227.243484 439.501709,227.677872 
	C441.975342,227.927902 444.514038,227.517670 446.991913,227.746292 
	C451.269135,228.140961 453.035797,226.575684 452.845764,222.106659 
	C452.570007,215.620148 452.920319,209.109360 452.776794,202.613937 
	C452.700043,199.141327 454.175079,197.765686 457.520721,197.864044 
	C460.350433,197.947235 463.208038,197.608185 466.013245,197.875977 
	C470.351410,198.290100 471.813538,196.723892 471.745422,192.261261 
	C471.503876,176.433990 471.820709,160.597946 471.555939,144.771423 
	C471.474091,139.878342 473.128510,138.092194 477.871887,138.674820 
	C479.841431,138.916748 481.867950,138.653839 483.865631,138.715271 
	C489.125458,138.877014 493.056183,141.919205 494.328979,147.044205 
	C494.844879,149.121445 495.080658,151.320831 495.083313,153.465088 
	C495.127106,188.793060 495.123779,224.121094 495.103119,259.449127 
	C495.099243,266.115509 494.953430,266.235443 488.447937,266.237152 
	C417.958435,266.255798 347.468903,266.268311 276.979401,266.271545 
	C269.959137,266.271881 269.893036,266.193665 269.890900,259.411530 
	C269.879761,224.250092 269.888885,189.088654 269.857544,153.927246 
	C269.855133,151.238403 269.945496,148.567474 270.897797,146.049927 
	C272.578644,141.606140 275.739349,138.886246 280.612122,138.716431 
	C284.772797,138.571442 288.944855,138.778397 293.108368,138.680420 
	C296.119171,138.609589 297.094238,140.003769 297.276489,142.898499 
	C297.995636,154.322174 298.073242,154.317108 286.813141,154.290222 
	C285.480011,154.287048 284.137299,154.389648 282.815643,154.265823 
	C279.244659,153.931244 278.241364,155.648972 278.283661,159.007416 
	C278.424225,170.170090 278.337433,181.335648 278.337982,193.000092 
M456.827728,243.417725 
	C453.577362,244.081406 452.668152,242.312271 452.753998,239.502213 
	C452.825745,237.154633 451.620758,236.296646 449.354279,236.332672 
	C446.855621,236.372421 446.299133,237.796112 446.346039,239.902344 
	C446.390381,241.892792 446.450684,243.891769 446.321503,245.875107 
	C446.123718,248.911362 447.559631,250.221390 450.456238,249.962357 
	C454.867249,249.567886 458.125244,250.834808 461.199310,254.481857 
	C465.184845,259.210297 472.029968,258.604187 476.166199,254.069122 
	C479.994354,249.871826 479.748993,243.092163 475.629456,239.239365 
	C471.278503,235.170135 464.503906,235.415955 460.439880,239.813232 
	C459.433716,240.901917 458.497803,242.055573 456.827728,243.417725 
M481.430450,226.110962 
	C487.480469,220.959290 488.274109,214.504852 483.442657,209.746048 
	C478.469940,204.848114 471.757019,205.424545 466.991577,211.302963 
	C465.897827,212.652176 464.801239,213.731812 463.116577,214.218338 
	C461.206940,214.769821 461.368469,216.387070 461.362518,217.892578 
	C461.356415,219.439636 461.995636,220.485428 463.633209,220.598434 
	C465.360138,220.717606 466.144470,221.983353 467.113098,223.137604 
	C471.211304,228.021011 474.395630,228.776535 481.430450,226.110962 
z"/>
<path fill="#000000" opacity="1.000000" stroke="none" 
	d="
M427.989563,240.847198 
	C428.655548,246.222168 426.389679,247.478165 421.690460,247.461258 
	C378.232605,247.304932 334.773712,247.299652 291.315887,247.455521 
	C286.393433,247.473190 284.638489,246.181137 284.715271,241.004837 
	C285.006805,221.361115 285.000153,201.709015 284.763641,182.064163 
	C284.702240,176.965378 286.393524,175.561218 291.379333,175.580231 
	C334.837097,175.745911 378.296112,175.742813 421.753815,175.567856 
	C426.691223,175.547989 428.041290,177.301971 428.006256,181.925262 
	C427.858643,201.405212 427.970001,220.887131 427.989563,240.847198 
M330.888794,229.967209 
	C331.872437,227.986328 333.988831,227.560974 335.659485,226.551163 
	C343.211121,221.986679 346.076202,215.144196 343.956635,206.543640 
	C341.596710,196.968002 333.380219,189.578491 323.697601,188.323669 
	C311.975067,186.804474 301.607544,191.361298 296.602081,200.234711 
	C290.140228,211.690018 293.703156,222.846100 304.311096,227.572296 
	C305.494019,228.099365 307.219116,228.644638 307.155884,230.086243 
	C306.865845,236.695465 311.227936,235.318832 315.166199,235.104721 
	C318.819489,234.906082 322.494110,234.934280 326.152985,235.055466 
	C329.246613,235.157959 330.933868,234.037231 330.888794,229.967209 
M416.613068,190.631927 
	C419.526642,190.570908 419.690521,188.651062 419.409607,186.461121 
	C419.106659,184.099075 417.257324,184.267197 415.605713,184.238159 
	C412.773315,184.188339 409.939636,184.209793 407.106476,184.208344 
	C390.774017,184.199951 374.441528,184.171997 358.109131,184.201584 
	C353.947968,184.209122 352.196503,186.106033 353.479492,189.002106 
	C354.478882,191.257965 356.571899,190.623962 358.289520,190.628052 
	C377.455048,190.673798 396.620728,190.656067 416.613068,190.631927 
M381.500000,214.113785 
	C373.676697,214.109589 365.853424,214.104340 358.030121,214.101837 
	C355.624695,214.101059 353.208801,213.969833 353.285156,217.539505 
	C353.356110,220.855804 355.658325,220.617706 357.840332,220.617981 
	C372.987488,220.619904 388.134644,220.604263 403.281799,220.599182 
	C405.517365,220.598434 407.753601,220.715271 407.825806,217.475769 
	C407.896790,214.291367 405.770294,214.121857 403.472961,214.119003 
	C396.481964,214.110291 389.490997,214.113556 381.500000,214.113785 
M361.613983,205.658691 
	C366.930878,205.659012 372.247772,205.666122 377.564667,205.656250 
	C379.607697,205.652451 381.649628,205.752411 381.755127,202.761856 
	C381.861298,199.752808 380.167328,199.148209 377.658264,199.169724 
	C372.009521,199.218201 366.343811,198.924561 360.718048,199.285309 
	C358.103271,199.452972 353.484741,197.075439 353.447937,202.403793 
	C353.410553,207.819305 358.110291,204.806381 361.613983,205.658691 
M404.500305,199.167053 
	C401.010162,199.180908 397.520020,199.189835 394.029907,199.210526 
	C392.044647,199.222290 390.389923,199.559647 390.344391,202.140121 
	C390.297852,204.777512 391.679993,205.641739 394.068146,205.634109 
	C401.214630,205.611237 408.361298,205.614014 415.507782,205.640656 
	C417.709412,205.648849 418.982971,204.777512 418.973236,202.432434 
	C418.963501,200.077271 417.609131,199.226746 415.463348,199.217484 
	C412.139587,199.203125 408.815826,199.184280 404.500305,199.167053 
M360.470093,233.024368 
	C361.236786,235.475082 363.179535,235.747894 365.180450,235.211197 
	C366.950867,234.736313 366.891113,233.021484 366.790100,231.528839 
	C366.684875,229.973679 365.745789,229.214447 364.225342,229.138596 
	C361.998566,229.027481 360.274445,229.536316 360.470093,233.024368 
M396.682678,231.523331 
	C396.196686,228.570984 393.983734,229.085571 392.077911,229.389038 
	C390.399658,229.656265 390.369141,231.127121 390.385925,232.498901 
	C390.409058,234.391434 391.637390,235.072067 393.237335,235.283020 
	C395.485687,235.579529 396.678223,234.562515 396.682678,231.523331 
M378.974030,235.095032 
	C381.352600,234.853973 381.964478,233.367752 381.652313,231.259033 
	C381.360840,229.290466 379.901123,229.106155 378.324005,229.131607 
	C376.628448,229.158951 375.473022,229.757095 375.383240,231.691498 
	C375.286774,233.769714 375.651459,235.376663 378.974030,235.095032 
M411.670532,232.221130 
	C411.796967,229.841019 410.535828,229.006088 408.316772,229.119003 
	C406.629486,229.204849 405.440002,229.751923 405.400269,231.675247 
	C405.372406,233.025558 405.347717,234.473450 406.938446,234.935257 
	C408.951477,235.519623 410.916412,235.614700 411.670532,232.221130 
z"/>
<path fill="#000000" opacity="1.000000" stroke="none" 
	d="
M473.974182,296.138367 
	C411.340149,296.147766 349.200256,295.985229 287.062561,296.279083 
	C269.947662,296.359985 269.325531,286.794861 269.962891,275.896057 
	C270.096466,273.612274 271.309235,272.646667 273.517700,272.691437 
	C274.849457,272.718445 276.182709,272.661896 277.515289,272.661926 
	C347.650848,272.662170 417.786407,272.663025 487.921967,272.668671 
	C495.146362,272.669250 495.146332,272.682983 495.122894,279.843903 
	C495.083038,292.017609 490.990906,296.146790 478.967316,296.144684 
	C477.467926,296.144409 475.968567,296.140747 473.974182,296.138367 
M379.354492,283.706726 
	C379.321564,285.583466 379.226501,287.512085 381.901306,287.607269 
	C383.431274,287.661774 385.044556,287.645630 385.441559,285.741547 
	C385.736664,284.325958 386.197906,282.438812 384.554749,281.747070 
	C382.819855,281.016693 380.647949,280.456635 379.354492,283.706726 
z"/>
<path fill="#000000" opacity="1.000000" stroke="none" 
	d="
M419.904053,333.279938 
	C393.752991,333.283997 368.090271,333.224030 342.428528,333.354034 
	C338.261200,333.375153 336.537323,331.966675 337.164337,327.791077 
	C337.456635,325.844330 338.378815,324.474091 340.382446,324.828888 
	C347.838989,326.149261 350.275269,320.987091 352.578918,315.619354 
	C353.299500,313.940338 353.971802,312.221649 354.455261,310.463135 
	C356.605499,302.641602 356.577820,302.634125 364.875092,302.639832 
	C377.872925,302.648743 390.871796,302.750336 403.867920,302.605377 
	C407.413147,302.565826 409.299896,303.373474 409.828156,307.315125 
	C410.376312,311.405457 411.881012,315.342865 413.851410,319.071686 
	C415.881073,322.912567 418.368652,325.557068 423.222229,324.768219 
	C425.972931,324.321136 427.589966,325.325348 427.470184,328.597595 
	C427.364380,331.488342 426.941589,333.580658 423.390747,333.268402 
	C422.399384,333.181213 421.392487,333.270660 419.904053,333.279938 
z"/>
<path fill="#000000" opacity="1.000000" stroke="none" 
	d="
M381.000000,115.857697 
	C407.159790,115.852997 432.819611,115.843376 458.479401,115.846817 
	C464.934235,115.847687 465.225037,116.112099 465.228577,122.631508 
	C465.239990,143.625870 465.058289,164.622131 465.310638,185.613342 
	C465.374359,190.914825 462.993622,191.446259 458.662720,191.490295 
	C454.079834,191.536880 452.646088,189.993301 452.700714,185.413727 
	C452.921265,166.921326 452.672699,148.423416 452.878632,129.930679 
	C452.927521,125.539207 451.554718,124.224304 447.172211,124.240578 
	C408.016479,124.385994 368.860016,124.324364 329.703766,124.323700 
	C327.566895,124.323662 325.430023,124.323700 323.435272,124.323700 
	C321.535614,116.612602 322.087494,115.841873 329.013550,115.843636 
	C346.175690,115.848007 363.337860,115.852928 381.000000,115.857697 
z"/>
<path fill="#000000" opacity="1.000000" stroke="none" 
	d="
M323.000580,145.713867 
	C362.144958,145.715485 400.789398,145.714172 439.433868,145.722794 
	C446.310730,145.724335 446.332581,145.743378 446.337097,152.620773 
	C446.350647,173.275574 446.257721,193.931030 446.417053,214.584625 
	C446.451660,219.067200 445.978760,221.873459 440.340698,221.438248 
	C434.224701,220.966171 434.048950,221.232635 434.077637,214.795059 
	C434.157837,196.808899 434.264618,178.822800 434.384399,160.836853 
	C434.423248,155.004288 433.786346,154.309723 427.855225,154.308151 
	C388.544495,154.297699 349.233704,154.315460 309.923065,154.255585 
	C307.339905,154.251648 303.909363,155.332901 303.677765,150.710571 
	C303.516937,147.501007 304.314758,145.603775 308.010345,145.714706 
	C312.836121,145.859558 317.670166,145.727341 323.000580,145.713867 
z"/>
<path fill="#000000" opacity="1.000000" stroke="none" 
	d="
M389.000000,160.694138 
	C395.490997,160.694687 401.483521,160.777481 407.472321,160.663010 
	C410.709503,160.601135 413.033875,161.108749 412.944153,165.157242 
	C412.859589,168.972290 410.541229,169.290939 407.593536,169.284241 
	C390.619202,169.245651 373.644684,169.274734 356.670227,169.275253 
	C334.703278,169.275909 312.736328,169.287521 290.769440,169.246948 
	C288.220154,169.242249 285.228943,169.905090 284.851349,165.789825 
	C284.434814,161.250763 286.928711,160.636017 290.647400,160.649094 
	C315.110260,160.735107 339.573578,160.691254 364.036743,160.690674 
	C372.191162,160.690475 380.345581,160.692978 389.000000,160.694138 
z"/>
<path fill="#000000" opacity="1.000000" stroke="none" 
	d="
M372.000000,100.869354 
	C396.299805,100.871078 420.099670,100.856773 443.899384,100.902817 
	C445.964996,100.906815 448.380066,100.254990 449.771149,102.599655 
	C451.676422,105.811005 449.676910,109.294197 445.783234,109.298538 
	C406.172424,109.342712 366.561554,109.324646 326.950684,109.349136 
	C324.401154,109.350716 322.332520,109.174881 322.371887,105.740486 
	C322.409515,102.459801 323.599609,100.871101 327.063202,100.887207 
	C340.710144,100.950676 354.357635,100.885429 368.004944,100.868408 
	C369.169952,100.866959 370.334991,100.868965 372.000000,100.869354 
z"/>
<path fill="#000000" opacity="1.000000" stroke="none" 
	d="
M362.000000,130.779327 
	C383.652405,130.780640 404.805023,130.829239 425.957031,130.737946 
	C429.547150,130.722443 431.741150,131.435867 431.378418,135.687912 
	C431.169647,138.135361 430.387756,139.450272 427.805725,139.298935 
	C427.142456,139.260071 426.473969,139.318024 425.807892,139.318039 
	C387.167297,139.319107 348.526642,139.339676 309.886169,139.264359 
	C307.664124,139.260025 304.635437,140.449402 303.789185,136.706223 
	C302.824768,132.440430 304.191803,130.775269 309.035400,130.768097 
	C326.523560,130.742203 344.011780,130.771225 362.000000,130.779327 
z"/>
<path fill="#000000" opacity="1.000000" stroke="none" 
	d="
M437.937805,136.800491 
	C437.955597,134.456711 437.255493,132.136734 439.677887,131.217300 
	C441.532410,130.513443 443.696259,130.292267 445.333313,131.678146 
	C446.904449,133.008194 446.469116,135.093689 446.126526,136.808014 
	C445.477600,140.055237 441.380676,140.230240 437.937805,136.800491 
z"/>
<path fill="#000000" opacity="1.000000" stroke="none" 
	d="
M425.601227,160.896973 
	C428.746765,165.031998 428.357605,168.619415 425.039795,169.118332 
	C423.342987,169.373489 421.185883,169.880219 420.079010,168.006790 
	C419.043549,166.254135 419.213104,164.049149 419.953461,162.263260 
	C420.936523,159.891998 423.317871,160.929337 425.601227,160.896973 
z"/>
<path fill="#000000" opacity="1.000000" stroke="none" 
	d="
M463.422424,101.436752 
	C465.381744,104.445854 466.942932,107.470718 462.643890,109.110161 
	C460.998840,109.737511 458.500671,110.021698 457.220764,108.101334 
	C456.215179,106.592537 456.283905,104.461365 456.999329,102.855019 
	C458.220459,100.113197 460.804443,101.028519 463.422424,101.436752 
z"/>
<path fill="#000000" opacity="1.000000" stroke="none" 
	d="
M468.896332,251.018280 
	C465.695618,250.876129 464.293884,249.277374 464.475250,246.545120 
	C464.608551,244.536911 465.854584,243.168213 467.926605,242.946564 
	C469.774902,242.748856 471.193787,243.762619 471.850708,245.379181 
	C472.918152,248.006134 471.702332,249.805771 468.896332,251.018280 
z"/>
<path fill="#000000" opacity="1.000000" stroke="none" 
	d="
M477.396790,213.479782 
	C479.728088,215.128632 480.471130,216.945450 479.158844,219.247314 
	C478.332764,220.696304 477.003937,221.292572 475.380188,221.148941 
	C473.729645,221.002945 472.390228,220.085342 472.087677,218.524460 
	C471.334747,214.639694 473.139313,212.901733 477.396790,213.479782 
z"/>
<path fill="#000000" opacity="1.000000" stroke="none" 
	d="
M311.975922,195.613495 
	C323.965332,192.310593 333.977112,196.790054 337.273560,206.666580 
	C339.548920,213.483688 337.633728,218.205933 331.322052,221.659943 
	C328.405243,223.256165 324.919220,223.690216 323.319977,227.662262 
	C322.266998,230.277512 315.437073,229.297638 314.041718,226.456848 
	C313.211517,224.766571 312.091553,223.905167 310.497681,223.288101 
	C305.190552,221.233292 300.135193,218.628021 299.956177,212.077850 
	C299.766937,205.153687 303.363464,200.112915 309.332428,196.743607 
	C310.051819,196.337540 310.838257,196.050339 311.975922,195.613495 
M324.892090,206.449036 
	C322.120239,206.935272 322.094818,208.952789 322.615356,210.968353 
	C323.083435,212.780930 324.760864,212.729874 326.273041,212.662491 
	C327.840332,212.592667 328.635437,211.732819 328.770599,210.186127 
	C328.971924,207.882797 328.416016,206.231918 324.892090,206.449036 
M309.833679,212.565552 
	C311.738251,212.814529 313.559753,212.845947 313.767242,210.272888 
	C313.870392,208.993744 314.033142,207.541046 312.620300,206.810379 
	C311.412537,206.185760 309.904694,206.029190 308.964996,207.052124 
	C307.452057,208.699051 307.591858,210.574371 309.833679,212.565552 
z"/>
</svg>