<?xml version="1.0" standalone="no"?>
<!DOCTYPE svg PUBLIC "-//W3C//DTD SVG 20010904//EN"
 "http://www.w3.org/TR/2001/REC-SVG-20010904/DTD/svg10.dtd">
<svg version="1.0" xmlns="http://www.w3.org/2000/svg"
 width="129.000000pt" height="149.000000pt" viewBox="0 0 129.000000 149.000000"
 preserveAspectRatio="xMidYMid meet">

<g transform="translate(0.000000,149.000000) scale(0.100000,-0.100000)"
fill="#000000" stroke="none">
<path d="M0 745 l0 -745 645 0 645 0 0 745 0 745 -645 0 -645 0 0 -745z m1238
707 c10 -7 12 -156 10 -713 l-3 -704 -605 0 -605 0 -3 704 c-2 557 0 706 10
713 17 10 1179 10 1196 0z"/>
<path d="M57 1433 c-4 -3 -7 -55 -7 -115 l0 -108 590 0 591 0 -3 113 -3 112
-581 3 c-319 1 -584 -1 -587 -5z m767 -96 c20 -56 -57 -92 -90 -42 -19 29 -11
63 19 74 31 12 60 -2 71 -32z m144 27 c43 -30 21 -94 -32 -94 -22 0 -46 28
-46 55 0 20 32 55 50 55 3 0 16 -7 28 -16z m186 -27 c20 -56 -57 -92 -90 -42
-19 29 -11 63 19 74 31 12 60 -2 71 -32z"/>
<path d="M755 1344 c-18 -19 -16 -33 7 -48 12 -7 21 -6 32 3 22 18 20 38 -3
51 -15 7 -24 6 -36 -6z"/>
<path d="M922 1348 c-27 -27 5 -73 38 -53 20 12 4 65 -20 65 -3 0 -11 -5 -18
-12z"/>
<path d="M1085 1343 c-18 -18 -16 -32 8 -47 21 -13 51 13 42 36 -10 24 -32 29
-50 11z"/>
<path d="M50 620 l0 -570 590 0 590 0 0 570 0 570 -590 0 -590 0 0 -570z m450
472 c0 -6 -103 -162 -127 -191 -1 -2 -6 -1 -9 2 -8 8 115 197 127 197 5 0 9
-4 9 -8z m-180 -24 c0 -6 -14 -24 -32 -40 l-32 -28 34 -35 c18 -19 30 -38 26
-42 -3 -4 -25 11 -47 34 l-41 41 37 41 c38 41 55 51 55 29z m254 -19 l19 -31
19 31 c11 17 24 31 29 31 13 0 11 -9 -12 -46 l-21 -34 21 -34 c23 -37 25 -46
12 -46 -5 0 -18 14 -29 31 l-19 31 -19 -31 c-18 -31 -34 -40 -34 -20 0 6 9 24
21 40 l20 29 -20 29 c-12 16 -21 34 -21 40 0 20 16 11 34 -20z m204 6 c3 -16
1 -18 -9 -7 -7 6 -23 12 -36 12 -18 0 -23 -6 -23 -24 0 -21 6 -25 33 -28 30
-3 32 -5 32 -43 0 -39 -1 -40 -38 -43 -27 -2 -39 1 -43 13 -4 9 -3 19 1 23 4
4 10 1 12 -5 3 -7 16 -13 29 -13 19 0 24 5 24 24 0 21 -6 25 -32 28 -28 3 -34
7 -36 31 -6 47 4 59 45 55 29 -2 39 -8 41 -23z m132 10 c7 -9 10 -19 6 -22 -4
-4 -11 -2 -15 6 -5 7 -19 11 -32 9 -34 -4 -33 -42 1 -46 36 -5 50 -20 50 -52
0 -40 -63 -57 -90 -25 -16 19 -5 34 12 17 7 -7 22 -12 35 -12 18 0 23 6 23 25
0 21 -5 25 -28 25 -15 0 -33 5 -40 12 -15 15 -15 51 0 66 17 17 63 15 78 -3z
m105 -26 l37 -41 -41 -41 c-22 -23 -44 -38 -47 -34 -4 4 7 23 26 42 l33 35
-31 30 c-31 30 -41 50 -23 50 5 0 25 -19 46 -41z m-325 -229 c10 -5 24 -27 30
-47 7 -21 25 -51 40 -68 34 -36 60 -87 60 -115 0 -13 7 -20 20 -20 17 0 20 7
20 48 0 41 5 53 30 77 38 36 53 24 17 -13 -22 -23 -27 -37 -27 -79 0 -49 -1
-52 -27 -55 -24 -3 -28 -8 -28 -33 0 -29 2 -30 51 -33 43 -2 56 -8 84 -37 43
-44 31 -59 -13 -17 -28 27 -41 32 -80 32 -45 0 -47 -1 -47 -29 0 -25 4 -30 28
-33 27 -3 27 -4 30 -82 3 -71 6 -81 32 -110 18 -18 25 -33 18 -35 -6 -2 -24
10 -40 28 -25 28 -28 38 -28 106 0 72 -1 75 -23 75 -19 0 -26 -8 -35 -39 -26
-84 -122 -135 -210 -112 -47 13 -107 74 -117 120 -5 24 -12 31 -31 31 -23 0
-24 -2 -24 -78 0 -76 -1 -79 -34 -111 -46 -45 -65 -36 -21 10 32 35 34 41 37
115 3 78 3 79 31 82 23 3 27 8 27 33 0 28 -2 29 -47 29 -39 0 -52 -5 -80 -32
-44 -42 -56 -27 -13 17 28 29 41 35 84 37 49 3 51 4 51 33 0 25 -4 30 -27 33
-27 3 -28 6 -28 55 0 42 -5 56 -27 79 -36 37 -21 49 17 13 25 -24 30 -36 30
-77 0 -41 3 -48 20 -48 13 0 20 7 20 20 0 29 27 78 66 123 19 20 34 46 34 57
0 48 78 78 130 50z"/>
<path d="M596 784 c-9 -8 -16 -20 -16 -25 0 -5 0 -12 0 -15 0 -4 27 -6 60 -6
33 0 60 2 60 6 0 3 0 10 0 15 0 36 -75 54 -104 25z"/>
<path d="M560 698 c-45 -31 -69 -66 -77 -111 l-6 -37 163 0 163 0 -6 37 c-13
75 -81 133 -157 133 -32 0 -57 -7 -80 -22z"/>
<path d="M480 463 c0 -85 13 -134 47 -174 23 -26 76 -59 98 -59 3 0 5 68 5
150 l0 150 -75 0 -75 0 0 -67z"/>
<path d="M650 380 c0 -82 2 -150 5 -150 3 0 20 6 38 14 70 30 107 104 107 217
l0 69 -75 0 -75 0 0 -150z"/>
</g>
</svg>
