<svg version="1.1" id="Layer_1" xmlns="http://www.w3.org/2000/svg" xmlns:xlink="http://www.w3.org/1999/xlink" x="0px" y="0px"
	 width="100%" viewBox="0 0 53 88" enable-background="new 0 0 53 88" xml:space="preserve">
<path fill="none" opacity="1.000000" stroke="none" 
	d="
M21.000576,89.000000 
	C14.012296,89.000000 7.523833,89.000000 1.017685,89.000000 
	C1.017685,59.730530 1.017685,30.461046 1.017685,1.095781 
	C18.570992,1.095781 36.142681,1.095781 53.857185,1.095781 
	C53.857185,30.332790 53.857185,59.666321 53.857185,89.000000 
	C43.128605,89.000000 32.314499,89.000000 21.000576,89.000000 
M33.940300,58.816685 
	C33.940300,55.717762 33.940300,52.618843 33.940300,49.369934 
	C29.722548,49.369934 26.008785,49.369934 22.855595,49.369934 
	C21.483210,57.429741 20.171268,65.134567 18.832422,72.997406 
	C23.747194,74.264297 27.655802,73.798347 29.578201,68.041489 
	C30.559982,65.101425 32.378353,62.440716 33.940300,58.816685 
M24.051907,35.177341 
	C27.125536,35.177341 30.199165,35.177341 33.100983,35.177341 
	C33.100983,30.261299 33.100983,26.012846 33.100983,21.723648 
	C29.113806,21.723648 25.418463,21.723648 21.350588,21.723648 
	C21.350588,25.689924 21.244514,29.308075 21.434328,32.910633 
	C21.475468,33.691452 22.579168,34.416279 24.051907,35.177341 
z"/>
<path fill="#060606" opacity="1.000000" stroke="none" 
	d="
M33.879448,59.235214 
	C32.378353,62.440716 30.559982,65.101425 29.578201,68.041489 
	C27.655802,73.798347 23.747194,74.264297 18.832422,72.997406 
	C20.171268,65.134567 21.483210,57.429741 22.855595,49.369934 
	C26.008785,49.369934 29.722548,49.369934 33.940300,49.369934 
	C33.940300,52.618843 33.940300,55.717762 33.879448,59.235214 
z"/>
<path fill="#111111" opacity="1.000000" stroke="none" 
	d="
M23.622683,35.172119 
	C22.579168,34.416279 21.475468,33.691452 21.434328,32.910633 
	C21.244514,29.308075 21.350588,25.689924 21.350588,21.723648 
	C25.418463,21.723648 29.113806,21.723648 33.100983,21.723648 
	C33.100983,26.012846 33.100983,30.261299 33.100983,35.177341 
	C30.199165,35.177341 27.125536,35.177341 23.622683,35.172119 
z"/>
</svg>